<svg width="896" height="537" viewBox="0 0 896 537" fill="none" xmlns="http://www.w3.org/2000/svg">
<path d="M1.21362 327.555C230.747 392.965 216.103 270.871 390.915 279.092C430.223 280.939 472.295 291.873 507.788 294.501C543.28 297.133 572.193 291.468 596.728 275.212C621.262 258.957 641.418 232.116 652.582 207.984C663.747 183.852 665.912 162.433 666.677 136.195C668.413 76.4216 662.209 63.977 681.669 6.77521C683.118 2.51495 683.919 1.28384 684.465 1.21905C685.012 1.1502 685.303 2.24767 686.574 7.11539C687.844 11.9831 690.098 20.6211 691.656 26.6632C693.214 32.7053 694.084 36.1476 692.943 38.8487C691.802 41.5498 688.654 43.5139 682.568 44.4089C676.482 45.3039 667.462 45.1298 662.642 44.8827C657.823 44.6357 657.208 44.3117 656.754 43.603C656.301 42.8943 656.01 41.7969 660.692 41.0315C665.374 40.2661 675.029 39.8287 682.495 39.8935C689.961 39.9583 695.241 40.5293 698.661 40.748C702.08 40.9707 703.638 40.8452 704.277 43.8946C704.921 46.944 704.646 53.1643 704.018 57.5137C703.391 61.863 702.408 64.3333 701.939 64.4791C701.469 64.6249 701.51 62.4462 701.02 59.7127C700.526 56.9791 699.502 53.6908 698.139 51.7186C696.775 49.7464 695.075 49.0903 693.408 51.0058C691.737 52.9213 690.094 57.4043 689.645 60.7413C689.192 64.0782 689.928 66.2731 691.005 66.917C692.081 67.5609 693.497 66.6538 693.878 63.2359C694.254 59.8179 693.59 53.8892 691.154 51.1152C688.718 48.3452 684.51 48.7299 682.122 51.5647C679.735 54.3995 679.168 59.6803 679.415 62.9565C679.662 66.2326 680.726 67.4961 681.681 66.5809C682.632 65.6657 683.47 62.5677 682.604 59.0485C678.351 41.7645 668.607 59.1903 671.876 66.504C672.471 67.8404 673.576 67.0831 674.005 65.0663C674.434 63.0496 674.183 59.7775 673.536 57.1168C671.278 47.8673 663.82 53.0064 662.93 56.2178C662.011 59.5466 662.541 66.6822 663.201 68.873C663.86 71.0639 665.099 71.4 670.541 71.5053C675.984 71.6106 685.635 71.4851 691.47 71.2866C697.309 71.0882 699.337 70.8169 700.486 71.7726C701.635 72.7283 701.902 74.9152 701.222 78.0172C700.538 81.1193 698.908 85.1366 693.42 87.2869C687.933 89.4373 678.594 89.7249 673.556 88.6962C668.518 87.6636 667.785 85.3148 672.702 84.4765C677.619 83.6382 688.184 84.3064 693.538 85.1892C698.887 86.072 699.025 87.1614 699.369 101.493C699.717 115.825 700.275 143.395 700.502 160.06C700.729 176.724 700.615 182.483 700.008 185.739C699.401 188.995 698.297 189.756 691.83 190.408C685.36 191.06 673.527 191.615 666.612 191.011C659.7 190.412 657.713 188.659 657.507 187.176C657.301 185.694 658.883 184.479 661.622 183.596C664.362 182.714 668.263 182.167 675.498 181.997C682.738 181.823 693.311 182.029 700.377 182.71C707.442 183.39 710.999 184.548 713.152 185.99C715.3 187.432 716.045 189.161 714.005 190.133C711.966 191.105 707.138 191.323 704.565 191.51C701.995 191.692 701.68 191.846 701.319 194.328C700.959 196.811 700.559 201.63 700.644 205.214C700.729 208.798 701.307 211.142 701.902 212.556C702.497 213.969 703.112 214.447 703.565 211.11C704.018 207.773 704.31 200.613 702.359 196.92C700.409 193.223 696.213 192.988 693.052 195.571C689.892 198.159 687.763 203.565 687.387 206.983C687.011 210.401 688.382 211.831 689.026 210.673C689.669 209.518 689.588 205.781 688.641 202.334C687.695 198.892 685.89 195.741 683.802 195C681.714 194.259 679.351 195.928 677.91 197.924C676.473 199.921 675.96 202.245 675.996 204.505C676.028 206.765 676.611 208.956 676.923 208.96C677.234 208.964 677.275 206.785 676.935 204.209C676.595 201.634 675.874 198.661 674.746 196.616C673.617 194.571 672.083 193.449 670.565 195.523C669.048 197.596 667.547 202.861 668.166 207.077C668.785 211.292 671.524 214.459 672.912 219.08C674.3 223.7 674.341 229.771 674.264 241.839C674.187 253.903 673.997 271.961 671.298 282.887C668.599 293.813 663.391 297.603 663.12 287.402C662.849 277.197 667.514 253 669.234 240.341C670.954 227.685 669.732 226.572 668.129 224.903C666.527 223.239 664.548 221.02 663.407 219.675C662.266 218.331 661.962 217.857 662.124 217.549C662.286 217.241 662.909 217.095 666.333 217.083C669.756 217.071 675.976 217.193 683.288 217.33C690.596 217.472 698.997 217.634 703.816 217.723C708.636 217.816 709.882 217.841 710.42 218.161C710.958 218.48 710.792 219.1 709.275 221.097C707.757 223.093 704.893 226.462 703.46 228.147C699.531 232.772 702.711 296.534 710.113 307.019C718.347 318.686 731.47 305.998 721.746 301.616C715.964 299.012 692.453 300.977 672.427 303.508C652.995 305.966 618.907 303.2 587.489 300.163C556.068 297.129 527.159 291.464 502.625 275.208C478.09 258.953 457.934 232.112 446.77 207.98C420.01 150.134 443.225 69.926 427.075 19.9326C425.355 14.6113 424.558 13.3762 424.012 13.3073C423.465 13.2385 423.174 14.3319 421.175 20.8033C419.18 27.2747 415.478 39.1241 415.202 46.0369C414.923 52.9497 418.067 54.9219 424.149 55.8371C430.231 56.7523 439.251 56.6106 444.071 56.3757C448.89 56.1449 449.505 55.8209 449.962 55.1163C450.42 54.4076 450.711 53.3142 446.033 52.5326C441.355 51.751 431.7 51.2812 424.234 51.3217C416.768 51.3622 411.488 51.913 408.068 52.1236C404.649 52.3341 403.091 52.2045 402.439 55.2499C401.788 58.2953 402.043 64.5196 402.654 68.869C403.269 73.2183 404.24 75.6927 404.71 75.8425C405.179 75.9924 405.143 73.8137 405.644 71.0801C406.146 68.3466 407.182 65.0623 408.55 63.0941C409.918 61.126 411.621 60.478 413.284 62.3976C414.947 64.3171 416.574 68.8082 417.015 72.1452C417.456 75.4862 416.716 77.677 415.635 78.3169C414.555 78.9567 413.143 78.0456 412.778 74.6236C412.414 71.2057 413.098 65.2769 415.542 62.515C417.986 59.7532 422.195 60.15 424.574 62.9929C426.954 65.8358 427.504 71.1206 427.245 74.3928C426.986 77.6649 425.918 78.9284 424.971 78.0091C422.126 75.2513 423.939 60.7494 431.672 60.4942C438.786 60.2553 442.217 74.2186 440.4 78.2521C439.797 79.5844 438.697 78.8231 438.276 76.8064C437.855 74.7896 438.114 71.5175 438.774 68.8568C439.433 66.2002 440.489 64.1592 441.97 64.4467C443.451 64.7343 445.361 67.3504 446.268 70.6832C447.174 74.0161 447.085 78.0658 446.422 80.2567C445.758 82.4476 444.516 82.7796 439.073 82.8647C433.63 82.9497 421.005 82.9011 415.166 82.6825C409.327 82.4638 407.299 82.1843 406.15 83.136C404.997 84.0877 404.722 86.2745 405.393 89.3766C406.065 92.4786 407.684 96.5 413.163 98.6706C418.642 100.841 427.981 101.161 433.023 100.145C438.061 99.1323 438.806 96.7834 433.889 95.929C428.977 95.0745 418.407 95.7062 413.054 96.5729C407.7 97.4354 407.562 98.5289 407.166 112.857C406.769 127.188 406.118 154.755 405.839 171.419C405.559 188.084 405.648 193.842 406.247 197.102C406.842 200.362 407.943 201.124 414.413 201.8C420.88 202.476 432.712 203.067 439.627 202.488C446.543 201.913 448.534 200.168 448.744 198.686C448.955 197.203 447.381 195.984 444.641 195.094C441.906 194.203 438.005 193.644 430.77 193.445C423.53 193.251 412.956 193.417 405.887 194.073C398.818 194.729 395.257 195.875 393.104 197.313C390.947 198.746 390.199 200.472 392.238 201.452C394.278 202.432 399.101 202.666 401.671 202.857C404.24 203.051 404.556 203.201 404.904 205.687C405.256 208.174 405.64 212.993 405.543 216.577C405.446 220.161 404.859 222.506 404.26 223.915C403.662 225.324 403.046 225.802 402.605 222.461C402.164 219.12 401.893 211.964 403.86 208.275C405.822 204.586 410.019 204.363 413.175 206.959C416.327 209.555 418.436 214.969 418.8 218.391C419.164 221.809 417.788 223.235 417.149 222.077C416.509 220.918 416.607 217.18 417.562 213.742C418.517 210.3 420.333 207.158 422.426 206.425C424.514 205.692 426.873 207.368 428.305 209.369C429.738 211.369 430.239 213.698 430.199 215.953C430.158 218.213 429.568 220.4 429.256 220.404C428.945 220.408 428.912 218.229 429.26 215.654C429.608 213.078 430.341 210.11 431.474 208.069C432.607 206.028 434.148 204.914 435.658 206.991C437.167 209.069 438.652 214.338 438.021 218.553C437.39 222.765 434.638 225.924 433.234 230.54C431.83 235.157 431.769 241.227 431.805 253.296C431.842 265.36 431.971 283.421 434.634 294.355C437.297 305.289 442.492 309.1 442.796 298.895C443.099 288.694 438.515 264.477 436.839 251.813C435.16 239.15 436.386 238.04 437.993 236.38C439.599 234.72 441.586 232.509 442.731 231.168C443.876 229.828 444.18 229.354 444.018 229.046C443.856 228.738 443.233 228.592 439.81 228.568C436.386 228.544 430.167 228.645 422.854 228.759C415.546 228.876 407.146 229.01 402.322 229.087C397.499 229.164 396.256 229.184 395.718 229.504C395.18 229.824 395.346 230.443 396.855 232.444C398.365 234.444 401.217 237.826 402.646 239.514C404.074 241.203 404.074 241.203 403.961 252.429C403.892 259.475 397.919 301.155 402.666 310.522C404.078 313.308 406.531 313.041 408.61 311.064C410.237 309.517 411.844 306.824 411.5 304.978C411.16 303.131 408.869 302.123 398.943 305.379C389.013 308.634 371.447 316.147 350.979 318.58C330.512 321.01 298.661 317.301 285.291 317.734C267.984 318.293 258.127 341.814 307.77 333.576C335.703 328.94 388.843 317.819 455.98 312.599C523.112 307.379 604.238 308.055 662.816 311.566C721.394 315.078 757.421 321.423 783.327 326.745C809.233 332.066 825.011 336.367 829.952 346.369C834.889 356.372 828.985 372.081 826.86 381.351C823.757 394.909 829.167 398.955 830.312 393.228C832.028 384.643 828.576 375.078 827.309 370.307C825.841 364.779 822.534 363.953 819.645 366.253C816.756 368.55 814.279 373.976 812.936 379.192C811.593 384.408 811.386 389.418 811.852 391.847C812.317 394.273 813.45 394.119 814.02 391.333C814.587 388.543 814.587 383.12 813.555 377.904C812.523 372.688 810.459 367.679 807.777 365.869C805.094 364.062 801.792 365.456 799.234 369.509C796.681 373.563 794.872 380.277 794.795 384.513C794.718 388.749 796.369 390.503 797.118 388.644C797.867 386.785 797.713 381.31 797.065 375.94C796.422 370.57 795.285 365.302 792.938 362.9C790.591 360.499 787.03 360.964 784.396 364.5C781.765 368.039 780.062 374.648 779.621 379.245C779.184 383.841 780.009 386.425 780.758 386.785C781.506 387.146 782.178 385.287 782.486 380.561C782.797 375.835 782.745 368.242 781.3 363.88C779.855 359.515 777.015 358.381 774.409 359.025C771.803 359.669 769.427 362.098 767.57 366.824C765.712 371.55 764.369 378.572 764.705 381.804C765.041 385.036 767.052 384.465 767.829 379.893C768.602 375.321 768.14 366.747 765.842 361.973C763.544 357.194 759.416 356.214 756.45 357.814C753.484 359.413 751.675 363.597 750.878 368.4C750.077 373.203 750.283 378.625 751.06 380.561C751.833 382.497 753.176 380.95 753.69 376.378C754.204 371.805 753.896 364.216 751.679 359.592C749.461 354.971 745.33 353.315 742.57 355.615C739.81 357.915 738.414 364.164 738.366 369.068C738.313 373.976 739.604 377.54 740.583 377.795C741.563 378.054 742.234 375.005 742.157 370.125C742.081 365.245 741.255 358.531 738.778 355.894C736.302 353.262 732.175 354.708 729.564 358.219C726.958 361.73 725.874 367.31 726.08 370.692C726.287 374.073 727.784 375.264 728.403 372.862C729.022 370.461 728.763 364.471 728.12 360.106C727.476 355.74 726.44 353.003 724.818 352.075C723.191 351.144 720.974 352.023 719.399 354.116C717.825 356.206 716.895 359.515 716.328 362.973C715.762 366.432 715.555 370.048 716.146 371.623C716.741 373.199 718.133 372.733 718.493 369.351C718.853 365.97 718.185 359.669 716.66 355.433C715.138 351.197 712.763 349.03 710.388 348.771C708.012 348.512 705.641 350.164 704.091 352.978C702.541 355.793 701.821 359.77 701.667 362.973C701.514 366.176 701.926 368.602 702.699 368.938C703.472 369.274 704.609 367.517 704.868 364.601C705.127 361.681 704.508 357.603 703.217 354.376C701.926 351.148 699.964 348.771 697.232 347.686C694.497 346.6 690.988 346.807 688.767 349.621C686.549 352.436 685.619 357.858 685.748 361.835C685.878 365.812 687.063 368.343 688.047 368.266C689.026 368.189 689.803 365.504 689.75 361.706C689.698 357.911 688.82 353.003 686.448 349.799C684.073 346.596 680.204 345.098 677.623 346.831C675.041 348.56 673.75 353.521 673.03 357.445C672.305 361.369 672.152 364.261 672.747 365.942C673.341 367.618 674.681 368.084 675.199 366.768C675.717 365.451 675.405 362.354 674.503 358.814C673.6 355.275 672.103 351.298 669.315 349.18C666.527 347.062 662.452 346.803 659.769 348.637C657.086 350.472 655.795 354.396 655.229 358.271C654.662 362.147 654.816 365.966 655.435 367.646C656.054 369.323 657.139 368.861 657.422 365.917C657.705 362.973 657.191 357.551 655.977 353.42C654.764 349.289 652.854 346.446 650.171 345.75C647.488 345.053 644.028 346.499 642.171 350.192C640.313 353.886 640.054 359.822 640.184 363.621C640.313 367.416 640.827 369.072 641.527 368.76C642.223 368.448 643.101 366.176 642.871 362.305C642.64 358.429 641.297 352.958 639.621 349.65C637.946 346.345 635.931 345.207 633.79 345.827C631.65 346.446 628.797 350.537 628.089 352.618C625.648 359.798 623.589 384.165 624.038 392.601C624.629 403.685 627.955 411.974 636.412 416.931C644.87 421.888 658.458 423.512 665.71 426.995C672.961 430.477 673.871 435.823 658.612 441.517C643.352 447.211 611.918 453.253 575.163 454.625C538.408 455.998 496.324 452.702 469.483 446.575C442.638 440.448 431.037 431.486 430.413 425.338C429.79 419.191 440.149 415.854 449.21 413.906C458.27 411.958 466.027 411.399 469.317 409.548C472.611 407.702 471.438 404.563 465.149 403.235C458.861 401.907 447.458 402.389 432.825 407.398C418.193 412.408 400.335 421.94 408.226 433.855C416.117 445.769 449.756 460.064 503.798 466.005C557.84 471.946 632.285 469.536 671.933 461.182C711.577 452.827 716.425 438.536 701.862 428.238C687.298 417.939 653.323 411.634 644.38 406.722C635.441 401.81 651.534 398.286 673.471 400.141C695.411 401.996 723.195 409.224 738.669 422.479C754.143 435.734 757.308 455.014 721.957 467.576C686.606 480.134 612.74 485.974 547.404 483.888C482.068 481.803 425.258 471.792 396.167 460.53C367.076 449.268 365.701 436.754 370.743 427.598C375.785 418.442 387.249 412.642 397.236 408.593C407.227 404.543 415.741 402.239 425.015 399.991C434.29 397.74 444.326 395.541 442.998 393.358C441.671 391.175 428.981 389.004 409.78 391.649C390.579 394.297 364.863 401.761 349.737 415.736C334.611 429.712 330.071 450.195 364.39 468.641C398.709 487.088 471.887 503.493 550.977 506.231C630.067 508.964 715.078 498.026 753.593 482.965C792.108 467.904 784.128 448.713 771.612 434.162C759.096 419.608 742.04 409.69 745.326 405.912C748.612 402.134 772.244 404.49 795.803 415.012C819.362 425.533 842.852 444.218 833.116 465.718C823.38 487.217 780.414 511.528 710.748 524.487C641.082 537.446 544.709 539.053 462.713 530.371C380.717 521.688 313.099 502.719 281.419 483.362C249.742 464.005 254.003 444.262 271.816 429.939C299.163 407.953 331.313 408.84 357.814 395.857C359.554 395.002 361.177 393.852 360.905 392.803C360.634 391.754 358.469 390.807 354.034 390.774C349.599 390.742 342.89 391.621 335.562 393.305C328.233 394.99 320.282 397.48 311.784 399.76C303.286 402.04 294.246 404.106 289.633 403.624C285.02 403.138 284.842 400.105 284.66 397.067C284.3 386.842 286.177 375.827 287.646 370.303C289.115 364.775 292.421 363.949 295.31 366.249C298.2 368.545 300.676 373.972 302.02 379.188C303.363 384.404 303.57 389.413 303.104 391.843C302.639 394.269 301.506 394.115 300.935 391.329C300.369 388.539 300.369 383.116 301.401 377.9C302.432 372.684 304.496 367.675 307.179 365.865C309.862 364.058 313.164 365.451 315.721 369.505C318.275 373.559 320.084 380.273 320.16 384.509C320.237 388.745 318.586 390.499 317.838 388.64C317.089 386.781 317.243 381.306 317.89 375.936C318.538 370.566 319.671 365.298 322.018 362.896C324.365 360.495 327.926 360.96 330.56 364.496C333.19 368.035 334.894 374.644 335.335 379.241C335.772 383.837 334.947 386.421 334.198 386.781C333.449 387.142 332.778 385.283 332.47 380.557C332.159 375.831 332.211 368.238 333.656 363.876C335.1 359.511 337.941 358.377 340.547 359.021C343.153 359.664 345.528 362.094 347.386 366.82C349.243 371.546 350.587 378.568 350.251 381.8C349.915 385.032 347.904 384.461 347.127 379.889C346.35 375.317 346.815 366.743 349.114 361.969C351.412 357.19 355.54 356.21 358.506 357.81C361.472 359.409 363.281 363.593 364.078 368.396C364.879 373.199 364.673 378.621 363.896 380.557C363.123 382.493 361.78 380.946 361.266 376.374C360.748 371.801 361.059 364.212 363.277 359.588C365.494 354.967 369.626 353.311 372.386 355.611C375.145 357.911 376.541 364.16 376.59 369.064C376.643 373.972 375.352 377.536 374.372 377.791C373.393 378.05 372.721 375.001 372.798 370.121C372.875 365.241 373.701 358.527 376.177 355.89C378.654 353.258 382.781 354.704 385.387 358.215C387.993 361.726 389.078 367.306 388.871 370.688C388.665 374.069 387.168 375.26 386.549 372.858C385.929 370.457 386.188 364.467 386.832 360.102C387.475 355.736 388.507 352.999 390.134 352.071C391.761 351.14 393.978 352.019 395.552 354.112C397.126 356.202 398.057 359.511 398.624 362.969C399.19 366.427 399.396 370.044 398.806 371.619C398.211 373.195 396.819 372.729 396.459 369.347C396.098 365.966 396.77 359.664 398.292 355.429C399.813 351.193 402.189 349.026 404.564 348.767C406.939 348.508 409.311 350.16 410.86 352.974C412.41 355.789 413.131 359.766 413.284 362.969C413.438 366.172 413.025 368.598 412.252 368.934C411.48 369.27 410.342 367.513 410.083 364.597C409.824 361.677 410.444 357.599 411.734 354.372C413.025 351.144 414.988 348.767 417.719 347.681C420.455 346.596 423.963 346.803 426.185 349.617C428.402 352.432 429.333 357.854 429.204 361.831C429.074 365.808 427.888 368.339 426.905 368.262C425.926 368.185 425.149 365.5 425.201 361.701C425.254 357.907 426.132 352.999 428.503 349.795C430.879 346.592 434.747 345.094 437.329 346.827C439.911 348.556 441.202 353.517 441.922 357.441C442.646 361.365 442.8 364.257 442.205 365.937C441.61 367.614 440.271 368.08 439.753 366.764C439.235 365.447 439.547 362.349 440.449 358.81C441.351 355.271 442.849 351.294 445.637 349.176C448.425 347.058 452.5 346.799 455.182 348.633C457.865 350.468 459.156 354.392 459.723 358.267C460.289 362.143 460.135 365.962 459.516 367.642C458.897 369.319 457.813 368.857 457.53 365.913C457.246 362.969 457.76 357.547 458.974 353.416C460.188 349.285 462.098 346.442 464.781 345.746C467.464 345.049 470.924 346.495 472.781 350.188C474.638 353.882 474.897 359.818 474.768 363.617C474.638 367.412 474.124 369.068 473.424 368.756C472.728 368.444 471.85 366.172 472.081 362.301C472.312 358.425 473.655 352.954 475.33 349.646C477.006 346.341 479.021 345.203 481.162 345.823C487.175 347.564 488.627 359.559 488.146 364.621C487.899 367.213 486.819 368.262 486.042 366.776C485.265 365.285 484.791 361.26 484.739 356.153C484.686 351.047 485.058 344.855 487.442 339.797C495.118 323.505 520.195 321.371 536.082 318.58C536.15 318.568 536.219 318.572 536.284 318.568C536.486 318.56 536.721 318.576 545.025 319.237C553.328 319.901 569.705 321.205 581.48 322.347C593.256 323.489 600.43 324.461 604.096 324.894C609.709 325.562 607.734 330.916 606.423 336.306C604.052 346.082 612.558 348.909 611.332 339.554C609.349 324.42 596.343 327.344 586.963 332.07C577.219 336.978 573.824 340.149 574.374 349.812C575.625 371.895 595.53 338.902 562.279 333.698C548.169 331.491 522.38 327.627 508.573 326.72C494.766 325.813 492.913 325.838 492.739 325.866C492.565 325.894 492.536 325.919 492.601 329.855C492.662 333.791 492.844 343.66 492.953 348.062C493.062 352.464 493.135 353.424 493.192 353.898C493.253 354.368 493.301 354.347 493.653 354.38C494.005 354.408 494.665 354.489 498.922 355.169C503.179 355.854 511.037 357.137 524.464 358.462C537.89 359.786 556.889 361.143 566.698 361.823C576.507 362.503 577.126 362.503 577.434 362.503C577.741 362.503 577.737 362.503 583.269 360.321C588.8 358.138 599.864 353.768 605.456 351.561C611.048 349.354 611.166 349.305 611.218 349.273C611.271 349.241 611.259 349.224 611.194 350.269C611.129 351.31 611.012 353.412 610.951 354.489C610.891 355.566 610.887 355.619 610.887 355.667C610.887 355.716 610.887 355.757 605.367 357.98C599.847 360.203 588.808 364.605 583.224 366.832C577.64 369.06 577.519 369.108 577.458 369.133C577.397 369.157 577.409 369.153 563.445 367.796C549.48 366.44 521.546 363.726 507.578 362.155C493.609 360.584 493.609 360.155 493.467 360.082C493.325 360.009 493.038 360.296 492.957 368.213C492.876 376.131 492.998 391.673 493.083 399.521C493.168 407.37 493.212 407.524 493.22 407.649C493.232 407.775 493.204 407.876 493.236 407.945C493.265 408.014 493.35 408.05 494.637 408.621C495.923 409.192 498.408 410.298 499.65 410.852C500.893 411.407 500.893 411.407 500.897 411.322C500.897 411.237 500.901 411.071 501.006 403.211C501.115 395.346 501.326 379.787 501.358 372.012C501.394 364.237 499.756 366.221 505.137 366.788C508.889 367.181 516.314 367.825 520.029 368.145C523.744 368.464 523.606 366.589 523.222 375.082C522.837 383.57 522.072 400.55 521.692 409.038C521.308 417.526 521.308 417.526 521.587 417.867C521.862 418.207 522.412 418.883 531.841 421.499C541.269 424.115 559.576 428.667 568.798 430.943C578.02 433.219 578.166 433.219 578.308 433.114C583.054 429.554 611.453 406.673 611.514 404.79C611.518 404.661 611.526 404.478 611.947 397.144C612.368 389.81 611.817 379.755 612.096 371.842C612.117 371.251 612.918 357.227 608.479 362.592C607.771 363.451 607.034 364.905 606.682 366.662C606.33 368.42 605.537 370.878 606.075 371.741C607.884 374.64 610.486 366.423 605.298 365.326C603.081 364.856 599.653 366.788 597.877 369.011C596.1 371.239 595.979 373.757 597.059 374.899C598.14 376.041 600.43 375.798 601.656 374.049C602.882 372.3 603.04 369.048 600.102 368.444C597.161 367.841 591.123 369.886 587.603 371.554C584.082 373.223 583.083 374.507 582.751 376.337C582.419 378.167 582.755 380.541 584.183 381.371C585.616 382.205 588.493 382.25 589.857 380.391C591.22 378.532 591.629 374.187 590.107 373.292C582.184 368.631 557.634 389.183 533.917 378.641C528.523 376.244 527.365 372.486 533.82 371.546C544.252 370.024 578.397 370.963 577.579 381.124C576.843 390.252 576.163 408.532 576.568 418.146C576.976 427.926 576.762 429.526 584.135 422.763C589.314 418.012 598.812 407.528 608.41 400.898C618.009 394.269 627.704 391.491 639.99 388.122C652.275 384.756 667.535 382.906 690.701 384.072C713.872 385.238 744.95 389.418 771.212 394.079C888.87 414.963 941.411 444.854 1074.77 415.554" stroke="#FF9365" stroke-opacity="0.21" stroke-width="1.50584" stroke-miterlimit="2.6131" stroke-linecap="round"/>
</svg>
