<svg width="1512" height="604" viewBox="0 0 1512 604" fill="none" xmlns="http://www.w3.org/2000/svg">
<rect width="1512" height="604" fill="url(#paint0_linear_175_13)" fill-opacity="0.7"/>
<path d="M672 372.339C901.534 437.749 886.889 315.655 1061.7 323.876C1101.01 325.723 1143.08 336.657 1178.57 339.285C1214.07 341.917 1242.98 336.252 1267.51 319.996C1292.05 303.741 1312.2 276.9 1323.37 252.768C1334.53 228.636 1336.7 207.217 1337.46 180.979C1339.2 121.206 1333 108.761 1352.46 51.5591C1353.9 47.2989 1354.71 46.0678 1355.25 46.003C1355.8 45.9341 1356.09 47.0316 1357.36 51.8993C1358.63 56.767 1360.88 65.405 1362.44 71.4471C1364 77.4893 1364.87 80.9315 1363.73 83.6326C1362.59 86.3338 1359.44 88.2979 1353.35 89.1928C1347.27 90.0878 1338.25 89.9137 1333.43 89.6667C1328.61 89.4196 1327.99 89.0957 1327.54 88.387C1327.09 87.6783 1326.8 86.5808 1331.48 85.8154C1336.16 85.05 1345.82 84.6127 1353.28 84.6775C1360.75 84.7422 1366.03 85.3133 1369.45 85.5319C1372.87 85.7547 1374.42 85.6291 1375.06 88.6785C1375.71 91.7279 1375.43 97.9483 1374.8 102.298C1374.18 106.647 1373.19 109.117 1372.72 109.263C1372.26 109.409 1372.3 107.23 1371.81 104.497C1371.31 101.763 1370.29 98.4747 1368.93 96.5025C1367.56 94.5303 1365.86 93.8743 1364.19 95.7898C1362.52 97.7053 1360.88 102.188 1360.43 105.525C1359.98 108.862 1360.71 111.057 1361.79 111.701C1362.87 112.345 1364.28 111.438 1364.66 108.02C1365.04 104.602 1364.38 98.6732 1361.94 95.8991C1359.5 93.1291 1355.3 93.5139 1352.91 96.3486C1350.52 99.1834 1349.95 104.464 1350.2 107.74C1350.45 111.017 1351.51 112.28 1352.47 111.365C1353.42 110.45 1354.26 107.352 1353.39 103.832C1349.14 86.5484 1339.39 103.974 1342.66 111.288C1343.26 112.624 1344.36 111.867 1344.79 109.85C1345.22 107.834 1344.97 104.561 1344.32 101.901C1342.06 92.6513 1334.61 97.7903 1333.72 101.002C1332.8 104.331 1333.33 111.466 1333.99 113.657C1334.65 115.848 1335.88 116.184 1341.33 116.289C1346.77 116.395 1356.42 116.269 1362.26 116.071C1368.1 115.872 1370.12 115.601 1371.27 116.557C1372.42 117.512 1372.69 119.699 1372.01 122.801C1371.32 125.903 1369.69 129.921 1364.21 132.071C1358.72 134.221 1349.38 134.509 1344.34 133.48C1339.3 132.448 1338.57 130.099 1343.49 129.26C1348.4 128.422 1358.97 129.09 1364.32 129.973C1369.67 130.856 1369.81 131.945 1370.16 146.277C1370.5 160.609 1371.06 188.179 1371.29 204.844C1371.51 221.508 1371.4 227.267 1370.79 230.523C1370.19 233.779 1369.08 234.54 1362.62 235.192C1356.15 235.844 1344.31 236.399 1337.4 235.795C1330.49 235.196 1328.5 233.443 1328.29 231.96C1328.09 230.478 1329.67 229.263 1332.41 228.38C1335.15 227.498 1339.05 226.951 1346.28 226.781C1353.52 226.607 1364.1 226.813 1371.16 227.494C1378.23 228.174 1381.79 229.332 1383.94 230.774C1386.09 232.215 1386.83 233.945 1384.79 234.917C1382.75 235.889 1377.92 236.107 1375.35 236.294C1372.78 236.476 1372.47 236.63 1372.11 239.112C1371.75 241.595 1371.34 246.414 1371.43 249.998C1371.51 253.582 1372.09 255.926 1372.69 257.34C1373.28 258.753 1373.9 259.231 1374.35 255.894C1374.8 252.557 1375.1 245.397 1373.15 241.704C1371.2 238.007 1367 237.772 1363.84 240.355C1360.68 242.943 1358.55 248.349 1358.17 251.767C1357.8 255.185 1359.17 256.615 1359.81 255.457C1360.46 254.302 1360.37 250.565 1359.43 247.118C1358.48 243.676 1356.68 240.525 1354.59 239.784C1352.5 239.043 1350.14 240.712 1348.7 242.708C1347.26 244.705 1346.75 247.029 1346.78 249.289C1346.81 251.549 1347.4 253.74 1347.71 253.744C1348.02 253.748 1348.06 251.569 1347.72 248.993C1347.38 246.418 1346.66 243.445 1345.53 241.4C1344.4 239.355 1342.87 238.233 1341.35 240.307C1339.83 242.38 1338.33 247.645 1338.95 251.861C1339.57 256.076 1342.31 259.243 1343.7 263.864C1345.09 268.484 1345.13 274.555 1345.05 286.623C1344.97 298.687 1344.78 316.744 1342.08 327.671C1339.39 338.597 1334.18 342.387 1333.91 332.186C1333.63 321.981 1338.3 297.784 1340.02 285.125C1341.74 272.469 1340.52 271.356 1338.92 269.687C1337.31 268.023 1335.33 265.804 1334.19 264.459C1333.05 263.115 1332.75 262.641 1332.91 262.333C1333.07 262.025 1333.7 261.879 1337.12 261.867C1340.54 261.855 1346.76 261.977 1354.07 262.114C1361.38 262.256 1369.78 262.418 1374.6 262.507C1379.42 262.6 1380.67 262.625 1381.21 262.944C1381.74 263.264 1381.58 263.884 1380.06 265.881C1378.54 267.877 1375.68 271.246 1374.25 272.931C1370.32 277.556 1373.5 341.318 1380.9 351.803C1389.13 363.47 1402.26 350.782 1392.53 346.4C1386.75 343.796 1363.24 345.76 1343.21 348.292C1323.78 350.75 1289.69 347.984 1258.28 344.947C1226.85 341.913 1197.95 336.248 1173.41 319.992C1148.88 303.737 1128.72 276.896 1117.56 252.764C1090.8 194.918 1114.01 114.71 1097.86 64.7166C1096.14 59.3953 1095.34 58.1601 1094.8 58.0913C1094.25 58.0224 1093.96 59.1159 1091.96 65.5872C1089.97 72.0586 1086.26 83.908 1085.99 90.8208C1085.71 97.7336 1088.85 99.7058 1094.94 100.621C1101.02 101.536 1110.04 101.395 1114.86 101.16C1119.68 100.929 1120.29 100.605 1120.75 99.9002C1121.21 99.1915 1121.5 98.0981 1116.82 97.3165C1112.14 96.5349 1102.49 96.0652 1095.02 96.1057C1087.55 96.1462 1082.27 96.6969 1078.85 96.9075C1075.44 97.1181 1073.88 96.9885 1073.23 100.034C1072.57 103.079 1072.83 109.304 1073.44 113.653C1074.06 118.002 1075.03 120.477 1075.5 120.626C1075.97 120.776 1075.93 118.598 1076.43 115.864C1076.93 113.131 1077.97 109.846 1079.34 107.878C1080.7 105.91 1082.41 105.262 1084.07 107.182C1085.73 109.101 1087.36 113.592 1087.8 116.929C1088.24 120.27 1087.5 122.461 1086.42 123.101C1085.34 123.741 1083.93 122.83 1083.56 119.408C1083.2 115.99 1083.88 110.061 1086.33 107.299C1088.77 104.537 1092.98 104.934 1095.36 107.777C1097.74 110.62 1098.29 115.905 1098.03 119.177C1097.77 122.449 1096.7 123.712 1095.76 122.793C1092.91 120.035 1094.73 105.533 1102.46 105.278C1109.57 105.039 1113 119.003 1111.19 123.036C1110.58 124.368 1109.48 123.607 1109.06 121.59C1108.64 119.574 1108.9 116.301 1109.56 113.641C1110.22 110.984 1111.28 108.943 1112.76 109.231C1114.24 109.518 1116.15 112.134 1117.05 115.467C1117.96 118.8 1117.87 122.85 1117.21 125.041C1116.54 127.232 1115.3 127.564 1109.86 127.649C1104.42 127.734 1091.79 127.685 1085.95 127.466C1080.11 127.248 1078.09 126.968 1076.94 127.92C1075.78 128.872 1075.51 131.058 1076.18 134.161C1076.85 137.263 1078.47 141.284 1083.95 143.455C1089.43 145.625 1098.77 145.945 1103.81 144.929C1108.85 143.916 1109.59 141.567 1104.68 140.713C1099.76 139.858 1089.19 140.49 1083.84 141.357C1078.49 142.219 1078.35 143.313 1077.95 157.641C1077.56 171.972 1076.9 199.539 1076.62 216.203C1076.35 232.867 1076.43 238.626 1077.03 241.886C1077.63 245.146 1078.73 245.907 1085.2 246.584C1091.67 247.26 1103.5 247.851 1110.41 247.272C1117.33 246.697 1119.32 244.952 1119.53 243.47C1119.74 241.987 1118.17 240.768 1115.43 239.877C1112.69 238.987 1108.79 238.428 1101.56 238.229C1094.32 238.035 1083.74 238.201 1076.67 238.857C1069.6 239.513 1066.04 240.659 1063.89 242.097C1061.73 243.53 1060.98 245.255 1063.02 246.236C1065.06 247.216 1069.89 247.45 1072.46 247.641C1075.03 247.835 1075.34 247.985 1075.69 250.471C1076.04 252.958 1076.43 257.777 1076.33 261.361C1076.23 264.945 1075.65 267.29 1075.05 268.699C1074.45 270.108 1073.83 270.586 1073.39 267.245C1072.95 263.904 1072.68 256.748 1074.65 253.059C1076.61 249.37 1080.81 249.147 1083.96 251.743C1087.11 254.339 1089.22 259.753 1089.59 263.175C1089.95 266.593 1088.57 268.019 1087.94 266.861C1087.3 265.702 1087.39 261.964 1088.35 258.526C1089.3 255.084 1091.12 251.942 1093.21 251.209C1095.3 250.476 1097.66 252.152 1099.09 254.153C1100.52 256.153 1101.03 258.482 1100.99 260.737C1100.94 262.997 1100.35 265.184 1100.04 265.188C1099.73 265.192 1099.7 263.013 1100.05 260.438C1100.39 257.862 1101.13 254.894 1102.26 252.853C1103.39 250.812 1104.93 249.698 1106.44 251.775C1107.95 253.853 1109.44 259.122 1108.81 263.337C1108.18 267.549 1105.42 270.708 1104.02 275.324C1102.62 279.941 1102.56 286.011 1102.59 298.08C1102.63 310.144 1102.76 328.205 1105.42 339.139C1108.08 350.073 1113.28 353.884 1113.58 343.679C1113.89 333.478 1109.3 309.261 1107.63 296.597C1105.95 283.934 1107.17 282.824 1108.78 281.164C1110.39 279.504 1112.37 277.293 1113.52 275.952C1114.66 274.612 1114.97 274.138 1114.8 273.83C1114.64 273.522 1114.02 273.376 1110.6 273.352C1107.17 273.328 1100.95 273.429 1093.64 273.542C1086.33 273.66 1077.93 273.794 1073.11 273.871C1068.28 273.947 1067.04 273.968 1066.5 274.288C1065.97 274.608 1066.13 275.227 1067.64 277.228C1069.15 279.228 1072 282.61 1073.43 284.298C1074.86 285.987 1074.86 285.987 1074.75 297.213C1074.68 304.259 1068.71 345.939 1073.45 355.306C1074.86 358.092 1077.32 357.824 1079.4 355.848C1081.02 354.301 1082.63 351.608 1082.29 349.762C1081.95 347.915 1079.66 346.907 1069.73 350.163C1059.8 353.418 1042.23 360.931 1021.77 363.364C1001.3 365.794 969.447 362.085 956.078 362.518C938.77 363.077 928.913 386.597 978.556 378.36C1006.49 373.724 1059.63 362.603 1126.77 357.383C1193.9 352.163 1275.02 352.839 1333.6 356.35C1392.18 359.861 1428.21 366.207 1454.11 371.529C1480.02 376.85 1495.8 381.151 1500.74 391.153C1505.68 401.156 1499.77 416.865 1497.65 426.135C1494.54 439.693 1499.95 443.739 1501.1 438.012C1502.81 429.427 1499.36 419.862 1498.1 415.091C1496.63 409.563 1493.32 408.737 1490.43 411.037C1487.54 413.333 1485.07 418.76 1483.72 423.976C1482.38 429.192 1482.17 434.202 1482.64 436.631C1483.1 439.057 1484.24 438.903 1484.81 436.117C1485.37 433.327 1485.37 427.904 1484.34 422.688C1483.31 417.472 1481.25 412.463 1478.56 410.653C1475.88 408.846 1472.58 410.24 1470.02 414.293C1467.47 418.347 1465.66 425.061 1465.58 429.297C1465.5 433.533 1467.16 435.287 1467.9 433.428C1468.65 431.569 1468.5 426.094 1467.85 420.724C1467.21 415.354 1466.07 410.086 1463.72 407.684C1461.38 405.283 1457.82 405.748 1455.18 409.284C1452.55 412.823 1450.85 419.432 1450.41 424.029C1449.97 428.625 1450.8 431.209 1451.54 431.569C1452.29 431.93 1452.96 430.071 1453.27 425.345C1453.58 420.619 1453.53 413.026 1452.09 408.664C1450.64 404.299 1447.8 403.165 1445.19 403.809C1442.59 404.453 1440.21 406.882 1438.36 411.608C1436.5 416.334 1435.16 423.356 1435.49 426.588C1435.83 429.82 1437.84 429.249 1438.62 424.677C1439.39 420.105 1438.93 411.531 1436.63 406.757C1434.33 401.978 1430.2 400.998 1427.24 402.598C1424.27 404.197 1422.46 408.381 1421.66 413.184C1420.86 417.987 1421.07 423.409 1421.85 425.345C1422.62 427.281 1423.96 425.734 1424.48 421.162C1424.99 416.589 1424.68 409 1422.47 404.376C1420.25 399.755 1416.12 398.099 1413.36 400.399C1410.6 402.699 1409.2 408.948 1409.15 413.852C1409.1 418.76 1410.39 422.324 1411.37 422.579C1412.35 422.838 1413.02 419.789 1412.94 414.909C1412.87 410.029 1412.04 403.315 1409.56 400.678C1407.09 398.046 1402.96 399.492 1400.35 403.003C1397.74 406.514 1396.66 412.094 1396.87 415.476C1397.07 418.857 1398.57 420.048 1399.19 417.646C1399.81 415.245 1399.55 409.255 1398.91 404.89C1398.26 400.524 1397.23 397.787 1395.6 396.859C1393.98 395.928 1391.76 396.807 1390.19 398.9C1388.61 400.99 1387.68 404.299 1387.11 407.757C1386.55 411.215 1386.34 414.832 1386.93 416.407C1387.53 417.982 1388.92 417.517 1389.28 414.135C1389.64 410.754 1388.97 404.453 1387.45 400.217C1385.92 395.981 1383.55 393.814 1381.17 393.555C1378.8 393.296 1376.43 394.948 1374.88 397.762C1373.33 400.577 1372.61 404.554 1372.45 407.757C1372.3 410.96 1372.71 413.386 1373.49 413.722C1374.26 414.058 1375.4 412.301 1375.65 409.385C1375.91 406.465 1375.29 402.387 1374 399.16C1372.71 395.932 1370.75 393.555 1368.02 392.47C1365.28 391.384 1361.77 391.591 1359.55 394.405C1357.34 397.22 1356.41 402.642 1356.53 406.619C1356.66 410.596 1357.85 413.127 1358.83 413.05C1359.81 412.973 1360.59 410.288 1360.54 406.49C1360.48 402.695 1359.61 397.787 1357.23 394.583C1354.86 391.38 1350.99 389.882 1348.41 391.615C1345.83 393.344 1344.54 398.305 1343.82 402.229C1343.09 406.153 1342.94 409.045 1343.53 410.725C1344.13 412.402 1345.47 412.868 1345.99 411.552C1346.5 410.235 1346.19 407.137 1345.29 403.598C1344.39 400.059 1342.89 396.082 1340.1 393.964C1337.31 391.846 1333.24 391.587 1330.56 393.421C1327.87 395.256 1326.58 399.18 1326.02 403.055C1325.45 406.931 1325.6 410.75 1326.22 412.43C1326.84 414.107 1327.93 413.645 1328.21 410.701C1328.49 407.757 1327.98 402.335 1326.76 398.204C1325.55 394.073 1323.64 391.23 1320.96 390.534C1318.27 389.837 1314.81 391.283 1312.96 394.976C1311.1 398.67 1310.84 404.606 1310.97 408.405C1311.1 412.2 1311.61 413.856 1312.31 413.544C1313.01 413.232 1313.89 410.96 1313.66 407.089C1313.43 403.213 1312.08 397.742 1310.41 394.434C1308.73 391.129 1306.72 389.991 1304.58 390.611C1302.44 391.23 1299.58 395.32 1298.87 397.402C1296.43 404.582 1294.38 428.949 1294.82 437.385C1295.42 448.469 1298.74 456.758 1307.2 461.715C1315.66 466.672 1329.24 468.296 1336.5 471.779C1343.75 475.261 1344.66 480.607 1329.4 486.301C1314.14 491.995 1282.7 498.037 1245.95 499.409C1209.19 500.782 1167.11 497.486 1140.27 491.359C1113.42 485.232 1101.82 476.27 1101.2 470.122C1100.58 463.975 1110.94 460.638 1120 458.69C1129.06 456.742 1136.81 456.183 1140.1 454.332C1143.4 452.486 1142.22 449.347 1135.94 448.019C1129.65 446.691 1118.24 447.173 1103.61 452.182C1088.98 457.192 1071.12 466.724 1079.01 478.639C1086.9 490.553 1120.54 504.848 1174.58 510.789C1228.63 516.73 1303.07 514.32 1342.72 505.966C1382.36 497.611 1387.21 483.32 1372.65 473.022C1358.08 462.723 1324.11 456.418 1315.17 451.506C1306.23 446.594 1322.32 443.07 1344.26 444.925C1366.2 446.78 1393.98 454.008 1409.46 467.263C1424.93 480.518 1428.09 499.798 1392.74 512.36C1357.39 524.918 1283.53 530.758 1218.19 528.672C1152.85 526.587 1096.04 516.576 1066.95 505.314C1037.86 494.052 1036.49 481.538 1041.53 472.382C1046.57 463.226 1058.03 457.426 1068.02 453.377C1078.01 449.327 1086.53 447.023 1095.8 444.775C1105.08 442.524 1115.11 440.325 1113.78 438.142C1112.46 435.959 1099.77 433.788 1080.57 436.433C1061.37 439.081 1035.65 446.545 1020.52 460.52C1005.4 474.496 1000.86 494.979 1035.18 513.425C1069.49 531.872 1142.67 548.277 1221.76 551.015C1300.85 553.748 1385.86 542.81 1424.38 527.749C1462.89 512.688 1454.91 493.497 1442.4 478.946C1429.88 464.392 1412.83 454.474 1416.11 450.696C1419.4 446.918 1443.03 449.274 1466.59 459.796C1490.15 470.317 1513.64 489.002 1503.9 510.502C1494.17 532.001 1451.2 556.312 1381.53 569.271C1311.87 582.23 1215.5 583.837 1133.5 575.155C1051.5 566.472 983.886 547.503 952.205 528.146C920.528 508.789 924.789 489.046 942.602 474.723C969.949 452.737 1002.1 453.624 1028.6 440.641C1030.34 439.786 1031.96 438.636 1031.69 437.587C1031.42 436.538 1029.26 435.591 1024.82 435.558C1020.39 435.526 1013.68 436.405 1006.35 438.089C999.02 439.774 991.068 442.264 982.57 444.544C974.073 446.824 965.033 448.89 960.42 448.408C955.806 447.922 955.628 444.889 955.446 441.851C955.086 431.626 956.964 420.611 958.433 415.087C959.902 409.559 963.208 408.733 966.097 411.033C968.986 413.329 971.463 418.756 972.806 423.972C974.15 429.188 974.356 434.197 973.891 436.627C973.425 439.053 972.292 438.899 971.722 436.113C971.155 433.323 971.155 427.9 972.187 422.684C973.219 417.468 975.283 412.459 977.965 410.649C980.648 408.842 983.95 410.235 986.508 414.289C989.061 418.343 990.87 425.057 990.947 429.293C991.024 433.529 989.373 435.283 988.624 433.424C987.876 431.565 988.029 426.09 988.677 420.72C989.324 415.35 990.457 410.082 992.804 407.68C995.151 405.279 998.712 405.744 1001.35 409.28C1003.98 412.819 1005.68 419.428 1006.12 424.025C1006.56 428.621 1005.73 431.205 1004.98 431.565C1004.24 431.926 1003.56 430.067 1003.26 425.341C1002.94 420.615 1003 413.022 1004.44 408.66C1005.89 404.295 1008.73 403.161 1011.33 403.805C1013.94 404.448 1016.31 406.878 1018.17 411.604C1020.03 416.33 1021.37 423.352 1021.04 426.584C1020.7 429.816 1018.69 429.245 1017.91 424.673C1017.14 420.1 1017.6 411.527 1019.9 406.753C1022.2 401.974 1026.33 400.994 1029.29 402.594C1032.26 404.193 1034.07 408.377 1034.86 413.18C1035.67 417.983 1035.46 423.405 1034.68 425.341C1033.91 427.277 1032.57 425.73 1032.05 421.157C1031.53 416.585 1031.85 408.996 1034.06 404.372C1036.28 399.751 1040.41 398.095 1043.17 400.395C1045.93 402.695 1047.33 408.944 1047.38 413.848C1047.43 418.756 1046.14 422.32 1045.16 422.575C1044.18 422.834 1043.51 419.785 1043.58 414.905C1043.66 410.025 1044.49 403.311 1046.96 400.674C1049.44 398.042 1053.57 399.488 1056.17 402.999C1058.78 406.51 1059.86 412.09 1059.66 415.472C1059.45 418.853 1057.95 420.044 1057.33 417.642C1056.72 415.241 1056.97 409.251 1057.62 404.886C1058.26 400.52 1059.29 397.783 1060.92 396.855C1062.55 395.924 1064.76 396.803 1066.34 398.896C1067.91 400.986 1068.84 404.295 1069.41 407.753C1069.98 411.211 1070.18 414.828 1069.59 416.403C1069 417.978 1067.61 417.513 1067.24 414.131C1066.88 410.75 1067.56 404.448 1069.08 400.212C1070.6 395.977 1072.97 393.81 1075.35 393.551C1077.73 393.292 1080.1 394.944 1081.65 397.758C1083.2 400.573 1083.92 404.55 1084.07 407.753C1084.22 410.956 1083.81 413.382 1083.04 413.718C1082.27 414.054 1081.13 412.297 1080.87 409.381C1080.61 406.461 1081.23 402.383 1082.52 399.156C1083.81 395.928 1085.77 393.551 1088.51 392.465C1091.24 391.38 1094.75 391.587 1096.97 394.401C1099.19 397.216 1100.12 402.638 1099.99 406.615C1099.86 410.592 1098.67 413.123 1097.69 413.046C1096.71 412.969 1095.94 410.284 1095.99 406.485C1096.04 402.691 1096.92 397.783 1099.29 394.579C1101.67 391.376 1105.53 389.878 1108.12 391.611C1110.7 393.34 1111.99 398.301 1112.71 402.225C1113.43 406.149 1113.59 409.041 1112.99 410.721C1112.4 412.398 1111.06 412.864 1110.54 411.548C1110.02 410.231 1110.33 407.133 1111.24 403.594C1112.14 400.055 1113.63 396.078 1116.42 393.96C1119.21 391.842 1123.29 391.583 1125.97 393.417C1128.65 395.252 1129.94 399.176 1130.51 403.051C1131.08 406.927 1130.92 410.746 1130.3 412.426C1129.68 414.103 1128.6 413.641 1128.32 410.697C1128.03 407.753 1128.55 402.331 1129.76 398.2C1130.97 394.069 1132.88 391.226 1135.57 390.53C1138.25 389.833 1141.71 391.279 1143.57 394.972C1145.42 398.666 1145.68 404.602 1145.55 408.401C1145.42 412.196 1144.91 413.852 1144.21 413.54C1143.51 413.228 1142.64 410.956 1142.87 407.085C1143.1 403.209 1144.44 397.738 1146.12 394.43C1147.79 391.125 1149.81 389.987 1151.95 390.607C1157.96 392.348 1159.41 404.343 1158.93 409.405C1158.69 411.997 1157.6 413.046 1156.83 411.56C1156.05 410.069 1155.58 406.044 1155.53 400.937C1155.47 395.831 1155.84 389.639 1158.23 384.581C1165.9 368.289 1190.98 366.155 1206.87 363.364C1206.94 363.352 1207.01 363.356 1207.07 363.352C1207.27 363.344 1207.51 363.36 1215.81 364.02C1224.11 364.685 1240.49 365.989 1252.27 367.131C1264.04 368.273 1271.22 369.245 1274.88 369.678C1280.5 370.346 1278.52 375.7 1277.21 381.09C1274.84 390.866 1283.34 393.693 1282.12 384.338C1280.14 369.204 1267.13 372.128 1257.75 376.854C1248.01 381.762 1244.61 384.933 1245.16 394.596C1246.41 416.678 1266.32 383.686 1233.07 378.482C1218.96 376.275 1193.17 372.411 1179.36 371.504C1165.55 370.597 1163.7 370.621 1163.53 370.65C1163.35 370.678 1163.32 370.702 1163.39 374.639C1163.45 378.575 1163.63 388.444 1163.74 392.846C1163.85 397.248 1163.92 398.208 1163.98 398.682C1164.04 399.151 1164.09 399.131 1164.44 399.164C1164.79 399.192 1165.45 399.273 1169.71 399.953C1173.97 400.638 1181.82 401.921 1195.25 403.246C1208.68 404.57 1227.68 405.927 1237.48 406.607C1247.29 407.287 1247.91 407.287 1248.22 407.287C1248.53 407.287 1248.52 407.287 1254.06 405.105C1259.59 402.922 1270.65 398.552 1276.24 396.345C1281.83 394.138 1281.95 394.089 1282 394.057C1282.06 394.025 1282.05 394.008 1281.98 395.053C1281.92 396.094 1281.8 398.196 1281.74 399.273C1281.68 400.35 1281.67 400.403 1281.67 400.451C1281.67 400.5 1281.67 400.541 1276.15 402.764C1270.63 404.987 1259.59 409.389 1254.01 411.616C1248.43 413.844 1248.3 413.892 1248.24 413.917C1248.18 413.941 1248.2 413.937 1234.23 412.58C1220.27 411.224 1192.33 408.51 1178.36 406.939C1164.4 405.368 1164.4 404.938 1164.25 404.866C1164.11 404.793 1163.82 405.08 1163.74 412.997C1163.66 420.914 1163.78 436.457 1163.87 444.305C1163.95 452.154 1164 452.308 1164.01 452.433C1164.02 452.559 1163.99 452.66 1164.02 452.729C1164.05 452.798 1164.14 452.834 1165.42 453.405C1166.71 453.976 1169.19 455.082 1170.44 455.637C1171.68 456.191 1171.68 456.191 1171.68 456.106C1171.68 456.021 1171.69 455.855 1171.79 447.995C1171.9 440.13 1172.11 424.571 1172.14 416.796C1172.18 409.021 1170.54 411.005 1175.92 411.572C1179.68 411.965 1187.1 412.609 1190.82 412.928C1194.53 413.248 1194.39 411.373 1194.01 419.866C1193.62 428.354 1192.86 445.334 1192.48 453.822C1192.09 462.31 1192.09 462.31 1192.37 462.651C1192.65 462.991 1193.2 463.667 1202.63 466.283C1212.06 468.899 1230.36 473.451 1239.58 475.727C1248.81 478.003 1248.95 478.003 1249.09 477.898C1253.84 474.338 1282.24 451.457 1282.3 449.574C1282.3 449.445 1282.31 449.262 1282.73 441.928C1283.15 434.594 1282.6 424.539 1282.88 416.626C1282.9 416.035 1283.7 402.011 1279.27 407.376C1278.56 408.235 1277.82 409.689 1277.47 411.446C1277.12 413.204 1276.32 415.662 1276.86 416.525C1278.67 419.424 1281.27 411.207 1276.08 410.11C1273.87 409.64 1270.44 411.572 1268.66 413.795C1266.89 416.022 1266.77 418.541 1267.85 419.683C1268.93 420.825 1271.22 420.582 1272.44 418.833C1273.67 417.083 1273.83 413.832 1270.89 413.228C1267.95 412.625 1261.91 414.67 1258.39 416.338C1254.87 418.007 1253.87 419.291 1253.54 421.121C1253.21 422.951 1253.54 425.325 1254.97 426.155C1256.4 426.989 1259.28 427.034 1260.64 425.175C1262.01 423.316 1262.42 418.971 1260.89 418.076C1252.97 413.414 1228.42 433.967 1204.7 423.425C1199.31 421.028 1198.15 417.27 1204.61 416.33C1215.04 414.808 1249.18 415.747 1248.37 425.908C1247.63 435.036 1246.95 453.316 1247.35 462.93C1247.76 472.71 1247.55 474.31 1254.92 467.547C1260.1 462.796 1269.6 452.312 1279.2 445.682C1288.79 439.053 1298.49 436.275 1310.78 432.906C1323.06 429.54 1338.32 427.69 1361.49 428.856C1384.66 430.022 1415.74 434.202 1442 438.863" stroke="#FF9365" stroke-opacity="0.21" stroke-width="1.50584" stroke-miterlimit="2.6131" stroke-linecap="round"/>
<defs>
<linearGradient id="paint0_linear_175_13" x1="756" y1="27.087" x2="757.413" y2="603.997" gradientUnits="userSpaceOnUse">
<stop stop-color="white" stop-opacity="0.26"/>
<stop offset="0.665795" stop-color="#C3DBFF" stop-opacity="0.135958"/>
<stop offset="1" stop-color="#C3DBFF" stop-opacity="0"/>
</linearGradient>
</defs>
</svg>
