<svg width="65" height="64" viewBox="0 0 65 64" fill="none" xmlns="http://www.w3.org/2000/svg">
<path d="M50.0703 31.9055C50.0703 38.3507 47.51 44.5318 42.9526 49.0892C38.3952 53.6466 32.2141 56.2069 25.7689 56.2069C19.3238 56.2069 13.1426 53.6466 8.58525 49.0892C4.02785 44.5318 1.46753 38.3507 1.46753 31.9055C1.46753 25.4604 4.02785 19.2792 8.58525 14.7218C13.1426 10.1644 19.3238 7.60413 25.7689 7.60413C32.2128 7.60413 38.3928 10.1634 42.95 14.7192C47.5071 19.2749 50.0683 25.4541 50.0703 31.898V31.9055Z" fill="#C3DBFF"/>
<path fill-rule="evenodd" clip-rule="evenodd" d="M15.1791 16.8107C14.3838 16.8146 13.622 17.1318 13.0589 17.6935C12.4958 18.2552 12.1767 19.0162 12.1707 19.8115V28.8291H14.1738V19.8039C14.1738 19.237 14.6122 18.8062 15.1791 18.8062C15.746 18.8062 16.1769 19.237 16.1769 19.8039H18.1799C18.174 19.0099 17.8559 18.2501 17.2944 17.6886C16.733 17.1271 15.9731 16.8166 15.1791 16.8107Z" fill="#1A1A1A"/>
<path fill-rule="evenodd" clip-rule="evenodd" d="M19.1852 12.8046C18.3899 12.8085 17.6281 13.1257 17.065 13.6874C16.5019 14.2491 16.1828 15.01 16.1768 15.8054V34.8383H18.1799V15.7978C18.1799 15.2309 18.6183 14.8001 19.1852 14.8001C19.7521 14.8001 20.183 15.2309 20.183 15.7978V34.8308H22.186V15.7978C22.1801 15.0038 21.862 14.244 21.3006 13.6825C20.7391 13.121 19.9792 12.8029 19.1852 12.797V12.8046Z" fill="#1A1A1A"/>
<path fill-rule="evenodd" clip-rule="evenodd" d="M23.1914 14.8076C22.396 14.8116 21.6343 15.1288 21.0712 15.6905C20.508 16.2522 20.1889 17.0131 20.183 17.8084H22.1861C22.1861 17.2415 22.6245 16.8107 23.1914 16.8107C23.7583 16.8107 24.1891 17.2415 24.1891 17.8084V34.8383H26.1998V17.8084C26.1938 17.0144 25.8758 16.2546 25.3143 15.6931C24.7528 15.1316 23.9854 14.8136 23.1914 14.8076ZM10.1752 28.8291C9.37985 28.8331 8.61809 29.1503 8.05498 29.712C7.49187 30.2736 7.17276 31.0346 7.16681 31.8299V40.0992C7.16681 42.0872 7.75639 44.0298 8.85997 45.6927L12.9644 51.8455C13.1004 52.0572 13.176 52.2991 13.176 52.5485V59.8729H15.1791V52.5485C15.1782 51.9026 14.9862 51.2714 14.6273 50.7344L10.5305 44.5816C9.64388 43.2548 9.17042 41.695 9.16988 40.0992V31.8299C9.16784 31.6983 9.19225 31.5677 9.24167 31.4457C9.29109 31.3237 9.36451 31.2129 9.45757 31.1199C9.55063 31.0268 9.66143 30.9534 9.78341 30.904C9.90539 30.8546 10.036 30.8301 10.1676 30.8322H10.5682C10.9764 30.8322 11.309 31.127 11.3544 31.5351L11.9364 36.7885C12.1254 38.4741 13.1609 39.9556 14.6802 40.719L16.5246 41.6336C17.1092 41.9262 17.6304 42.3311 18.0584 42.8253C18.4864 43.3194 18.8128 43.8931 19.0189 44.5135L19.2381 45.1636L21.1354 44.5362L20.9162 43.8786C20.3324 42.1239 19.0766 40.6723 17.424 39.8422L15.5721 38.9201C15.1243 38.6962 14.7397 38.3638 14.4532 37.9532C14.1667 37.5426 13.9875 37.0668 13.9319 36.5693L13.3499 31.3084C13.2721 30.6241 12.946 29.9922 12.4332 29.5324C11.9205 29.0726 11.2569 28.817 10.5682 28.814L10.1752 28.8291Z" fill="#1A1A1A"/>
<path fill-rule="evenodd" clip-rule="evenodd" d="M27.1975 20.8168C26.4022 20.8208 25.6404 21.1379 25.0773 21.6996C24.5142 22.2613 24.1951 23.0223 24.1891 23.8176H26.1998C26.1977 23.6854 26.2224 23.5541 26.2722 23.4316C26.3221 23.3091 26.3962 23.198 26.4901 23.1048C26.584 23.0116 26.6957 22.9384 26.8185 22.8894C26.9414 22.8405 27.0729 22.8168 27.2051 22.8199H27.4016C27.9307 22.8199 28.3465 23.1978 28.3994 23.7194L29.8431 37.431C30.0774 39.6381 29.9187 41.8755 29.382 44.0373L27.4167 51.8984C27.2765 52.457 27.2054 53.0307 27.2051 53.6067V59.8729H29.2082V53.5991C29.2082 53.1985 29.2535 52.7828 29.3593 52.3897L31.3246 44.5211C31.9218 42.136 32.0958 39.6645 31.8386 37.2193L30.3873 23.5077C30.3057 22.77 29.9555 22.088 29.4035 21.5918C28.8515 21.0956 28.1363 20.8197 27.3941 20.8168H27.1975ZM51.2344 16.8107C50.439 16.8146 49.6773 17.1318 49.1142 17.6935C48.5511 18.2552 48.232 19.0162 48.226 19.8115H50.2291C50.2291 19.2446 50.6675 18.8137 51.2344 18.8137C51.8013 18.8137 52.2321 19.2446 52.2321 19.8115V28.8291H54.2352V19.8039C54.2293 19.0099 53.9112 18.2501 53.3497 17.6886C52.7882 17.1271 52.0284 16.8166 51.2344 16.8107Z" fill="#1A1A1A"/>
<path fill-rule="evenodd" clip-rule="evenodd" d="M47.2282 12.8046C46.4329 12.8085 45.6711 13.1257 45.108 13.6874C44.5449 14.2491 44.2258 15.01 44.2198 15.8054V34.8383H46.2229V15.7978C46.2229 15.2309 46.6613 14.8001 47.2282 14.8001C47.7951 14.8001 48.226 15.2309 48.226 15.7978V34.8308H50.2291V15.7978C50.2231 15.0038 49.9051 14.244 49.3436 13.6825C48.7821 13.121 48.0223 12.8029 47.2282 12.797V12.8046Z" fill="#1A1A1A"/>
<path fill-rule="evenodd" clip-rule="evenodd" d="M43.2221 14.8076C42.4267 14.8116 41.665 15.1288 41.1019 15.6905C40.5387 16.2522 40.2196 17.0131 40.2137 17.8084V34.8383H42.2168V17.8084C42.2147 17.6762 42.2393 17.5449 42.2892 17.4224C42.3391 17.2999 42.4132 17.1888 42.5071 17.0956C42.6009 17.0024 42.7127 16.9292 42.8355 16.8802C42.9584 16.8313 43.0898 16.8076 43.2221 16.8107C43.3537 16.8086 43.4843 16.8331 43.6063 16.8825C43.7283 16.9319 43.8391 17.0053 43.9321 17.0984C44.0252 17.1914 44.0986 17.3022 44.148 17.4242C44.1975 17.5462 44.2219 17.6769 44.2198 17.8084H46.2229C46.217 17.0144 45.8989 16.2546 45.3374 15.6931C44.7759 15.1316 44.0161 14.8136 43.2221 14.8076ZM55.8452 28.8291C55.1577 28.8319 54.495 29.0865 53.9825 29.5447C53.4699 30.0029 53.143 30.633 53.0636 31.3159L52.4815 36.5617C52.4272 37.0606 52.2485 37.5379 51.962 37.9499C51.6754 38.3619 51.2901 38.6955 50.8413 38.9201L48.997 39.8422C47.3416 40.6707 46.0828 42.1225 45.4973 43.8786L45.2705 44.5362L47.1753 45.1636L47.4021 44.5135C47.8208 43.2638 48.7177 42.2309 49.8964 41.6412L51.7332 40.7115C53.2525 39.9556 54.2881 38.4741 54.4771 36.7809L55.0591 31.5351C55.0797 31.3414 55.1715 31.1622 55.3168 31.0323C55.462 30.9024 55.6503 30.8311 55.8452 30.8322H56.2382C56.3705 30.8291 56.5019 30.8528 56.6248 30.9017C56.7477 30.9507 56.8594 31.0239 56.9532 31.1171C57.0471 31.2103 57.1212 31.3214 57.1711 31.4439C57.221 31.5664 57.2456 31.6977 57.2436 31.8299V40.0992C57.2436 41.6941 56.7674 43.2512 55.883 44.5816L51.7786 50.7344C51.4223 51.2722 51.233 51.9034 51.2343 52.5485V59.8729H53.2374V52.5485C53.2374 52.2991 53.313 52.0572 53.4491 51.8455L57.5535 45.6927C58.657 44.0298 59.2466 42.0872 59.2466 40.0992V31.8299C59.2407 31.0346 58.9216 30.2736 58.3585 29.712C57.7954 29.1503 57.0336 28.8331 56.2382 28.8291H55.8452Z" fill="#1A1A1A"/>
<path fill-rule="evenodd" clip-rule="evenodd" d="M39.0194 20.8169C38.2772 20.8198 37.5619 21.0957 37.0099 21.5919C36.4579 22.0881 36.1078 22.7701 36.0261 23.5078L34.59 37.2194C34.3303 39.6642 34.5018 42.1356 35.0964 44.5212L37.0012 52.1555C37.1403 52.7092 37.2113 53.2778 37.2129 53.8487V59.873H39.2159V53.8487C39.2159 53.1155 39.1252 52.3823 38.9438 51.6642L37.039 44.0298C36.5013 41.874 36.3453 39.6407 36.5779 37.431L38.0141 23.7195C38.0352 23.4689 38.1508 23.2357 38.3375 23.0672C38.5242 22.8988 38.768 22.8077 39.0194 22.8124H39.2159C39.3482 22.8103 39.4795 22.835 39.602 22.8849C39.7244 22.9348 39.8356 23.0089 39.9288 23.1027C40.0219 23.1966 40.0952 23.3083 40.1441 23.4312C40.1931 23.554 40.2168 23.6855 40.2137 23.8177H42.2168C42.2108 23.0237 41.8928 22.2639 41.3313 21.7024C40.7698 21.1409 40.01 20.8228 39.2159 20.8169H39.0194Z" fill="#1A1A1A"/>
</svg>
