<svg width="65" height="64" viewBox="0 0 65 64" fill="none" xmlns="http://www.w3.org/2000/svg">
<path d="M58.7478 30.1821C58.7478 33.3741 58.1189 36.5348 56.8972 39.4836C55.6755 42.4325 53.8848 45.1118 51.6274 47.3685C49.37 49.6252 46.6901 51.4151 43.7409 52.6359C40.7916 53.8567 37.6307 54.4845 34.4388 54.4835C27.9937 54.4835 21.8125 51.9232 17.2551 47.3658C12.6977 42.8084 10.1374 36.6273 10.1374 30.1821C10.1374 23.737 12.6977 17.5559 17.2551 12.9985C21.8125 8.44106 27.9937 5.88074 34.4388 5.88074C37.6307 5.87975 40.7916 6.50759 43.7409 7.7284C46.6901 8.94922 49.37 10.7391 51.6274 12.9958C53.8848 15.2525 55.6755 17.9318 56.8972 20.8806C58.1189 23.8295 58.7478 26.9902 58.7478 30.1821Z" fill="#C3DBFF"/>
<path d="M34.4313 22.8955C34.2739 22.9055 34.1211 22.9521 33.9853 23.0315C33.9853 23.0315 32.1712 24.1049 30.3344 25.6922C28.4976 27.2795 26.4794 29.3582 26.4794 31.8979C26.4794 32.4497 26.5399 32.994 26.6457 33.5155C26.6914 33.741 26.8141 33.9439 26.9932 34.0899C27.1722 34.2359 27.3966 34.3161 27.6284 34.3167H41.3626C41.5944 34.3161 41.8188 34.2359 41.9978 34.0899C42.1769 33.9439 42.2996 33.741 42.3453 33.5155C42.4511 32.994 42.504 32.4573 42.504 31.8979C42.504 29.3582 40.4934 27.2795 38.6566 25.6922C36.8198 24.1049 35.0057 23.0315 35.0057 23.0315C34.8323 22.9301 34.6322 22.8827 34.4313 22.8955ZM34.4917 25.1253C34.8923 25.3747 35.9279 25.9719 37.3414 27.204C39.0194 28.6552 40.5009 30.5676 40.5009 31.8979C40.5009 32.0491 40.4707 32.1776 40.4632 32.3137H28.5279C28.5203 32.1776 28.4825 32.0416 28.4825 31.8979C28.4825 30.5676 29.9716 28.6477 31.6496 27.204C33.0631 25.9719 34.0987 25.3747 34.4917 25.1253ZM19.4952 29.3809C19.3095 29.3769 19.1264 29.424 18.966 29.5169C18.966 29.5169 18.1119 30.0158 17.1066 30.7793C15.9379 31.6074 14.9331 32.6454 14.1436 33.8406C14.0626 33.9524 14.0058 34.0797 13.9769 34.2144C13.9479 34.3491 13.9474 34.4883 13.9753 34.6232C14.0032 34.7581 14.0589 34.8858 14.139 34.9983C14.219 35.1108 14.3217 35.2057 14.4405 35.2768C14.5593 35.348 14.6917 35.394 14.8293 35.4119C14.9669 35.4298 15.1067 35.4193 15.24 35.3809C15.3733 35.3426 15.4971 35.2773 15.6037 35.1891C15.7103 35.1009 15.7974 34.9917 15.8594 34.8685C16.3658 34.022 17.4089 33.062 18.316 32.3741C18.9434 31.8979 19.1852 31.7695 19.4649 31.6032C19.8126 31.8072 20.4098 32.1323 21.3319 32.9108C22.496 33.8859 23.4484 35.1633 23.4559 35.8814H15.9955C15.7278 35.8814 15.4711 35.9869 15.2819 36.1748C15.0926 36.3626 14.9863 36.6173 14.9863 36.8829C14.9863 37.1486 15.0926 37.4033 15.2819 37.5911C15.4711 37.779 15.7278 37.8845 15.9955 37.8845H24.3857C24.6163 37.8842 24.8399 37.8051 25.0188 37.6606C25.1977 37.5161 25.3211 37.3149 25.3683 37.0908C25.4497 36.7005 25.4902 36.3028 25.4893 35.9041C25.4893 33.9388 23.9548 32.4875 22.6245 31.3764C21.2941 30.2653 19.9789 29.5169 19.9789 29.5169C19.8341 29.4329 19.6628 29.3861 19.4952 29.3809Z" fill="#1A1A1A"/>
<path fill-rule="evenodd" clip-rule="evenodd" d="M33.494 20.8849V23.8933H35.497V20.8849H33.494Z" fill="#1A1A1A"/>
<path d="M32.8288 14.8832C32.5687 14.8918 32.3222 15.0002 32.1409 15.1856C31.7564 15.5458 31.4482 15.9797 31.2347 16.4615C31.0212 16.9433 30.9067 17.463 30.8981 17.9899C30.8895 18.5168 30.987 19.0401 31.1847 19.5285C31.3823 20.017 31.6762 20.4607 32.0488 20.8333C32.4215 21.206 32.8652 21.4998 33.3537 21.6975C33.8421 21.8952 34.3654 21.9926 34.8923 21.9841C35.4191 21.9755 35.9389 21.861 36.4207 21.6475C36.9025 21.434 37.3364 21.1258 37.6966 20.7412C37.8865 20.5552 37.9941 20.3019 37.9959 20.0371C37.9976 19.7724 37.8932 19.5177 37.7058 19.3293C37.5184 19.1408 37.2632 19.034 36.9964 19.0323C36.7296 19.0306 36.473 19.1342 36.2831 19.3202C36.1054 19.5003 35.8935 19.6432 35.6599 19.7406C35.4263 19.8379 35.1756 19.8877 34.9226 19.8871C34.6689 19.8891 34.4173 19.8406 34.1826 19.7445C33.9478 19.6483 33.7345 19.5064 33.5551 19.327C33.3758 19.1477 33.2339 18.9344 33.1377 18.6996C33.0416 18.4648 32.9931 18.2133 32.9951 17.9596C32.9951 17.4229 33.2067 16.9467 33.5544 16.599C33.7005 16.4594 33.8005 16.2791 33.8415 16.082C33.8824 15.8848 33.8623 15.68 33.7838 15.4944C33.7053 15.3088 33.5721 15.1511 33.4017 15.042C33.2312 14.9329 33.0315 14.8776 32.8288 14.8832Z" fill="#1A1A1A"/>
<path fill-rule="evenodd" clip-rule="evenodd" d="M22.4733 36.9094V40.9156C22.4733 41.1802 22.5792 41.434 22.7677 41.6211C22.9563 41.8082 23.212 41.9133 23.4786 41.9133H45.5124C45.7777 41.9113 46.0315 41.8053 46.2184 41.6184C46.4053 41.4315 46.5101 41.1789 46.5101 40.9156V36.9094H44.5071V39.9103H24.4764V36.9094H22.4733Z" fill="#1A1A1A"/>
<path d="M49.5337 29.381C49.3557 29.381 49.1809 29.428 49.0272 29.517C49.0272 29.517 47.7044 30.2654 46.3741 31.3765C45.0362 32.4952 43.5018 33.9465 43.5018 35.9117C43.5018 36.3124 43.5547 36.7054 43.6303 37.0909C43.6775 37.315 43.8009 37.5162 43.9798 37.6607C44.1587 37.8052 44.3822 37.8843 44.6129 37.8846H54.4242C54.6548 37.8843 54.8784 37.8052 55.0573 37.6607C55.2362 37.5162 55.3596 37.315 55.4068 37.0909C55.488 36.7031 55.5285 36.3079 55.5278 35.9117C55.5278 33.9465 54.0009 32.4952 52.663 31.3765C51.3326 30.2654 50.0174 29.517 50.0174 29.517C49.8704 29.4317 49.7039 29.3849 49.5337 29.381ZM49.5185 31.6033C49.8662 31.8149 50.4558 32.1399 51.378 32.9185C52.542 33.886 53.4869 35.171 53.502 35.8815H45.5275C45.5502 35.171 46.495 33.886 47.6591 32.9185C48.5813 32.1399 49.1708 31.8225 49.5185 31.6033Z" fill="#1A1A1A"/>
<path fill-rule="evenodd" clip-rule="evenodd" d="M52.5194 36.9095V39.9179H54.5224V36.9095H52.5194ZM27.4848 33.9011V38.4137H29.4878V33.9011H27.4848ZM39.5032 33.9011V38.4137H41.5063V33.9011H39.5032ZM49.5034 27.8994C49.2381 27.9054 48.9859 28.0152 48.8018 28.2049C48.6177 28.3946 48.5167 28.6489 48.5208 28.9123V29.8874C48.5034 30.0277 48.5161 30.17 48.5583 30.305C48.6005 30.44 48.6711 30.5646 48.7654 30.6705C48.8598 30.7763 48.9757 30.8611 49.1055 30.9192C49.2353 30.9772 49.3761 31.0073 49.5185 31.0073C49.6609 31.0073 49.8017 30.9772 49.9316 30.9192C50.0614 30.8611 50.1773 30.7763 50.2717 30.6705C50.366 30.5646 50.4366 30.44 50.4788 30.305C50.5209 30.17 50.5337 30.0277 50.5163 29.8874V28.9123C50.5183 28.7794 50.4936 28.6474 50.4435 28.5241C50.3934 28.4008 50.319 28.2887 50.2246 28.1943C50.1303 28.1 50.0179 28.0253 49.894 27.9746C49.7702 27.924 49.6374 27.8984 49.5034 27.8994ZM19.4574 27.8994C19.192 27.9054 18.9398 28.0152 18.7557 28.2049C18.5716 28.3946 18.4706 28.6489 18.4747 28.9123V29.8874C18.4573 30.0277 18.4701 30.17 18.5123 30.305C18.5544 30.44 18.625 30.5646 18.7194 30.6705C18.8137 30.7763 18.9296 30.8611 19.0595 30.9192C19.1893 30.9772 19.3301 31.0073 19.4725 31.0073C19.6149 31.0073 19.7557 30.9772 19.8855 30.9192C20.0153 30.8611 20.1313 30.7763 20.2256 30.6705C20.3199 30.5646 20.3905 30.44 20.4327 30.305C20.4749 30.17 20.4877 30.0277 20.4702 29.8874V28.9123C20.4723 28.7794 20.4475 28.6474 20.3974 28.5241C20.3473 28.4008 20.2729 28.2887 20.1786 28.1943C20.0842 28.1 19.9718 28.0253 19.848 27.9746C19.7241 27.924 19.5913 27.8984 19.4574 27.8994ZM22.0047 23.8857V29.4036H24.0077V23.8857H22.0047ZM27.0086 23.8857V25.8964H29.0116V23.8857H27.0086Z" fill="#1A1A1A"/>
<path d="M25.5119 18.2922C25.3436 18.2892 25.1773 18.3282 25.0282 18.4056C25.0282 18.4056 24.0909 18.9196 23.1309 19.6906C22.171 20.4616 20.9993 21.4518 20.9993 23.0013C20.9993 23.3037 21.0371 23.5834 21.0976 23.8706C21.1463 24.0933 21.2704 24.2928 21.4491 24.4358C21.6279 24.5788 21.8506 24.6568 22.0802 24.6567H28.9436C29.1732 24.6568 29.3959 24.5788 29.5747 24.4358C29.7535 24.2928 29.8775 24.0933 29.9262 23.8706C29.988 23.585 30.0184 23.2935 30.0169 23.0013C30.0169 21.4518 28.8453 20.4616 27.8854 19.6906C27.2901 19.2135 26.6582 18.7838 25.9957 18.4056C25.8472 18.3256 25.6809 18.284 25.5119 18.2847V18.2922ZM25.5119 20.4843C25.7992 20.6581 26.0788 20.8017 26.6382 21.2477C27.1123 21.6222 27.4906 22.1041 27.7418 22.6536H23.2821C23.5333 22.1041 23.9115 21.6222 24.3857 21.2477C24.9375 20.8017 25.2171 20.6506 25.5119 20.4843Z" fill="#1A1A1A"/>
<path fill-rule="evenodd" clip-rule="evenodd" d="M25.4968 14.8832C25.2315 14.8891 24.9793 14.9989 24.7952 15.1887C24.6111 15.3784 24.5101 15.6327 24.5142 15.8961V18.8742C24.4967 19.0145 24.5095 19.1569 24.5517 19.2919C24.5939 19.4268 24.6645 19.5514 24.7588 19.6573C24.8531 19.7632 24.9691 19.8479 25.0989 19.906C25.2287 19.9641 25.3695 19.9941 25.5119 19.9941C25.6543 19.9941 25.7951 19.9641 25.9249 19.906C26.0548 19.8479 26.1707 19.7632 26.265 19.6573C26.3594 19.5514 26.43 19.4268 26.4721 19.2919C26.5143 19.1569 26.5271 19.0145 26.5097 18.8742V15.8961C26.5117 15.7632 26.487 15.6312 26.4369 15.5079C26.3868 15.3846 26.3124 15.2724 26.218 15.1781C26.1237 15.0837 26.0113 15.009 25.8874 14.9584C25.7636 14.9078 25.6307 14.8822 25.4968 14.8832ZM47.0393 23.8857V29.4036H45.0362V23.8857H47.0393ZM42.0354 23.8857V25.8963H40.0323V23.8857H42.0354Z" fill="#1A1A1A"/>
<path d="M43.5396 18.2923C43.7053 18.2906 43.8689 18.3295 44.0158 18.4057C44.0158 18.4057 44.9606 18.9197 45.913 19.6907C46.873 20.4617 48.0446 21.4519 48.0446 23.0014C48.0446 23.3037 48.0143 23.5834 47.9463 23.8707C47.8979 24.0921 47.7749 24.2906 47.5977 24.4335C47.4205 24.5764 47.1996 24.6551 46.9712 24.6568H40.1003C39.8707 24.6568 39.648 24.5788 39.4692 24.4358C39.2904 24.2928 39.1664 24.0934 39.1177 23.8707C39.056 23.5851 39.0255 23.2936 39.027 23.0014C39.027 21.4519 40.1986 20.4617 41.1586 19.6907C42.1185 18.9197 43.0482 18.4057 43.0482 18.4057C43.1989 18.3244 43.3681 18.2828 43.5396 18.2847V18.2923ZM43.5396 20.4843C43.2448 20.6582 42.9651 20.8018 42.4057 21.2478C41.9344 21.6231 41.5587 22.105 41.3097 22.6537H45.7694C45.5182 22.1042 45.14 21.6223 44.6658 21.2478C44.1065 20.8018 43.8268 20.6582 43.532 20.4919L43.5396 20.4843Z" fill="#1A1A1A"/>
<path fill-rule="evenodd" clip-rule="evenodd" d="M43.5547 14.8833C43.82 14.8892 44.0722 14.999 44.2563 15.1888C44.4404 15.3785 44.5414 15.6328 44.5373 15.8962V18.8743C44.5494 19.0121 44.5325 19.1509 44.4876 19.2818C44.4428 19.4128 44.371 19.5331 44.2768 19.635C44.1826 19.737 44.0681 19.8184 43.9405 19.8741C43.813 19.9298 43.6751 19.9585 43.5358 19.9585C43.3964 19.9585 43.2586 19.9298 43.131 19.8741C43.0034 19.8184 42.8889 19.737 42.7948 19.635C42.7006 19.5331 42.6288 19.4128 42.5839 19.2818C42.5391 19.1509 42.5222 19.0121 42.5342 18.8743V15.8962C42.5322 15.7626 42.5572 15.63 42.6077 15.5062C42.6583 15.3824 42.7334 15.2699 42.8285 15.1755C42.9237 15.081 43.037 15.0065 43.1617 14.9563C43.2865 14.9061 43.4201 14.8813 43.5547 14.8833Z" fill="#1A1A1A"/>
<path d="M24.1438 5.8732C9.49492 9.12347 1.99663 22.0414 1.97395 33.5383C1.97395 41.072 4.96518 48.2976 10.2902 53.6269C15.6153 58.9562 22.8384 61.9532 30.3722 61.9592C42.3831 61.8987 54.8172 53.9696 58.0297 39.9027C58.2943 38.7538 56.7069 38.1642 56.1627 39.2224C54.4755 42.481 52.044 45.2961 49.0655 47.4393C46.0869 49.5825 42.6452 50.9935 39.0194 51.5578C35.3936 52.1222 31.6858 51.8241 28.1967 50.6876C24.7077 49.5511 21.5356 47.6083 18.9378 45.0167C16.34 42.4251 14.3895 39.2577 13.2447 35.7714C12.0998 32.2851 11.7928 28.5781 12.3485 24.9509C12.9041 21.3237 14.3069 17.8786 16.4429 14.8949C18.579 11.9113 21.3881 9.47304 24.6427 7.77801C24.8711 7.66533 25.0468 7.46837 25.1328 7.22866C25.2188 6.98895 25.2084 6.7252 25.1038 6.49302C24.9904 6.29649 24.8014 5.79761 24.1438 5.8732ZM17.5979 10.4538C12.8207 15.2316 10.1232 21.7024 10.0921 28.4588C10.5834 45.3526 23.781 53.773 35.4441 53.8184C41.9371 53.8184 48.5813 51.2106 53.4566 46.2974C51.1664 50.4155 47.8207 53.8494 43.7636 56.2459C39.7065 58.6425 35.0843 59.9153 30.3722 59.9334C26.9047 59.9354 23.4709 59.2538 20.2671 57.9276C17.0633 56.6013 14.1524 54.6564 11.7009 52.2042C9.24937 49.752 7.30535 46.8405 5.98002 43.6364C4.65468 40.4322 3.97404 36.9982 3.97702 33.5307C4.50614 18.5568 14.461 12.0941 17.5979 10.4538Z" fill="#1A1A1A"/>
</svg>
