<svg width="57" height="56" viewBox="0 0 57 56" fill="none" xmlns="http://www.w3.org/2000/svg">
<g clip-path="url(#clip0_244_4887)">
<path d="M42.8952 25.08C42.8917 30.8312 40.6046 36.3456 36.5366 40.4111C32.4686 44.4766 26.9528 46.7604 21.2015 46.7604C15.4492 46.7586 9.93302 44.4723 5.86611 40.4041C1.79919 36.336 -0.485474 30.8191 -0.485474 25.0667C-0.480214 19.3167 1.80768 13.8039 5.87546 9.73985C9.94323 5.67579 15.4581 3.39294 21.2082 3.39294C26.9605 3.3947 32.4767 5.68105 36.5436 9.7492C40.6105 13.8174 42.8952 19.3276 42.8952 25.08Z" fill="#C3DBFF"/>
<path fill-rule="evenodd" clip-rule="evenodd" d="M34.1516 45.1731L33.305 51.1984C33.2827 51.3152 33.2844 51.4352 33.3098 51.5513C33.3352 51.6674 33.3839 51.7771 33.4529 51.8739C33.5219 51.9707 33.6097 52.0525 33.7112 52.1143C33.8127 52.1762 33.9257 52.2168 34.0433 52.2338C34.1609 52.2508 34.2808 52.2438 34.3956 52.2132C34.5104 52.1826 34.6179 52.129 34.7115 52.0558C34.805 51.9825 34.8828 51.891 34.94 51.7869C34.9972 51.6827 35.0328 51.568 35.0445 51.4497L35.891 45.4112C36.1159 43.8239 36.8434 42.3358 37.9612 41.185L42.2007 36.8462C42.3054 36.7391 42.3805 36.607 42.419 36.4626L44.0526 30.3778C44.1022 30.1707 44.1924 29.9754 44.3178 29.8033C44.4432 29.6311 44.6015 29.4855 44.7835 29.3748C44.9655 29.2642 45.1676 29.1906 45.3782 29.1584C45.5887 29.1262 45.8036 29.1361 46.0103 29.1873L46.6585 29.3527C46.8599 29.4046 47.0488 29.4965 47.2141 29.6228C47.3794 29.7491 47.5176 29.9073 47.6206 30.088C47.7236 30.2687 47.7893 30.4683 47.8137 30.6748C47.8382 30.8814 47.8209 31.0908 47.763 31.2905L45.2762 40.5632C45.2355 40.6766 45.2188 40.7972 45.2273 40.9174C45.2358 41.0376 45.2693 41.1548 45.3256 41.2616C45.3819 41.3684 45.4599 41.4626 45.5546 41.5381C45.6493 41.6136 45.7586 41.6689 45.8758 41.7005C45.993 41.7321 46.1154 41.7393 46.2354 41.7216C46.3554 41.7039 46.4704 41.6618 46.5731 41.5978C46.6758 41.5339 46.764 41.4495 46.8322 41.35C46.9004 41.2505 46.9471 41.138 46.9693 41.0196L49.443 31.7469C49.5579 31.3239 49.5882 30.8824 49.5319 30.4476C49.4757 30.0129 49.3341 29.5936 49.1153 29.2138C48.8965 28.8339 48.6048 28.5011 48.257 28.2344C47.9091 27.9676 47.512 27.7723 47.0884 27.6595L46.4336 27.4942C45.5711 27.2846 44.6608 27.4213 43.8979 27.8751C43.135 28.3288 42.5804 29.0635 42.3528 29.9215L40.7787 35.788L36.7046 39.968C35.3156 41.3834 34.4294 43.2088 34.1516 45.1731Z" fill="#1A1A1A"/>
<path fill-rule="evenodd" clip-rule="evenodd" d="M45.7392 16.5878C45.2359 17.2679 45.0154 18.1165 45.1241 18.9556L45.9177 28.2812C45.9169 28.4034 45.9415 28.5244 45.99 28.6366C46.0385 28.7488 46.1098 28.8496 46.1994 28.9327C46.2891 29.0158 46.395 29.0793 46.5105 29.1191C46.6261 29.159 46.7486 29.1743 46.8704 29.1641C46.9922 29.154 47.1105 29.1186 47.2179 29.0602C47.3252 29.0017 47.4192 28.9216 47.4939 28.8248C47.5685 28.7281 47.6222 28.6168 47.6514 28.4982C47.6807 28.3795 47.6849 28.2561 47.6638 28.1357L46.8702 18.777C46.8661 18.7637 46.8616 18.7504 46.8569 18.7373C46.8052 18.3351 46.9113 17.9285 47.153 17.6029C47.3948 17.2773 47.7533 17.0581 48.1532 16.9912C48.1599 16.9913 48.1665 16.9913 48.1731 16.9912C48.393 16.9462 48.6197 16.9455 48.84 16.9893C49.0602 17.033 49.2694 17.1203 49.4554 17.2459C49.6415 17.3716 49.8006 17.5332 49.9233 17.7211C50.0461 17.9091 50.1302 18.1196 50.1705 18.3405L52.3862 31.608C52.9483 34.9612 52.1481 38.3211 50.7062 41.5289L45.0579 54.0953C44.9988 54.2019 44.9625 54.3197 44.9513 54.4411C44.9401 54.5625 44.9543 54.6849 44.9929 54.8005C45.0316 54.9162 45.0938 55.0225 45.1757 55.1128C45.2576 55.2031 45.3574 55.2754 45.4688 55.3251C45.5801 55.3748 45.7006 55.4008 45.8225 55.4015C45.9444 55.4021 46.0651 55.3775 46.177 55.329C46.2889 55.2805 46.3894 55.2093 46.4723 55.1199C46.5552 55.0305 46.6186 54.9248 46.6585 54.8096L52.3068 42.2432C53.8346 38.8436 54.7539 35.1266 54.1124 31.3236L51.8967 18.0495C51.8158 17.5988 51.646 17.1687 51.3972 16.7843C51.1485 16.3999 50.8258 16.0688 50.4479 15.8103C50.0699 15.5518 49.6444 15.371 49.1959 15.2785C48.7475 15.1861 48.2851 15.1837 47.8358 15.2716L47.9218 15.2584C47.8864 15.2585 47.851 15.2607 47.8159 15.265C46.9793 15.427 46.2416 15.8995 45.7392 16.5878Z" fill="#1A1A1A"/>
<path fill-rule="evenodd" clip-rule="evenodd" d="M21.2743 45.173L22.1209 51.1983C22.1502 51.3175 22.1543 51.4415 22.1328 51.5623C22.1114 51.6831 22.0649 51.7981 21.9963 51.8999C21.9278 52.0017 21.8387 52.088 21.7348 52.1533C21.6309 52.2186 21.5144 52.2615 21.393 52.2791C21.2715 52.2967 21.1477 52.2887 21.0295 52.2556C20.9114 52.2225 20.8014 52.1651 20.7068 52.087C20.6121 52.0088 20.5349 51.9118 20.48 51.802C20.4251 51.6923 20.3938 51.5722 20.388 51.4496L19.5348 45.4111C19.312 43.818 18.5868 42.3375 17.4647 41.1848L13.2318 36.8461C13.1247 36.7397 13.0473 36.6075 13.0069 36.4625L11.3799 30.3777C11.3303 30.1706 11.2401 29.9753 11.1147 29.8031C10.9892 29.631 10.831 29.4854 10.649 29.3747C10.467 29.264 10.2649 29.1905 10.0543 29.1583C9.84375 29.1261 9.62891 29.1359 9.42216 29.1872L8.774 29.3525C8.57259 29.4045 8.38365 29.4964 8.2184 29.6227C8.05314 29.749 7.91491 29.9072 7.81191 30.0879C7.70891 30.2686 7.64323 30.4682 7.61877 30.6747C7.5943 30.8813 7.61154 31.0906 7.66947 31.2904L10.1563 40.5631C10.197 40.6765 10.2137 40.7971 10.2052 40.9173C10.1966 41.0375 10.1632 41.1547 10.1069 41.2615C10.0505 41.3683 9.97259 41.4625 9.87791 41.538C9.78323 41.6135 9.67386 41.6688 9.55669 41.7004C9.43953 41.732 9.31709 41.7392 9.19709 41.7215C9.07708 41.7038 8.96211 41.6617 8.8594 41.5977C8.75669 41.5338 8.66846 41.4494 8.60027 41.3499C8.53207 41.2504 8.48538 41.1379 8.46314 41.0195L5.97631 31.7468C5.86146 31.3233 5.83149 30.8814 5.88814 30.4463C5.94479 30.0112 6.08694 29.5917 6.3064 29.2118C6.52586 28.8319 6.81829 28.4991 7.16687 28.2327C7.51545 27.9663 7.91329 27.7714 8.33748 27.6594L8.99226 27.494C9.85478 27.2844 10.7651 27.4212 11.528 27.8749C12.2908 28.3287 12.8455 29.0634 13.073 29.9213L14.6405 35.7879L18.7213 39.9679C20.1102 41.3833 21.0031 43.2087 21.2743 45.173Z" fill="#1A1A1A"/>
<path fill-rule="evenodd" clip-rule="evenodd" d="M9.69333 16.5877C10.1761 17.2491 10.4209 18.0825 10.3018 18.9555L9.50814 28.2811C9.50902 28.4033 9.48443 28.5244 9.43593 28.6365C9.38743 28.7487 9.31609 28.8495 9.22646 28.9326C9.13683 29.0157 9.03087 29.0792 8.91534 29.119C8.79981 29.1589 8.67725 29.1742 8.55546 29.1641C8.43367 29.1539 8.31534 29.1185 8.208 29.0601C8.10066 29.0017 8.00667 28.9215 7.93202 28.8247C7.85738 28.728 7.80371 28.6167 7.77445 28.4981C7.74519 28.3794 7.74097 28.256 7.76206 28.1356L8.56896 18.7835C8.57086 18.7703 8.57306 18.757 8.57558 18.7438C8.62748 18.3426 8.52224 17.9369 8.28187 17.6114C8.0415 17.286 7.68462 17.0661 7.28586 16.9978H7.26602C7.04608 16.9527 6.81936 16.9521 6.59916 16.9958C6.37896 17.0395 6.1697 17.1268 5.98367 17.2525C5.79763 17.3781 5.63855 17.5397 5.51577 17.7276C5.39298 17.9156 5.30896 18.1262 5.26862 18.347L3.04635 31.6079C2.48416 34.9612 3.27783 38.321 4.72628 41.5354L10.3746 54.1018C10.4337 54.2085 10.47 54.3262 10.4812 54.4476C10.4924 54.569 10.4782 54.6914 10.4396 54.8071C10.4009 54.9227 10.3387 55.0291 10.2568 55.1194C10.1749 55.2097 10.0751 55.282 9.96374 55.3317C9.8524 55.3813 9.73195 55.4073 9.61003 55.408C9.4881 55.4087 9.36738 55.384 9.25551 55.3355C9.14363 55.287 9.04306 55.2158 8.96017 55.1264C8.87728 55.037 8.81388 54.9313 8.77399 54.8161L3.12571 42.2497C1.5979 38.8435 0.678565 35.1199 1.3135 31.3235L3.52916 18.0494C3.61006 17.598 3.78006 17.1673 4.02923 16.7824C4.2784 16.3975 4.60175 16.0661 4.98041 15.8075C5.35906 15.5489 5.78544 15.3683 6.23464 15.2763C6.68385 15.1843 7.14688 15.1827 7.59672 15.2715L7.51074 15.2583C7.54391 15.2587 7.57703 15.2609 7.60995 15.2649C8.47637 15.4369 9.21051 15.9263 9.69333 16.5877Z" fill="#1A1A1A"/>
<path d="M27.6832 6.34942C27.5016 6.35607 27.3266 6.41877 27.1821 6.52891C27.0376 6.63905 26.9308 6.79121 26.8763 6.96451L24.4424 14.7954L16.3337 14.716C16.1479 14.7146 15.9665 14.772 15.8154 14.8801C15.6643 14.9881 15.5512 15.1412 15.4925 15.3175C15.4338 15.4937 15.4323 15.684 15.4884 15.8611C15.5444 16.0382 15.6551 16.193 15.8046 16.3034L22.4317 21.0654L19.8391 28.8566C19.7829 29.0338 19.7844 29.2243 19.8433 29.4007C19.9021 29.577 20.0154 29.7302 20.1667 29.8382C20.3181 29.9462 20.4997 30.0035 20.6856 30.0018C20.8716 30.0001 21.0522 29.9395 21.2015 29.8288L27.7162 24.9477L34.2309 29.8288C34.3804 29.9369 34.5601 29.9952 34.7446 29.9955C34.929 29.9959 35.1089 29.9382 35.2588 29.8307C35.4088 29.7233 35.5211 29.5714 35.5799 29.3965C35.6388 29.2217 35.6412 29.0328 35.5868 28.8566L32.9941 21.0654L39.6213 16.3034C39.7707 16.193 39.8814 16.0382 39.9375 15.8611C39.9936 15.684 39.9921 15.4937 39.9334 15.3175C39.8746 15.1412 39.7616 14.9881 39.6105 14.8801C39.4594 14.772 39.2779 14.7146 39.0922 14.716L30.9835 14.7954L28.5496 6.9579C28.4911 6.77727 28.3758 6.62041 28.2208 6.51074C28.0659 6.40107 27.873 6.34448 27.6832 6.34942ZM27.7162 10.1789L29.502 15.933C29.5575 16.1139 29.6698 16.2721 29.8223 16.3841C29.9748 16.4961 30.1594 16.5559 30.3486 16.5547L36.3474 16.4885L31.4531 20.0138C31.3003 20.1229 31.1863 20.278 31.128 20.4566C31.0697 20.6351 31.0701 20.8275 31.129 21.0058L33.0404 26.7467L28.2387 23.1488C28.0868 23.0355 27.9024 22.9743 27.7129 22.9743C27.5235 22.9743 27.339 23.0355 27.1871 23.1488L22.3854 26.7467L24.3035 21.0058C24.3624 20.8275 24.3628 20.6351 24.3045 20.4566C24.2461 20.278 24.1322 20.1229 23.9794 20.0138L19.0851 16.4952L25.0773 16.5613C25.2676 16.5639 25.4537 16.5048 25.6075 16.3927C25.7614 16.2806 25.8747 16.1216 25.9305 15.9396L27.7162 10.1789Z" fill="#1A1A1A"/>
</g>
<defs>
<clipPath id="clip0_244_4887">
<rect width="56" height="56" fill="white" transform="translate(0.5)"/>
</clipPath>
</defs>
</svg>
