<svg width="65" height="64" viewBox="0 0 65 64" fill="none" xmlns="http://www.w3.org/2000/svg">
<path d="M58.7931 37.8618C58.7931 41.0538 58.1643 44.2144 56.9426 47.1633C55.7208 50.1122 53.9301 52.7915 51.6728 55.0482C49.4154 57.3049 46.7355 59.0947 43.7862 60.3156C40.837 61.5364 37.6761 62.1642 34.4842 62.1632C28.039 62.1632 21.8579 59.6029 17.3005 55.0455C12.7431 50.4881 10.1828 44.307 10.1828 37.8618C10.1818 34.6699 10.8096 31.509 12.0304 28.5598C13.2513 25.6105 15.0411 22.9306 17.2978 20.6732C19.5545 18.4159 22.2338 16.6251 25.1827 15.4034C28.1316 14.1817 31.2922 13.5529 34.4842 13.5529C37.6774 13.5519 40.8395 14.1802 43.7897 15.402C46.74 16.6237 49.4205 18.4149 51.6781 20.6732C53.9357 22.9315 55.7261 25.6126 56.9469 28.5632C58.1678 31.5139 58.7951 34.6762 58.7931 37.8694V37.8618Z" fill="#C3DBFF"/>
<path d="M24.0984 6.31909C9.45713 9.56936 1.95128 22.4873 1.9286 33.9841C1.9286 41.5179 4.91983 48.7435 10.2449 54.0728C15.5699 59.4021 22.7931 62.3991 30.3269 62.4051C42.3453 62.3446 54.7719 54.4155 57.9919 40.3486C58.2489 39.1997 56.6616 38.6177 56.1173 39.6683C54.4288 42.9254 51.9966 45.7388 49.0178 47.8803C46.039 50.0219 42.5975 51.4313 38.9722 51.9945C35.347 52.5576 31.6401 52.2586 28.152 51.1216C24.6639 49.9846 21.4928 48.0416 18.8958 45.4503C16.2988 42.8589 14.3491 39.692 13.2045 36.2064C12.06 32.7208 11.7529 29.0145 12.3082 25.388C12.8635 21.7616 14.2656 18.317 16.4007 15.3336C18.5358 12.3502 21.3439 9.91186 24.5973 8.21634C24.822 8.10376 24.9949 7.9094 25.0807 7.67321C25.1665 7.43702 25.1585 7.17695 25.0584 6.94647C24.945 6.72726 24.8014 6.31909 24.0984 6.31909ZM17.5601 10.8997C12.7809 15.6768 10.0807 22.1474 10.0467 28.9047C10.538 45.7985 23.7432 54.2265 35.3988 54.2718C41.8918 54.2718 48.5359 51.6565 53.4113 46.7433C51.123 50.8642 47.7782 54.3011 43.7209 56.7004C39.6637 59.0997 35.0404 60.3748 30.3269 60.3944C26.8581 60.3964 23.423 59.7143 20.2183 58.3871C17.0135 57.0599 14.1019 55.1137 11.6502 52.6599C9.19847 50.2061 7.25476 47.2928 5.93032 44.0869C4.60588 40.881 3.9267 37.4453 3.93167 33.9766C4.46079 19.0027 14.4157 12.5399 17.5601 10.8997Z" fill="#1A1A1A"/>
<path d="M25.9503 18.8213C25.685 18.8273 25.4328 18.9379 25.2487 19.1291C25.0647 19.3202 24.9636 19.5764 24.9677 19.8418V32.3515C24.9647 32.8291 24.8477 33.2991 24.6265 33.7224C24.4052 34.1457 24.0862 34.51 23.6958 34.7852C23.3054 35.0604 22.855 35.2384 22.382 35.3044C21.9089 35.3705 21.427 35.3227 20.9761 35.165C20.5253 35.0073 20.1186 34.7443 19.7899 34.3978C19.4612 34.0513 19.2199 33.6313 19.0862 33.1728C18.9524 32.7143 18.93 32.2305 19.0209 31.7616C19.1118 31.2927 19.3132 30.8523 19.6085 30.4769C19.7064 30.3763 19.782 30.2563 19.8307 30.1247C19.8794 29.993 19.8999 29.8527 19.891 29.7126C19.8822 29.5725 19.8441 29.4359 19.7792 29.3114C19.7143 29.187 19.6241 29.0775 19.5144 28.99C19.4046 28.9025 19.2778 28.839 19.142 28.8035C19.0062 28.768 18.8645 28.7613 18.726 28.7839C18.5875 28.8065 18.4552 28.8578 18.3377 28.9346C18.2203 29.0114 18.1202 29.1119 18.0439 29.2297C17.542 29.8549 17.1974 30.5914 17.039 31.3773C16.8807 32.1632 16.9132 32.9756 17.1339 33.7464C17.3545 34.5171 17.7569 35.2237 18.3072 35.8068C18.8574 36.3898 19.5395 36.8323 20.2962 37.0972C21.0529 37.362 21.8621 37.4415 22.6559 37.3288C23.4497 37.2162 24.2048 36.9147 24.858 36.4498C25.5111 35.9849 26.0432 35.3701 26.4095 34.6569C26.7758 33.9438 26.9657 33.1532 26.9632 32.3515V19.8418C26.9652 19.7078 26.9405 19.5748 26.8904 19.4506C26.8403 19.3264 26.7659 19.2134 26.6715 19.1184C26.5772 19.0233 26.4648 18.9481 26.3409 18.8971C26.2171 18.846 26.0843 18.8203 25.9503 18.8213ZM29.9111 22.3437C29.6962 22.3587 29.4917 22.4424 29.3279 22.5824C29.1641 22.7224 29.0496 22.9114 29.0013 23.1214C28.953 23.3314 28.9735 23.5514 29.0598 23.7489C29.146 23.9464 29.2934 24.1109 29.4803 24.2183C30.5457 24.8457 31.4285 25.7409 32.0411 26.8149C32.6537 27.8889 32.9747 29.1044 32.9724 30.3409C32.9604 30.4797 32.9773 30.6195 33.0221 30.7515C33.067 30.8834 33.1388 31.0046 33.2329 31.1073C33.3271 31.2101 33.4416 31.2921 33.5692 31.3482C33.6968 31.4043 33.8346 31.4333 33.974 31.4333C34.1133 31.4333 34.2512 31.4043 34.3787 31.3482C34.5063 31.2921 34.6208 31.2101 34.715 31.1073C34.8092 31.0046 34.8809 30.8834 34.9258 30.7515C34.9706 30.6195 34.9876 30.4797 34.9755 30.3409C34.9755 27.1057 33.2672 24.1124 30.4856 22.4873C30.3137 22.3802 30.1135 22.3275 29.9111 22.3361V22.3437Z" fill="#1A1A1A"/>
<path d="M40.4556 18.8364C40.2283 18.8485 40.0118 18.9372 39.8416 19.0883C39.6713 19.2393 39.5573 19.4437 39.5183 19.6679L38.0141 28.179C37.6588 30.1972 36.8198 32.0265 35.6255 33.3114C34.4313 34.5964 32.9271 35.3599 30.992 35.3599C30.8532 35.3478 30.7134 35.3647 30.5814 35.4096C30.4495 35.4544 30.3283 35.5262 30.2256 35.6204C30.1228 35.7146 30.0408 35.8291 29.9847 35.9566C29.9286 36.0842 29.8996 36.222 29.8996 36.3614C29.8996 36.5008 29.9286 36.6386 29.9847 36.7662C30.0408 36.8937 30.1228 37.0082 30.2256 37.1024C30.3283 37.1966 30.4495 37.2684 30.5814 37.3132C30.7134 37.3581 30.8532 37.375 30.992 37.3629C33.4789 37.3629 35.5877 36.3047 37.0995 34.672C38.629 32.9413 39.631 30.8089 39.9869 28.5268L40.312 26.6749L41.0074 32.4724C41.1812 33.9464 41.922 35.1104 43.018 35.6547C44.114 36.1989 45.3612 36.214 46.7294 36.0402C49.4656 35.7076 52.799 34.5738 56.2383 33.833C56.3801 33.82 56.5175 33.7771 56.6414 33.707C56.7654 33.6369 56.873 33.5413 56.9573 33.4265C57.0415 33.3117 57.1003 33.1803 57.13 33.041C57.1596 32.9018 57.1593 32.7578 57.1291 32.6186C57.0989 32.4795 57.0395 32.3483 56.9548 32.2339C56.8701 32.1194 56.762 32.0243 56.6378 31.9547C56.5136 31.8851 56.376 31.8428 56.2341 31.8304C56.0923 31.818 55.9494 31.8359 55.815 31.8828C52.2397 32.6463 48.8609 33.765 46.4875 34.0522C45.3008 34.2034 44.4088 34.1127 43.9175 33.8632C43.4111 33.6138 43.1238 33.2661 43.0029 32.2381L41.4911 19.7132C41.4592 19.4642 41.3352 19.236 41.1436 19.0738C40.952 18.9115 40.7065 18.8268 40.4556 18.8364Z" fill="#1A1A1A"/>
<path d="M48.0144 28.8518C47.2682 28.8639 46.5347 29.0458 45.8694 29.3837C45.204 29.7216 44.6244 30.2067 44.1745 30.802C44.0847 30.9103 44.0187 31.0363 43.9806 31.1718C43.9426 31.3073 43.9335 31.4493 43.9538 31.5886C43.9741 31.7278 44.0234 31.8613 44.0986 31.9802C44.1737 32.0992 44.273 32.2011 44.3901 32.2793C44.5071 32.3575 44.6392 32.4102 44.7779 32.4341C44.9166 32.458 45.0587 32.4525 45.1952 32.418C45.3316 32.3835 45.4593 32.3207 45.5699 32.2337C45.6805 32.1468 45.7717 32.0375 45.8374 31.9131C45.8374 31.9131 46.5177 30.8549 48.0144 30.8549C48.672 30.8549 49.9872 31.5654 51.0076 32.3817C52.0281 33.2132 52.7764 34.0296 52.7764 34.0296C52.862 34.1368 52.9686 34.2253 53.0897 34.2898C53.2108 34.3542 53.3438 34.3932 53.4805 34.4043C53.6173 34.4154 53.7548 34.3984 53.8847 34.3544C54.0147 34.3104 54.1342 34.2402 54.236 34.1482C54.3378 34.0563 54.4197 33.9444 54.4766 33.8196C54.5336 33.6948 54.5644 33.5597 54.5671 33.4225C54.5699 33.2854 54.5445 33.1491 54.4927 33.0221C54.4408 32.8951 54.3635 32.7801 54.2654 32.6841C54.2654 32.6841 53.4113 31.7619 52.2699 30.8246C51.1134 29.8949 49.6773 28.8594 48.0144 28.8594V28.8518Z" fill="#1A1A1A"/>
</svg>
