<svg width="56" height="56" viewBox="0 0 56 56" fill="none" xmlns="http://www.w3.org/2000/svg">
<path d="M44.5252 26.7334C44.5234 32.4858 42.2371 38.0019 38.1689 42.0688C34.1008 46.1358 28.5839 48.4204 22.8315 48.4204C17.0792 48.4187 11.563 46.1323 7.49611 42.0642C3.4292 37.996 1.14453 32.4792 1.14453 26.7268C1.14804 20.9756 3.43516 15.4611 7.50312 11.3956C11.5711 7.33014 17.0869 5.04639 22.8382 5.04639C28.5905 5.04814 34.1067 7.33449 38.1736 11.4026C42.2405 15.4708 44.5252 20.9877 44.5252 26.74V26.7334Z" fill="#C3DBFF"/>
<path fill-rule="evenodd" clip-rule="evenodd" d="M26.8265 5.75412C26.6002 5.75944 26.3846 5.85183 26.2247 6.01206L19.4851 12.7516L10.1925 12.7715C9.96153 12.7732 9.74047 12.8657 9.57712 13.0291C9.41376 13.1925 9.32123 13.4135 9.3195 13.6445V22.9172L2.56008 29.67C2.3953 29.835 2.30273 30.0586 2.30273 30.2917C2.30273 30.5249 2.3953 30.7485 2.56008 30.9134L9.32611 37.6663L9.34595 46.9456C9.3477 47.1777 9.44115 47.3998 9.60592 47.5633C9.7707 47.7268 9.99345 47.8186 10.2256 47.8186H19.4785L26.2247 54.5714C26.3896 54.7362 26.6132 54.8288 26.8464 54.8288C27.0795 54.8288 27.3031 54.7362 27.4681 54.5714L34.2143 47.8186H43.4936C43.7269 47.8186 43.9506 47.7259 44.1156 47.561C44.2806 47.396 44.3732 47.1723 44.3732 46.939V37.6663L51.1194 30.9134C51.2842 30.7485 51.3768 30.5249 51.3768 30.2917C51.3768 30.0586 51.2842 29.835 51.1194 29.67L44.3799 22.9172V13.6379C44.3781 13.4058 44.2847 13.1837 44.1199 13.0202C43.9551 12.8566 43.7324 12.7649 43.5002 12.7649H34.2143L27.4681 6.00545C27.3828 5.92172 27.2813 5.85625 27.1699 5.81304C27.0584 5.76983 26.9394 5.74978 26.8199 5.75412H26.8265ZM26.8464 7.87057L33.2354 14.2662C33.4013 14.4288 33.6248 14.5192 33.8571 14.5176H42.6206V23.281C42.6189 23.5133 42.7093 23.7368 42.8719 23.9027L49.2675 30.2917L42.8719 36.6808C42.7093 36.8467 42.6189 37.0702 42.6206 37.3025V46.0659H33.8571C33.6239 46.0661 33.4003 46.1589 33.2354 46.3239L26.8464 52.7129L20.4507 46.3239C20.2891 46.1621 20.0709 46.0695 19.8422 46.0659H11.092L11.0722 37.3025C11.0712 37.1865 11.0474 37.0719 11.002 36.9652C10.9566 36.8585 10.8905 36.7619 10.8076 36.6808L4.4252 30.2917L10.8209 23.9027C10.9859 23.7379 11.0786 23.5142 11.0788 23.281V14.5242L19.8621 14.5043C20.093 14.5024 20.3139 14.4098 20.4772 14.2464L26.8464 7.87057Z" fill="#1A1A1A"/>
<path fill-rule="evenodd" clip-rule="evenodd" d="M19.822 12.7649C19.5922 12.7683 19.3728 12.8616 19.2108 13.0248C19.0489 13.1879 18.9573 13.408 18.9556 13.6379V17.8708C17.5865 16.8192 15.6486 16.7663 14.392 18.0163C13.2015 19.2333 13.2544 21.0587 14.2068 22.4079H10.1855C10.013 22.4093 9.84467 22.4614 9.70152 22.5578C9.55837 22.6541 9.44671 22.7904 9.38045 22.9497C9.31418 23.1091 9.29624 23.2844 9.32884 23.4538C9.36145 23.6232 9.44317 23.7793 9.56383 23.9027L12.5599 26.8988C11.6904 26.9535 10.8734 27.3337 10.2716 27.9637C9.66985 28.5937 9.32741 29.4272 9.3125 30.2983C9.3125 32.1238 10.7676 33.5392 12.5533 33.6913L9.56383 36.6874C9.44317 36.8107 9.36145 36.9668 9.32884 37.1363C9.29624 37.3057 9.31418 37.481 9.38045 37.6403C9.44671 37.7996 9.55837 37.9359 9.70152 38.0323C9.84467 38.1286 10.013 38.1807 10.1855 38.1821L14.2068 38.202C13.2478 39.5644 13.2015 41.4163 14.4184 42.6333C14.4162 42.6333 14.4206 42.6333 14.4184 42.6333C15.6817 43.8635 17.6063 43.7775 18.949 42.7193V46.9323C18.9504 47.1049 19.0025 47.2732 19.0988 47.4163C19.1951 47.5595 19.3315 47.6712 19.4908 47.7374C19.6501 47.8037 19.8254 47.8216 19.9948 47.789C20.1643 47.7564 20.3204 47.6747 20.4437 47.554L23.4398 44.5645C23.5919 46.3503 25.0139 47.8054 26.8394 47.8054C28.6582 47.8054 30.0802 46.3503 30.2323 44.5645L33.2284 47.554C33.3518 47.6747 33.5079 47.7564 33.6773 47.789C33.8467 47.8216 34.022 47.8037 34.1813 47.7374C34.3407 47.6712 34.477 47.5595 34.5733 47.4163C34.6696 47.2732 34.7218 47.1049 34.7232 46.9323V42.7127C36.0922 43.7841 38.0301 43.837 39.3 42.5804C40.4905 41.3634 40.4243 39.538 39.4719 38.202L43.4932 38.1755C43.6652 38.1728 43.8326 38.1198 43.9748 38.023C44.1169 37.9262 44.2276 37.7898 44.293 37.6307C44.3585 37.4716 44.3759 37.2969 44.343 37.1281C44.3102 36.9592 44.2286 36.8037 44.1083 36.6808L41.1122 33.6913C41.9829 33.6381 42.8015 33.2586 43.4047 32.6285C44.0078 31.9983 44.3512 31.1639 44.3662 30.2917C44.3662 28.4663 42.9046 27.0509 41.1188 26.8922L44.1017 23.9225C44.2216 23.8 44.3031 23.6451 44.3362 23.4768C44.3693 23.3086 44.3524 23.1344 44.2878 22.9755C44.2231 22.8167 44.1135 22.6803 43.9723 22.583C43.8312 22.4856 43.6646 22.4317 43.4932 22.4278L39.4653 22.4079C40.431 21.0455 40.4706 19.1936 39.2537 17.9766C37.997 16.7266 36.0592 16.7795 34.6901 17.8377L34.7232 13.6511C34.7244 13.4767 34.6736 13.3058 34.5775 13.1602C34.4813 13.0147 34.3441 12.901 34.1831 12.8336C34.0222 12.7663 33.8449 12.7483 33.6737 12.782C33.5025 12.8157 33.3452 12.8995 33.2218 13.0228L30.2389 16.0321C30.1859 15.1608 29.8066 14.3414 29.1766 13.7372C28.5466 13.1329 27.7121 12.7882 26.8394 12.7715C25.9654 12.7865 25.1293 13.1306 24.498 13.735C23.8666 14.3394 23.4864 15.1597 23.4332 16.0321L20.4503 13.0228C20.3671 12.9395 20.2681 12.8738 20.159 12.8295C20.05 12.7851 19.9397 12.7632 19.822 12.7649ZM39.2603 17.9832L39.4984 18.433C39.4651 18.2629 39.3822 18.1064 39.2603 17.9832ZM39.3066 42.587L38.6849 42.8515C38.8008 42.8506 38.9155 42.8267 39.0222 42.7813C39.1289 42.7359 39.2255 42.6699 39.3066 42.587ZM14.4383 42.6399C14.6009 42.7993 14.8191 42.8894 15.0468 42.8912L14.4383 42.6399ZM14.392 18.0163L15.0137 17.765C14.7814 17.7634 14.5579 17.8537 14.392 18.0163ZM26.846 14.5242C27.8182 14.5242 28.5987 15.298 28.5987 16.2768V18.0626C28.6013 18.2346 28.6544 18.402 28.7512 18.5442C28.848 18.6863 28.9844 18.797 29.1435 18.8624C29.3025 18.9279 29.4773 18.9453 29.6461 18.9124C29.815 18.8796 29.9705 18.798 30.0934 18.6777L32.9572 15.7874L32.9308 19.7359C32.9309 19.9098 32.9826 20.0798 33.0792 20.2243C33.1759 20.3689 33.3132 20.4815 33.4739 20.5481C33.6345 20.6146 33.8113 20.632 33.9819 20.5981C34.1524 20.5642 34.3091 20.4805 34.4321 20.3576L35.5433 19.2333C35.8704 18.9052 36.3145 18.7206 36.7777 18.72C37.241 18.7194 37.6856 18.9028 38.0136 19.23C38.3416 19.5571 38.5262 20.0012 38.5268 20.4644C38.5275 20.9277 38.344 21.3722 38.0169 21.7003L37.0513 22.6593C36.9306 22.7826 36.8489 22.9387 36.8163 23.1082C36.7837 23.2776 36.8016 23.4529 36.8679 23.6122C36.9341 23.7715 37.0458 23.9078 37.1889 24.0042C37.3321 24.1005 37.5004 24.1526 37.673 24.154L41.3768 24.1739L38.4931 27.0443C38.3724 27.1676 38.2907 27.3238 38.2581 27.4932C38.2255 27.6626 38.2434 27.8379 38.3097 27.9972C38.376 28.1566 38.4876 28.2929 38.6308 28.3892C38.7739 28.4855 38.9422 28.5376 39.1148 28.539H40.8675C41.8397 28.539 42.6202 29.3129 42.6202 30.2917C42.6219 30.5224 42.5778 30.7511 42.4903 30.9645C42.4029 31.178 42.2738 31.3719 42.1107 31.535C41.9476 31.6981 41.7537 31.8271 41.5403 31.9146C41.3268 32.002 41.0981 32.0462 40.8675 32.0444H39.1148C38.9422 32.0458 38.7739 32.0979 38.6308 32.1943C38.4876 32.2906 38.376 32.4269 38.3097 32.5862C38.2434 32.7455 38.2255 32.9208 38.2581 33.0903C38.2907 33.2597 38.3724 33.4158 38.4931 33.5392L41.39 36.4361L37.6663 36.4625C37.4944 36.4652 37.3269 36.5182 37.1848 36.615C37.0426 36.7119 36.932 36.8482 36.8665 37.0073C36.8011 37.1664 36.7837 37.3411 36.8165 37.51C36.8493 37.6788 36.931 37.8343 37.0513 37.9573L38.0169 38.9163C38.0213 38.9163 38.0257 38.9163 38.0301 38.9163C38.1939 39.0729 38.3248 39.2605 38.4152 39.4683C38.5057 39.676 38.5539 39.8997 38.557 40.1263C38.56 40.3529 38.518 40.5778 38.4332 40.7879C38.3484 40.998 38.2226 41.1892 38.0632 41.3502C37.8987 41.5167 37.7023 41.6483 37.4857 41.7371C37.2691 41.8259 37.0369 41.8701 36.8028 41.867C36.5688 41.8639 36.3377 41.8136 36.1236 41.7191C35.9094 41.6246 35.7166 41.4879 35.5565 41.3171L34.4851 40.1994C34.3636 40.0754 34.2081 39.99 34.0383 39.9542C33.8684 39.9183 33.6918 39.9336 33.5306 39.9979C33.3693 40.0623 33.2307 40.1729 33.1323 40.3158C33.0338 40.4588 32.9798 40.6277 32.9771 40.8012V44.8225L30.0934 41.9388C29.9701 41.8182 29.814 41.7364 29.6445 41.7038C29.4751 41.6712 29.2998 41.6892 29.1405 41.7554C28.9812 41.8217 28.8448 41.9334 28.7485 42.0765C28.6522 42.2197 28.6001 42.388 28.5987 42.5605V44.3132C28.6004 44.5439 28.5563 44.7726 28.4688 44.986C28.3814 45.1995 28.2523 45.3934 28.0892 45.5565C27.9261 45.7196 27.7322 45.8486 27.5188 45.9361C27.3053 46.0235 27.0766 46.0677 26.846 46.0659C26.6153 46.0677 26.3866 46.0235 26.1732 45.9361C25.9597 45.8486 25.7658 45.7196 25.6027 45.5565C25.4396 45.3934 25.3106 45.1995 25.2231 44.986C25.1357 44.7726 25.0915 44.5439 25.0933 44.3132V42.5605C25.0932 42.3866 25.0415 42.2167 24.9449 42.0721C24.8482 41.9276 24.7109 41.8149 24.5502 41.7484C24.3895 41.6819 24.2128 41.6645 24.0422 41.6983C23.8716 41.7322 23.715 41.8159 23.5919 41.9388L20.7083 44.8291V40.8078C20.7056 40.6343 20.6516 40.4654 20.5531 40.3224C20.4546 40.1795 20.316 40.0689 20.1548 40.0045C19.9936 39.9402 19.8169 39.925 19.6471 39.9608C19.4772 39.9967 19.3218 40.082 19.2003 40.206L18.1288 41.3303C18.1266 41.3303 18.1311 41.3303 18.1288 41.3303C17.9737 41.4999 17.7792 41.6364 17.57 41.7315C17.3608 41.8267 17.1345 41.8786 16.9047 41.8842C16.6749 41.8897 16.4464 41.8488 16.2328 41.7639C16.0193 41.6789 15.8251 41.5517 15.6619 41.3899C15.4973 41.228 15.3666 41.035 15.2773 40.8221C15.1881 40.6092 15.1422 40.3806 15.1422 40.1498C15.1422 39.9189 15.1881 39.6904 15.2773 39.4775C15.3666 39.2646 15.4973 39.0715 15.6619 38.9097L16.6341 37.9506C16.757 37.8276 16.8407 37.6709 16.8746 37.5004C16.9085 37.3298 16.891 37.153 16.8245 36.9924C16.758 36.8317 16.6453 36.6944 16.5008 36.5977C16.3562 36.5011 16.1863 36.4494 16.0124 36.4493L12.2954 36.4361L15.1923 33.5392C15.3148 33.4165 15.3983 33.2605 15.4324 33.0905C15.4666 32.9206 15.4497 32.7443 15.384 32.5839C15.3183 32.4235 15.2066 32.2861 15.0631 32.189C14.9195 32.0918 14.7505 32.0392 14.5772 32.0378H12.8245C12.5938 32.0396 12.3651 31.9954 12.1517 31.908C11.9382 31.8205 11.7443 31.6915 11.5812 31.5284C11.4181 31.3653 11.2891 31.1714 11.2016 30.9579C11.1142 30.7445 11.07 30.5158 11.0718 30.2851C11.0718 29.3129 11.8456 28.5324 12.8245 28.5324H14.5772C14.7492 28.5298 14.9166 28.4767 15.0587 28.3799C15.2009 28.2831 15.3115 28.1467 15.377 27.9876C15.4425 27.8286 15.4598 27.6538 15.427 27.485C15.3942 27.3161 15.3126 27.1606 15.1923 27.0377L12.3086 24.154H16.0124C16.1863 24.1539 16.3562 24.1022 16.5008 24.0056C16.6453 23.9089 16.758 23.7716 16.8245 23.6109C16.891 23.4503 16.9085 23.2735 16.8746 23.1029C16.8407 22.9324 16.757 22.7757 16.6341 22.6527L15.6685 21.6936C15.5043 21.5359 15.3731 21.3471 15.2825 21.1383C15.1919 20.9294 15.1436 20.7046 15.1405 20.477C15.1375 20.2493 15.1796 20.0233 15.2646 19.8121C15.3495 19.6009 15.4756 19.4086 15.6354 19.2465C15.7997 19.082 15.9953 18.9522 16.2106 18.8646C16.426 18.777 16.6567 18.7334 16.8891 18.7365C17.1216 18.7396 17.351 18.7892 17.564 18.8825C17.7769 18.9758 17.969 19.1108 18.1288 19.2796L19.2003 20.3841C19.3222 20.5085 19.4782 20.5939 19.6487 20.6295C19.8191 20.6652 19.9963 20.6494 20.1578 20.5842C20.3193 20.5191 20.4578 20.4074 20.5558 20.2635C20.6538 20.1195 20.7069 19.9497 20.7083 19.7756V15.7676L23.5919 18.6777C23.715 18.8006 23.8716 18.8843 24.0422 18.9182C24.2128 18.9521 24.3895 18.9346 24.5502 18.8681C24.7109 18.8016 24.8482 18.6889 24.9449 18.5444C25.0415 18.3998 25.0932 18.2299 25.0933 18.056V16.2702C25.0933 15.298 25.8671 14.5242 26.846 14.5242Z" fill="#1A1A1A"/>
<path d="M26.846 25.0337C25.4525 25.0372 24.1171 25.5923 23.1318 26.5776C22.1465 27.5629 21.5914 28.8983 21.5879 30.2918C21.5879 33.182 23.9491 35.5498 26.846 35.5498C28.2394 35.5463 29.5748 34.9912 30.5601 34.0059C31.5454 33.0206 32.1005 31.6852 32.104 30.2918C32.1005 28.8983 31.5454 27.5629 30.5601 26.5776C29.5748 25.5923 28.2394 25.0372 26.846 25.0337ZM26.846 26.7864C28.7904 26.7864 30.3513 28.3473 30.3513 30.2918C30.3513 32.2362 28.7904 33.7971 26.846 33.7971C26.3851 33.7989 25.9285 33.7094 25.5024 33.5339C25.0764 33.3583 24.6892 33.1002 24.3634 32.7743C24.0375 32.4485 23.7794 32.0613 23.6038 31.6353C23.4283 31.2092 23.3388 30.7526 23.3406 30.2918C23.3406 28.3473 24.8948 26.7864 26.846 26.7864Z" fill="#1A1A1A"/>
<path d="M25.0869 30.2917C25.0869 30.7566 25.2716 31.2024 25.6003 31.5311C25.929 31.8598 26.3748 32.0444 26.8396 32.0444C27.3044 32.0444 27.7502 31.8598 28.0789 31.5311C28.4076 31.2024 28.5923 30.7566 28.5923 30.2917C28.5923 29.8269 28.4076 29.3811 28.0789 29.0524C27.7502 28.7237 27.3044 28.5391 26.8396 28.5391C26.3748 28.5391 25.929 28.7237 25.6003 29.0524C25.2716 29.3811 25.0869 29.8269 25.0869 30.2917Z" fill="#1A1A1A"/>
</svg>
