<svg width="22" height="22" viewBox="0 0 22 22" fill="none" xmlns="http://www.w3.org/2000/svg">
<mask id="mask0_3169_11472" style="mask-type:luminance" maskUnits="userSpaceOnUse" x="0" y="0" width="22" height="22">
<path d="M11 21C12.3135 21.0017 13.6143 20.7438 14.8278 20.2412C16.0413 19.7385 17.1435 19.001 18.071 18.071C19.001 17.1435 19.7385 16.0413 20.2412 14.8278C20.7438 13.6143 21.0017 12.3135 21 11C21.0017 9.68655 20.7438 8.3857 20.2411 7.17222C19.7385 5.95875 19.001 4.85656 18.071 3.92901C17.1435 2.99902 16.0413 2.26151 14.8278 1.75885C13.6143 1.25619 12.3135 0.998307 11 1.00001C9.68655 0.998334 8.3857 1.25623 7.17222 1.75889C5.95875 2.26154 4.85656 2.99904 3.92901 3.92901C2.99904 4.85656 2.26154 5.95875 1.75889 7.17222C1.25623 8.3857 0.998334 9.68655 1.00001 11C0.998307 12.3135 1.25619 13.6143 1.75885 14.8278C2.26151 16.0413 2.99902 17.1435 3.92901 18.071C4.85656 19.001 5.95875 19.7385 7.17222 20.2411C8.3857 20.7438 9.68655 21.0017 11 21Z" fill="white"/>
<path fill-rule="evenodd" clip-rule="evenodd" d="M11 7.61684e-06C12.4448 -0.00169499 13.8757 0.282059 15.2105 0.834976C16.5453 1.38788 17.7577 2.19904 18.7781 3.22187C19.8009 4.24228 20.6121 5.45471 21.165 6.78953C21.7179 8.12433 22.0017 9.55522 22 11C22.0017 12.4448 21.718 13.8757 21.165 15.2105C20.6121 16.5453 19.801 17.7577 18.7781 18.7781C17.7577 19.801 16.5453 20.6121 15.2105 21.165C13.8757 21.718 12.4448 22.0017 11 22C9.55521 22.0017 8.12433 21.7179 6.78953 21.165C5.45473 20.6121 4.24231 19.8009 3.22191 18.7781C2.19907 17.7577 1.38789 16.5453 0.834976 15.2105C0.282057 13.8757 -0.00169658 12.4448 7.6312e-06 11C-0.00166333 9.55521 0.282103 8.12433 0.835014 6.78953C1.38793 5.45473 2.19908 4.24231 3.2219 3.2219C4.24231 2.19908 5.45473 1.38793 6.78953 0.835014C8.12433 0.282102 9.55522 -0.00166495 11 7.61684e-06ZM14.4451 2.68273C13.3534 2.23049 12.183 1.99848 11.0013 2.00001H10.9987C9.81703 1.9985 8.64667 2.23053 7.55492 2.68276C6.46316 3.135 5.47154 3.79852 4.63703 4.6352L4.6352 4.63703C3.79852 5.47154 3.135 6.46316 2.68276 7.55492C2.23053 8.64667 1.9985 9.81703 2.00001 10.9987V11.0013C1.99848 12.183 2.23049 13.3534 2.68273 14.4451C3.13496 15.5369 3.79849 16.5285 4.63518 17.363L4.63703 17.3648C5.47154 18.2015 6.46316 18.865 7.55492 19.3173C8.64667 19.7695 9.81703 20.0015 10.9987 20H11.0013C12.183 20.0015 13.3534 19.7695 14.4451 19.3173C15.5369 18.8651 16.5285 18.2015 17.363 17.3648L17.3648 17.363C18.2015 16.5285 18.8651 15.5369 19.3173 14.4451C19.7695 13.3534 20.0015 12.183 20 11.0013V10.9987C20.0015 9.81703 19.7695 8.64667 19.3173 7.55492C18.865 6.46316 18.2015 5.47154 17.3648 4.63703L17.363 4.63518C16.5285 3.79849 15.5369 3.13496 14.4451 2.68273Z" fill="white"/>
<path fill-rule="evenodd" clip-rule="evenodd" d="M16.7071 7.29312C17.0976 7.68365 17.0976 8.31681 16.7071 8.70734L10.7071 14.7073C10.3166 15.0979 9.68342 15.0979 9.29289 14.7073L6.29289 11.7073C5.90237 11.3168 5.90237 10.6836 6.29289 10.2931C6.68342 9.9026 7.31658 9.9026 7.70711 10.2931L10 12.586L15.2929 7.29312C15.6834 6.9026 16.3166 6.9026 16.7071 7.29312Z" fill="black"/>
</mask>
<g mask="url(#mask0_3169_11472)">
<path d="M-1 -0.999512H23V23.0005H-1V-0.999512Z" fill="#C3DBFF"/>
</g>
</svg>
