<svg width="24" height="24" viewBox="0 0 24 24" fill="none" xmlns="http://www.w3.org/2000/svg">
<path d="M22.4062 14.1548C22.4062 16.6163 21.4284 18.977 19.6878 20.7176C17.9473 22.4582 15.5865 23.436 13.125 23.436C11.9062 23.436 10.6993 23.196 9.57322 22.7295C8.44717 22.2631 7.42401 21.5795 6.56217 20.7176C4.82159 18.977 3.84375 16.6163 3.84375 14.1548C3.84375 11.6932 4.82159 9.33252 6.56217 7.59195C8.30274 5.85138 10.6635 4.87354 13.125 4.87354C15.5865 4.87354 17.9473 5.85138 19.6878 7.59195C21.4284 9.33252 22.4062 11.6932 22.4062 14.1548Z" fill="#C3DBFF"/>
<path fill-rule="evenodd" clip-rule="evenodd" d="M22.3596 0.647429C22.4484 0.718602 22.5 0.8262 22.5 0.939945V19.6899C22.5 19.8657 22.3779 20.0179 22.2063 20.056L15.4563 21.556C15.4028 21.5679 15.3472 21.5679 15.2937 21.556L8.625 20.0741L1.95635 21.556C1.84531 21.5807 1.72908 21.5536 1.64035 21.4825C1.55163 21.4113 1.5 21.3037 1.5 21.1899V2.43994C1.5 2.26418 1.62207 2.112 1.79365 2.07387L8.54365 0.573875C8.59723 0.561968 8.65277 0.561968 8.70635 0.573875L15.375 2.0558L22.0437 0.573875C22.1547 0.5492 22.2709 0.576256 22.3596 0.647429ZM2.25 2.74076V20.7225L8.54365 19.3239C8.59723 19.312 8.65277 19.312 8.70635 19.3239L15.375 20.8058L21.75 19.3891V1.40743L15.4563 2.80602C15.4028 2.81792 15.3472 2.81792 15.2937 2.80602L8.625 1.32409L2.25 2.74076Z" fill="#1A1A1A"/>
<path fill-rule="evenodd" clip-rule="evenodd" d="M15.75 2.43994V9.93994H15V2.43994H15.75ZM15.75 12.1899V21.1847H15V12.1899H15.75Z" fill="#1A1A1A"/>
<path fill-rule="evenodd" clip-rule="evenodd" d="M4.23862 16.4287C4.38507 16.2822 4.6225 16.2822 4.76895 16.4287L5.25003 16.9098L5.73112 16.4287C5.87757 16.2822 6.115 16.2822 6.26145 16.4287C6.4079 16.5751 6.4079 16.8126 6.26145 16.959L5.78036 17.4401L6.26145 17.9212C6.4079 18.0676 6.4079 18.3051 6.26145 18.4515C6.115 18.598 5.87757 18.598 5.73112 18.4515L5.25003 17.9704L4.76895 18.4515C4.6225 18.598 4.38507 18.598 4.23862 18.4515C4.09217 18.3051 4.09217 18.0676 4.23862 17.9212L4.7197 17.4401L4.23862 16.959C4.09217 16.8126 4.09217 16.5751 4.23862 16.4287Z" fill="#1A1A1A"/>
<path fill-rule="evenodd" clip-rule="evenodd" d="M18.375 8.81494V6.56494H19.125V8.81494C19.125 9.51113 18.8484 10.1788 18.3562 10.6711C17.8639 11.1634 17.1962 11.4399 16.5 11.4399H7.5C7.00272 11.4399 6.52581 11.6375 6.17417 11.9891C5.82254 12.3407 5.625 12.8177 5.625 13.3149V15.5649H4.875V13.3149C4.875 12.6187 5.15156 11.9511 5.64384 11.4588C6.13613 10.9665 6.80381 10.6899 7.5 10.6899H16.5C16.9973 10.6899 17.4742 10.4924 17.8258 10.1408C18.1775 9.78914 18.375 9.31222 18.375 8.81494Z" fill="#1A1A1A"/>
<path fill-rule="evenodd" clip-rule="evenodd" d="M12.375 1.68994V4.31494C12.375 5.40896 12.8096 6.45817 13.5832 7.23176C14.3568 8.00534 15.406 8.43994 16.5 8.43994H22.125V9.18994H16.5C15.2071 9.18994 13.9671 8.67633 13.0529 7.76209C12.1386 6.84785 11.625 5.60787 11.625 4.31494V1.68994H12.375ZM7.6875 13.6899H2.0625V12.9399H7.6875C8.98043 12.9399 10.2204 13.4536 11.1346 14.3678C12.0489 15.282 12.5625 16.522 12.5625 17.8149V20.4399H11.8125V17.8149C11.8125 16.7209 11.3779 15.6717 10.6043 14.8981C9.83073 14.1245 8.78152 13.6899 7.6875 13.6899Z" fill="#1A1A1A"/>
<path fill-rule="evenodd" clip-rule="evenodd" d="M8.25 9.94006V0.945312H9V9.94006H8.25ZM8.25 19.6901V12.1901H9V19.6901H8.25Z" fill="#1A1A1A"/>
</svg>
