<svg width="40" height="40" viewBox="0 0 40 40" fill="none" xmlns="http://www.w3.org/2000/svg">
<path d="M18.7325 17.9889C22.6966 17.9889 25.9102 14.7753 25.9102 10.8111C25.9102 6.84693 22.6966 3.63333 18.7325 3.63333C14.7683 3.63333 11.5547 6.84693 11.5547 10.8111C11.5547 14.7753 14.7683 17.9889 18.7325 17.9889Z" fill="#C3DBFF"/>
<path d="M23.332 31.1111H31.1098V32.6667H23.332V31.1111Z" fill="#C3DBFF"/>
<path d="M16.6665 33.3333V36.6667C16.6665 36.9614 16.7836 37.244 16.9919 37.4523C17.2003 37.6607 17.4829 37.7778 17.7776 37.7778H36.6665C36.9612 37.7778 37.2438 37.6607 37.4522 37.4523C37.6606 37.244 37.7776 36.9614 37.7776 36.6667V25.5556C37.7776 25.2609 37.6606 24.9783 37.4522 24.7699C37.2438 24.5615 36.9612 24.4444 36.6665 24.4444H28.8887V22.8111C28.8887 22.5164 28.7717 22.2338 28.5633 22.0254C28.3549 21.8171 28.0723 21.7 27.7776 21.7C27.4829 21.7 27.2003 21.8171 26.9919 22.0254C26.7836 22.2338 26.6665 22.5164 26.6665 22.8111V24.4444H24.4443V20.4667C22.5562 20.1583 20.6463 20.0022 18.7332 20C14.5141 19.9821 10.3422 20.8885 6.51096 22.6556C5.88038 22.9531 5.34841 23.4254 4.97815 24.0162C4.6079 24.607 4.4149 25.2917 4.42207 25.9889V33.3333H16.6665ZM35.5554 35.5556H18.8887V26.6667H26.6665V27.1333C26.6665 27.428 26.7836 27.7106 26.9919 27.919C27.2003 28.1274 27.4829 28.2444 27.7776 28.2444C28.0723 28.2444 28.3549 28.1274 28.5633 27.919C28.7717 27.7106 28.8887 27.428 28.8887 27.1333V26.6667H35.5554V35.5556Z" fill="#C3DBFF"/>
</svg>
