<svg width="41" height="40" viewBox="0 0 41 40" fill="none" xmlns="http://www.w3.org/2000/svg">
<g clip-path="url(#clip0_3169_11488)">
<path d="M35.5 30.1145C32.7386 30.1145 30.5 32.353 30.5 35.1145C30.5 32.353 28.2614 30.1145 25.5 30.1145C22.7386 30.1145 20.5 32.353 20.5 35.1145C20.5 32.353 18.2614 30.1145 15.5 30.1145C12.7386 30.1145 10.5 32.353 10.5 35.1145C10.5 32.353 8.26141 30.1145 5.5 30.1145C2.73859 30.1145 0.5 32.353 0.5 35.1145V40H40.5V35.1145C40.5 32.353 38.2614 30.1145 35.5 30.1145ZM31.2905 4.90492L21.6719 8.49695V11.6703L31.2905 8.07828V4.90492ZM21.6719 20.886L31.2905 17.294V10.5802L21.6719 14.1722V20.886ZM19.3281 8.49695L9.70945 4.90492V8.07828L19.3281 11.6703V8.49695ZM29.1127 3.21633L20.5 0L11.8873 3.21633L20.5 6.43273L29.1127 3.21633ZM19.3281 14.1722L9.70945 10.5802V17.294L19.3281 20.886V14.1722Z" fill="#C3DBFF"/>
<path d="M5.5 30.1145C7.11802 30.1145 8.42969 28.8028 8.42969 27.1848C8.42969 25.5667 7.11802 24.2551 5.5 24.2551C3.88198 24.2551 2.57031 25.5667 2.57031 27.1848C2.57031 28.8028 3.88198 30.1145 5.5 30.1145Z" fill="#C3DBFF"/>
<path d="M15.5 30.1145C17.118 30.1145 18.4297 28.8028 18.4297 27.1848C18.4297 25.5667 17.118 24.2551 15.5 24.2551C13.882 24.2551 12.5703 25.5667 12.5703 27.1848C12.5703 28.8028 13.882 30.1145 15.5 30.1145Z" fill="#C3DBFF"/>
<path d="M25.5 30.1145C27.118 30.1145 28.4297 28.8028 28.4297 27.1848C28.4297 25.5667 27.118 24.2551 25.5 24.2551C23.882 24.2551 22.5703 25.5667 22.5703 27.1848C22.5703 28.8028 23.882 30.1145 25.5 30.1145Z" fill="#C3DBFF"/>
<path d="M35.5 30.1145C37.118 30.1145 38.4297 28.8028 38.4297 27.1848C38.4297 25.5667 37.118 24.2551 35.5 24.2551C33.882 24.2551 32.5703 25.5667 32.5703 27.1848C32.5703 28.8028 33.882 30.1145 35.5 30.1145Z" fill="#C3DBFF"/>
</g>
<defs>
<clipPath id="clip0_3169_11488">
<rect width="40" height="40" fill="white" transform="translate(0.5)"/>
</clipPath>
</defs>
</svg>
