<svg width="40" height="40" viewBox="0 0 40 40" fill="none" xmlns="http://www.w3.org/2000/svg">
<path d="M19.9975 2.49911C15.8732 2.49911 12.5001 5.87221 12.5001 9.99646C12.5001 14.1207 15.8732 17.4985 19.9975 17.4985C24.1265 17.4985 27.4996 14.1254 27.4996 9.99646C27.4996 5.86749 24.1265 2.49911 19.9975 2.49911ZM17.4984 19.9976C14.5155 19.9989 11.6552 21.1844 9.54596 23.2936C7.43675 25.4028 6.25125 28.2631 6.25 31.246V37.4962H33.745V31.246C33.7437 28.264 32.5589 25.4043 30.4507 23.2953C28.3425 21.1862 25.4834 20.0001 22.5013 19.9976C22.3113 19.9977 22.1237 20.0411 21.9529 20.1245C21.7821 20.2079 21.6325 20.3291 21.5155 20.4789C21.3985 20.6287 21.3171 20.8031 21.2775 20.9891C21.238 21.175 21.2413 21.3675 21.2872 21.5519L23.6162 30.8634L19.9975 34.4774L16.3835 30.8634L18.7125 21.5519C18.7592 21.3671 18.7632 21.1741 18.724 20.9876C18.6849 20.8011 18.6037 20.626 18.4865 20.4756C18.3694 20.3252 18.2196 20.2036 18.0483 20.1199C17.8771 20.0363 17.689 19.9976 17.4984 19.9976Z" fill="#C3DBFF"/>
</svg>
