<svg width="28" height="32" viewBox="0 0 28 32" fill="none" xmlns="http://www.w3.org/2000/svg">
<g clip-path="url(#clip0_3169_11503)">
<path d="M13.7051 0.0312531C13.8989 -0.00624695 14.0989 -0.00624695 14.2926 0.0312531L26.7926 2.53125C27.4926 2.66875 27.9989 3.2875 27.9989 4C27.9989 4.7125 27.4926 5.33125 26.7926 5.46875L21.9989 6.43125V10C21.9989 14.4188 18.4176 18 13.9989 18C9.58013 18 5.99888 14.4188 5.99888 10V6.43125L2.99888 5.83125V9.9L3.98013 14.8C4.03638 15.0938 3.96138 15.4 3.77388 15.6313C3.58638 15.8625 3.29888 16 2.99888 16H0.998876C0.698876 16 0.417626 15.8688 0.223876 15.6313C0.030126 15.3938 -0.044874 15.0938 0.017626 14.8L0.998876 9.9V5.4125C0.405126 5.20625 -0.00112404 4.64375 -0.00112404 4C-0.00112404 3.2875 0.505126 2.66875 1.20513 2.53125L13.7051 0.0312531ZM6.99263 20.4813C7.64888 20.2688 8.35513 20.5063 8.83013 21.0125L13.2676 25.7313C13.6614 26.15 14.3301 26.15 14.7239 25.7313L19.1614 21.0125C19.6364 20.5063 20.3426 20.2688 20.9989 20.4813C25.0614 21.7875 27.9989 25.5875 27.9989 30.0813C27.9989 31.1438 27.1364 32 26.0801 32H1.91763C0.861376 32 -0.00112404 31.1375 -0.00112404 30.0813C-0.00112404 25.5875 2.93638 21.7875 6.99263 20.4813Z" fill="#C3DBFF"/>
</g>
<defs>
<clipPath id="clip0_3169_11503">
<rect width="28" height="32" fill="white"/>
</clipPath>
</defs>
</svg>
