<svg width="20" height="20" viewBox="0 0 20 20" fill="none" xmlns="http://www.w3.org/2000/svg">
<g clip-path="url(#clip0_604_42255)">
<path d="M10 0C4.48333 0 0 4.48333 0 10C0 15.5167 4.48333 20 10 20C10.625 20 11.2333 19.9417 11.8333 19.8333L11.15 17.7833C11.05 17.8833 10.9417 17.9667 10.8333 18.0417V16.825L9.28333 12.1833C9.2 11.9417 9.16667 11.6917 9.16667 11.45V13.1417C8.375 13.175 7.6 13.2417 6.86667 13.3667C6.71667 12.5833 6.61667 11.7333 6.575 10.8167H9.16667V11.45C9.16667 10.8583 9.4 10.2833 9.84167 9.84167C10.2667 9.40833 10.8417 9.16667 11.4583 9.16667C11.7083 9.16667 11.95 9.20833 12.1917 9.28333L16.7833 10.8167H18.2917C18.275 10.9833 18.2583 11.1417 18.225 11.3L19.8333 11.8333C19.9417 11.2333 20 10.625 20 10C20 4.48333 15.5167 0 10 0ZM9.16667 14.8083V18.0417C8.45 17.5583 7.76667 16.4917 7.28333 14.9833C7.89167 14.8917 8.51667 14.8333 9.16667 14.8083ZM3 5.49167C3.66667 5.80833 4.41667 6.075 5.23333 6.29167C5.05833 7.18333 4.95 8.14167 4.90833 9.15H1.70833C1.84167 7.81667 2.30833 6.575 3 5.49167ZM1.70833 10.8167H4.90833C4.95 11.8417 5.05833 12.8083 5.23333 13.7083C4.41667 13.925 3.66667 14.1917 3 14.5083C2.28155 13.3982 1.8387 12.1325 1.70833 10.8167ZM6.61667 17.6083C5.667 17.1862 4.80488 16.5898 4.075 15.85C4.55 15.6417 5.075 15.4667 5.63333 15.325C5.9 16.1833 6.23333 16.9583 6.61667 17.6083ZM5.63333 4.675C5.075 4.53333 4.55 4.35833 4.075 4.15C4.8 3.41667 5.65833 2.81667 6.61667 2.39167C6.23333 3.04167 5.9 3.81667 5.63333 4.675ZM9.16667 9.15H6.575C6.61667 8.25 6.71667 7.40833 6.86667 6.63333C7.6 6.75833 8.375 6.825 9.16667 6.85833V9.15ZM9.16667 5.19167C8.51667 5.16667 7.89167 5.10833 7.28333 5.01667C7.76667 3.50833 8.45 2.44167 9.16667 1.95833V5.19167ZM10.8333 1.95833C11.55 2.44167 12.2333 3.50833 12.7167 5.01667C12.1083 5.10833 11.4833 5.16667 10.8333 5.19167V1.95833ZM10.8333 9.15V6.85833C11.625 6.825 12.4 6.75833 13.1333 6.63333C13.2833 7.40833 13.3833 8.25 13.425 9.15H10.8333ZM13.3833 2.39167C14.3417 2.81667 15.2 3.41667 15.925 4.15C15.45 4.35833 14.925 4.53333 14.3667 4.675C14.1 3.81667 13.7667 3.04167 13.3833 2.39167ZM15.0917 9.15C15.05 8.14167 14.9417 7.18333 14.7667 6.29167C15.5833 6.075 16.3333 5.80833 17 5.49167C17.6917 6.575 18.1583 7.81667 18.2917 9.15H15.0917Z" fill="#C3DBFF"/>
<path d="M14.0976 20.0002H14.0834C13.9547 19.9973 13.8301 19.9547 13.7265 19.8781C13.623 19.8016 13.5456 19.6949 13.5051 19.5727L10.8659 11.656C10.8291 11.5459 10.8238 11.4277 10.8504 11.3146C10.8771 11.2016 10.9347 11.0982 11.0168 11.0161C11.0989 10.9339 11.2023 10.8763 11.3153 10.8497C11.4284 10.823 11.5466 10.8284 11.6568 10.8652L19.5734 13.5044C19.6954 13.5452 19.8019 13.6227 19.8782 13.7262C19.9546 13.8297 19.9971 13.9543 20 14.0829C20.0029 14.2115 19.9661 14.3379 19.8945 14.4448C19.8229 14.5517 19.7201 14.6339 19.6001 14.6802L16.0476 16.0469L14.6809 19.5994C14.6356 19.7173 14.5556 19.8188 14.4515 19.8903C14.3473 19.9619 14.224 20.0002 14.0976 20.0002Z" fill="#C3DBFF"/>
</g>
<defs>
<clipPath id="clip0_604_42255">
<rect width="20" height="20" fill="white"/>
</clipPath>
</defs>
</svg>
