<svg width="24" height="24" viewBox="0 0 24 24" fill="none" xmlns="http://www.w3.org/2000/svg">
<path d="M21.8547 11.9998C21.8545 14.4612 20.8766 16.8217 19.1361 18.5621C17.3955 20.3025 15.0349 21.2803 12.5735 21.2803C10.1121 21.2803 7.75147 20.3025 6.01092 18.5621C4.27037 16.8217 3.29244 14.4612 3.29224 11.9998C3.29214 10.7809 3.53213 9.5739 3.99851 8.44776C4.4649 7.32162 5.14853 6.29838 6.01039 5.43645C6.87224 4.57453 7.89543 3.89081 9.02153 3.42434C10.1476 2.95786 11.3546 2.71777 12.5735 2.71777C13.7924 2.71777 14.9993 2.95786 16.1254 3.42434C17.2515 3.89081 18.2747 4.57453 19.1366 5.43645C19.9984 6.29838 20.6821 7.32162 21.1485 8.44776C21.6148 9.5739 21.8548 10.7809 21.8547 11.9998Z" fill="#C3DBFF"/>
<path fill-rule="evenodd" clip-rule="evenodd" d="M7.03523 7.7671C6.37673 7.8121 5.72648 8.0071 5.00273 8.30185C4.78748 8.3911 4.68323 8.5306 4.68323 8.7766V13.6193C4.68323 13.7738 4.75973 13.9643 4.92023 14.0641C4.99395 14.1069 5.0768 14.1317 5.16194 14.1362C5.24708 14.1408 5.3321 14.1251 5.40998 14.0903C5.41554 14.088 5.42104 14.0855 5.42648 14.0828C6.66923 13.4821 7.53623 13.4491 8.85398 13.9733C8.94418 14.0098 9.04503 14.0098 9.13523 13.9733C10.4702 13.4303 11.233 13.5173 12.5732 14.0903C12.712 14.1503 12.904 14.1653 13.0652 14.0656C13.1385 14.0165 13.1984 13.95 13.2399 13.8722C13.2814 13.7944 13.303 13.7075 13.303 13.6193V8.8396C13.303 8.60935 13.2272 8.49235 13.0307 8.3866C11.6537 7.6501 10.4612 7.64335 8.98448 8.10385C8.28698 7.8496 7.65323 7.72735 7.04048 7.7701L7.03523 7.7671ZM7.07273 8.4946C7.62023 8.45485 8.16623 8.5531 8.85248 8.8231C8.93354 8.85496 9.02317 8.85762 9.10598 8.8306C10.486 8.3821 11.3485 8.3986 12.5485 9.0076V13.3193C11.326 12.8506 10.2737 12.7658 8.99348 13.2518C7.72823 12.7793 6.62048 12.8266 5.43098 13.3208V8.95585C6.04598 8.7121 6.56948 8.5321 7.07273 8.4946ZM5.11298 13.4026H5.12048C5.11223 13.4101 5.10473 13.4026 5.09723 13.4101L5.11298 13.4026Z" fill="#1A1A1A"/>
<path fill-rule="evenodd" clip-rule="evenodd" d="M8.98379 8.1729C8.93455 8.17368 8.88594 8.18416 8.84074 8.20373C8.79554 8.2233 8.75464 8.25158 8.72037 8.28696C8.68611 8.32234 8.65915 8.36413 8.64103 8.40993C8.62292 8.45573 8.614 8.50465 8.61479 8.5539V13.3412C8.61479 13.4406 8.6543 13.536 8.72463 13.6063C8.79496 13.6766 8.89034 13.7162 8.98979 13.7162C9.08925 13.7162 9.18463 13.6766 9.25496 13.6063C9.32529 13.536 9.36479 13.4406 9.36479 13.3412V8.5539C9.36561 8.50364 9.3563 8.45374 9.33744 8.40714C9.31858 8.36055 9.29055 8.31823 9.25501 8.28269C9.21947 8.24714 9.17714 8.21911 9.13055 8.20025C9.08396 8.18139 9.03405 8.17209 8.98379 8.1729Z" fill="#1A1A1A"/>
<path d="M2.896 1.125C2.48725 1.125 2.146 1.46475 2.146 1.87425V22.125C2.146 22.5338 2.48725 22.875 2.896 22.875H14.896C15.3055 22.875 15.646 22.5338 15.646 22.125V1.87425C15.646 1.46475 15.3047 1.12575 14.896 1.12575L2.896 1.125ZM2.896 1.875H14.896V22.125H2.896V1.875Z" fill="#1A1A1A"/>
<path fill-rule="evenodd" clip-rule="evenodd" d="M8.521 2.99902C8.42154 2.99902 8.32616 3.03853 8.25583 3.10886C8.1855 3.17918 8.146 3.27457 8.146 3.37402C8.146 3.47348 8.1855 3.56886 8.25583 3.63919C8.32616 3.70951 8.42154 3.74902 8.521 3.74902H10.765C10.8645 3.74902 10.9598 3.70951 11.0302 3.63919C11.1005 3.56886 11.14 3.47348 11.14 3.37402C11.14 3.27457 11.1005 3.17918 11.0302 3.10886C10.9598 3.03853 10.8645 2.99902 10.765 2.99902H8.521Z" fill="#1A1A1A"/>
<path d="M8.896 19.124C8.2795 19.124 7.771 19.6318 7.771 20.249C7.771 20.8663 8.2795 21.374 8.896 21.374C9.5125 21.374 10.021 20.8655 10.021 20.249C10.021 19.6325 9.51325 19.124 8.896 19.124ZM8.896 19.874C9.1075 19.874 9.271 20.0368 9.271 20.249C9.271 20.4613 9.1075 20.624 8.896 20.624C8.6845 20.624 8.521 20.4605 8.521 20.249C8.521 20.0375 8.6845 19.874 8.896 19.874Z" fill="#1A1A1A"/>
<path fill-rule="evenodd" clip-rule="evenodd" d="M4.02551 17.624C3.92606 17.624 3.83067 17.6635 3.76035 17.7339C3.69002 17.8042 3.65051 17.8996 3.65051 17.999C3.65051 18.0985 3.69002 18.1939 3.76035 18.2642C3.83067 18.3345 3.92606 18.374 4.02551 18.374H13.765C13.8645 18.374 13.9599 18.3345 14.0302 18.2642C14.1005 18.1939 14.14 18.0985 14.14 17.999C14.14 17.8996 14.1005 17.8042 14.0302 17.7339C13.9599 17.6635 13.8645 17.624 13.765 17.624H4.02551Z" fill="#1A1A1A"/>
<path d="M7.39526 3.375C7.39526 3.47446 7.35576 3.56984 7.28543 3.64016C7.2151 3.71049 7.11972 3.75 7.02026 3.75C6.92081 3.75 6.82543 3.71049 6.7551 3.64016C6.68477 3.56984 6.64526 3.47446 6.64526 3.375C6.64526 3.27554 6.68477 3.18016 6.7551 3.10984C6.82543 3.03951 6.92081 3 7.02026 3C7.11972 3 7.2151 3.03951 7.28543 3.10984C7.35576 3.18016 7.39526 3.27554 7.39526 3.375Z" fill="#1A1A1A"/>
</svg>
