<svg width="18" height="20" viewBox="0 0 18 20" fill="none" xmlns="http://www.w3.org/2000/svg">
<path d="M9 15.6636C7.99397 15.6325 6.98661 14.7587 5.97925 14.2651C5.58161 14.0703 5.18264 13.8782 4.785 13.6848C4.73994 13.7673 4.69487 13.8498 4.6498 13.9323C5.85201 14.6343 7.05288 15.3349 8.34654 16.091C8.10928 16.256 7.96083 16.3858 7.78984 16.4724C6.12505 17.3191 4.46291 18.1739 2.78619 18.9962C1.60255 19.5764 0.809917 19.0841 0.807266 17.7694C0.800639 14.4896 0.801964 11.2084 0.825823 7.92849C0.836426 6.42854 1.51772 5.28431 2.77824 4.52689C4.66704 3.39213 6.57969 2.30064 8.45921 1.15235C8.65935 1.02927 8.83166 0.976522 9 0.976522V0C8.7919 0 8.57982 0.0716837 8.33329 0.224519C6.43124 1.39716 4.50003 2.5184 2.56882 3.63964C0.843054 4.64186 -0.0078976 6.15127 5.52264e-05 8.16653C0.0133099 11.3558 0.0265641 14.545 0.054399 17.7343C0.0716301 19.6941 1.46072 20.5421 3.1666 19.6386C4.95201 18.6932 6.71754 17.7072 8.51885 16.7956C8.6514 16.728 8.82371 16.6915 9 16.6834V15.6649V15.6636Z" fill="#C3DBFF"/>
<path d="M9 15.6636C10.006 15.6325 11.0134 14.7587 12.0207 14.2651C12.4184 14.0703 12.8174 13.8782 13.215 13.6848C13.2601 13.7673 13.3051 13.8498 13.3502 13.9323C12.148 14.6343 10.9471 15.3349 9.65346 16.091C9.89072 16.256 10.0392 16.3858 10.2102 16.4724C11.8749 17.3191 13.5371 18.1739 15.2138 18.9962C16.3988 19.5764 17.1901 19.0841 17.1927 17.7694C17.1994 14.4896 17.198 11.2084 17.1742 7.92849C17.1636 6.42854 16.4823 5.28431 15.2218 4.52689C13.333 3.39213 11.4203 2.30064 9.54079 1.15235C9.34065 1.02927 9.16833 0.976522 9 0.976522V0C9.2081 0 9.42017 0.0716837 9.66671 0.224519C11.5688 1.39716 13.5013 2.5184 15.4312 3.63964C17.1569 4.64186 18.0079 6.15127 17.9999 8.16653C17.9867 11.3558 17.9734 14.545 17.9456 17.7343C17.9284 19.6941 16.5393 20.5421 14.8334 19.6386C13.048 18.6932 11.2825 17.7072 9.48115 16.7956C9.3486 16.728 9.17629 16.6915 9 16.6834V15.6649V15.6636Z" fill="#C3DBFF"/>
</svg>
