<svg width="16" height="16" viewBox="0 0 16 16" fill="none" xmlns="http://www.w3.org/2000/svg">
<path d="M14.4517 14.7096H14.7097L15.0736 15.5831C15.0932 15.6301 15.1263 15.6703 15.1687 15.6985C15.211 15.7268 15.2609 15.7419 15.3118 15.7419H15.742C15.8105 15.7419 15.8761 15.7147 15.9245 15.6663C15.9729 15.6179 16.0001 15.5523 16.0001 15.4838V13.6774H14.4517V14.7096H14.4517ZM15.742 12.129H14.4517V13.1612H16V12.3871C16 12.3532 15.9934 12.3196 15.9804 12.2883C15.9674 12.257 15.9484 12.2285 15.9245 12.2046C15.9005 12.1806 15.872 12.1616 15.8407 12.1486C15.8094 12.1357 15.7759 12.129 15.742 12.129Z" fill="#02ABA7"/>
<path d="M9.54835 1.80645C9.69088 1.80645 9.80642 1.69091 9.80642 1.54838C9.80642 1.40586 9.69088 1.29031 9.54835 1.29031C9.40582 1.29031 9.29028 1.40586 9.29028 1.54838C9.29028 1.69091 9.40582 1.80645 9.54835 1.80645Z" fill="#02ABA7"/>
<path d="M15.4839 8.51611C15.6264 8.51611 15.742 8.40057 15.742 8.25804C15.742 8.11551 15.6264 7.99997 15.4839 7.99997C15.3414 7.99997 15.2258 8.11551 15.2258 8.25804C15.2258 8.40057 15.3414 8.51611 15.4839 8.51611Z" fill="#02ABA7"/>
<path d="M1.29032 7.48386C1.29032 7.41542 1.26313 7.34978 1.21473 7.30138C1.16633 7.25298 1.10069 7.22579 1.03225 7.22579C0.963805 7.22579 0.898164 7.25298 0.849766 7.30138C0.801369 7.34978 0.774179 7.41542 0.774179 7.48386V7.74193C0.774179 7.81038 0.801369 7.87602 0.849766 7.92442C0.898164 7.97281 0.963805 8 1.03225 8C1.10069 8 1.16633 7.97281 1.21473 7.92442C1.26313 7.87602 1.29032 7.81038 1.29032 7.74193V7.48386ZM1.03225 8.51611C0.963805 8.51611 0.898164 8.5433 0.849766 8.5917C0.801369 8.6401 0.774179 8.70574 0.774179 8.77418V9.03225C0.774179 9.1007 0.801369 9.16634 0.849766 9.21473C0.898164 9.26313 0.963805 9.29032 1.03225 9.29032C1.10069 9.29032 1.16633 9.26313 1.21473 9.21473C1.26313 9.16634 1.29032 9.1007 1.29032 9.03225V8.77418C1.29032 8.74029 1.28365 8.70673 1.27068 8.67542C1.25772 8.6441 1.23871 8.61565 1.21474 8.59169C1.19078 8.56772 1.16233 8.54872 1.13101 8.53575C1.0997 8.52278 1.06614 8.51611 1.03225 8.51611ZM0.25807 8.51611H0.51614C0.584584 8.51611 0.650225 8.48892 0.698623 8.44052C0.74702 8.39213 0.77421 8.32649 0.77421 8.25804C0.77421 8.1896 0.74702 8.12396 0.698623 8.07556C0.650225 8.02716 0.584584 7.99997 0.51614 7.99997H0.25807C0.189626 7.99997 0.123984 8.02716 0.0755869 8.07556C0.0271894 8.12396 0 8.1896 0 8.25804C0 8.32649 0.0271894 8.39213 0.0755869 8.44052C0.123984 8.48892 0.189626 8.51611 0.25807 8.51611ZM2.06453 8.25804C2.06453 8.1896 2.03734 8.12396 1.98894 8.07556C1.94054 8.02716 1.8749 7.99997 1.80646 7.99997H1.54839C1.47994 7.99997 1.4143 8.02716 1.36591 8.07556C1.31751 8.12396 1.29032 8.1896 1.29032 8.25804C1.29032 8.32649 1.31751 8.39213 1.36591 8.44052C1.4143 8.48892 1.47994 8.51611 1.54839 8.51611H1.80646C1.8749 8.51611 1.94054 8.48892 1.98894 8.44052C2.03734 8.39213 2.06453 8.32649 2.06453 8.25804ZM2.83871 5.93547C4.40648 5.93547 5.67742 4.66454 5.67742 3.09677C5.17519 4.16166 3.9048 4.61779 2.8399 4.11556C1.775 3.61333 1.31887 2.34291 1.8211 1.27802C1.92574 1.05617 2.06786 0.854049 2.24122 0.680531C2.41477 0.506583 2.61686 0.363678 2.83871 0.258026C1.27094 0.258057 0 1.52899 0 3.09677C0 4.66454 1.27094 5.93547 2.83871 5.93547Z" fill="#02ABA7"/>
<path d="M3.29032 2.12747L3.1533 2.96774L3.87096 2.5711L4.58864 2.96774L4.4516 2.12747L5.03224 1.53237L4.22994 1.40981L3.87096 0.645172L3.51201 1.40981L2.70967 1.53237L3.29032 2.12747ZM14.4516 1.54839C14.5201 1.54839 14.5857 1.5212 14.6341 1.4728C14.6825 1.4244 14.7097 1.35876 14.7097 1.29032V1.03225C14.7097 0.963802 14.6825 0.898161 14.6341 0.849763C14.5857 0.801366 14.5201 0.774177 14.4516 0.774177C14.3832 0.774177 14.3175 0.801366 14.2691 0.849763C14.2207 0.898161 14.1935 0.963802 14.1935 1.03225V1.29032C14.1935 1.35876 14.2207 1.4244 14.2691 1.4728C14.3175 1.5212 14.3832 1.54839 14.4516 1.54839ZM14.7096 2.58064V2.32257C14.7096 2.25412 14.6825 2.18848 14.6341 2.14008C14.5857 2.09169 14.52 2.0645 14.4516 2.0645C14.3831 2.0645 14.3175 2.09169 14.2691 2.14008C14.2207 2.18848 14.1935 2.25412 14.1935 2.32257V2.58064C14.1935 2.64908 14.2207 2.71472 14.2691 2.76312C14.3175 2.81152 14.3831 2.83871 14.4516 2.83871C14.52 2.83871 14.5857 2.81152 14.6341 2.76312C14.6825 2.71472 14.7096 2.64908 14.7096 2.58064ZM13.9355 1.54839H13.6774C13.609 1.54839 13.5433 1.57558 13.4949 1.62397C13.4465 1.67237 13.4193 1.73801 13.4193 1.80646C13.4193 1.8749 13.4465 1.94054 13.4949 1.98894C13.5433 2.03734 13.609 2.06453 13.6774 2.06453H13.9355C14.0039 2.06453 14.0696 2.03734 14.118 1.98894C14.1664 1.94054 14.1935 1.8749 14.1935 1.80646C14.1935 1.73801 14.1664 1.67237 14.118 1.62397C14.0696 1.57558 14.0039 1.54839 13.9355 1.54839ZM14.9677 2.0645H15.2258C15.2942 2.0645 15.3599 2.03731 15.4083 1.98891C15.4567 1.94051 15.4839 1.87487 15.4839 1.80643C15.4839 1.73798 15.4567 1.67234 15.4083 1.62394C15.3599 1.57555 15.2942 1.54836 15.2258 1.54836H14.9677C14.8993 1.54836 14.8336 1.57555 14.7852 1.62394C14.7368 1.67234 14.7096 1.73798 14.7096 1.80643C14.7096 1.87487 14.7368 1.94051 14.7852 1.98891C14.8336 2.03731 14.8993 2.0645 14.9677 2.0645ZM9.80644 4.12902C9.80644 4.19747 9.83363 4.26311 9.88203 4.31151C9.93043 4.35991 9.99607 4.38709 10.0645 4.38709C10.133 4.38709 10.1986 4.35991 10.247 4.31151C10.2954 4.26311 10.3226 4.19747 10.3226 4.12902V3.87095C10.3226 3.80251 10.2954 3.73687 10.247 3.68847C10.1986 3.64007 10.133 3.61288 10.0645 3.61288C9.99607 3.61288 9.93043 3.64007 9.88203 3.68847C9.83363 3.73687 9.80644 3.80251 9.80644 3.87095V4.12902ZM10.0645 4.9032C9.99607 4.9032 9.93043 4.93039 9.88203 4.97879C9.83363 5.02719 9.80644 5.09283 9.80644 5.16127V5.41934C9.80644 5.48779 9.83363 5.55343 9.88203 5.60183C9.93043 5.65022 9.99607 5.67741 10.0645 5.67741C10.133 5.67741 10.1986 5.65022 10.247 5.60183C10.2954 5.55343 10.3226 5.48779 10.3226 5.41934V5.16127C10.3226 5.12738 10.3159 5.09383 10.3029 5.06252C10.29 5.0312 10.271 5.00276 10.247 4.97879C10.223 4.95483 10.1946 4.93582 10.1633 4.92285C10.132 4.90988 10.0984 4.9032 10.0645 4.9032ZM9.2903 4.9032H9.54837C9.61682 4.9032 9.68246 4.87602 9.73086 4.82762C9.77925 4.77922 9.80644 4.71358 9.80644 4.64513C9.80644 4.57669 9.77925 4.51105 9.73086 4.46265C9.68246 4.41425 9.61682 4.38706 9.54837 4.38706H9.2903C9.22186 4.38706 9.15622 4.41425 9.10782 4.46265C9.05942 4.51105 9.03223 4.57669 9.03223 4.64513C9.03223 4.71358 9.05942 4.77922 9.10782 4.82762C9.15622 4.87602 9.22186 4.9032 9.2903 4.9032ZM10.5806 4.9032H10.8387C10.9071 4.9032 10.9728 4.87602 11.0212 4.82762C11.0696 4.77922 11.0968 4.71358 11.0968 4.64513C11.0968 4.57669 11.0696 4.51105 11.0212 4.46265C10.9728 4.41425 10.9071 4.38706 10.8387 4.38706H10.5806C10.5122 4.38706 10.4465 4.41425 10.3981 4.46265C10.3497 4.51105 10.3226 4.57669 10.3226 4.64513C10.3226 4.71358 10.3497 4.77922 10.3981 4.82762C10.4465 4.87602 10.5122 4.9032 10.5806 4.9032ZM0 14.0645C0.000458546 14.8907 0.602897 15.5934 1.41935 15.72V12.4091C0.602927 12.5357 0.000519686 13.2383 0 14.0645ZM5.65846 14.7975C5.21688 14.897 4.90321 15.2893 4.90321 15.7419H7.05617L6.02836 14.7142L5.65846 14.7975ZM12.1587 12.9032H13.9355V12.129H12.7669L12.1587 12.9032ZM3.74039 12.5135L3.30211 12.119L3.00641 12.4149C2.9085 12.3969 2.80919 12.3876 2.70964 12.3871H1.93549V15.742H2.70967C3.63487 15.7432 4.38587 14.9942 4.3871 14.069C4.38741 13.8292 4.33625 13.5922 4.23709 13.3739L4.56718 13.0438C4.26508 12.9123 3.98596 12.7332 3.74039 12.5135Z" fill="#02ABA7"/>
<path d="M12.3984 11.7628C13.3553 10.5449 13.1437 8.78195 11.9259 7.82506C11.4318 7.43683 10.8216 7.22579 10.1932 7.2258H8.17989C6.31525 7.2258 4.59558 8.23154 3.68142 9.85672L2.96838 11.1243L4.0858 12.13C4.41498 12.4259 4.81474 12.6322 5.24666 12.729C5.67857 12.8258 6.12812 12.8099 6.55211 12.6827L6.32647 12.4571C6.12493 12.2557 6.12486 11.929 6.32629 11.7275L6.32647 11.7273L7.42148 10.6325C7.62287 10.431 7.94954 10.4309 8.15106 10.6323L8.1513 10.6325L9.61098 12.0924C10.2157 12.6969 10.2158 13.6772 9.61135 14.2819L9.61098 14.2822L8.83793 15.0551C8.90868 15.2556 9.03978 15.4293 9.21319 15.5522C9.38661 15.6752 9.59385 15.7414 9.80644 15.7419H13.9355V13.4193H11.0968L12.3984 11.7628Z" fill="#02ABA7"/>
<path d="M9.24613 12.4573L7.7863 10.9974L6.69141 12.0922L7.78633 13.1871L6.50891 14.4645L7.6038 15.5594L9.24619 13.9169C9.64919 13.5138 9.64916 12.8604 9.24613 12.4573Z" fill="#02ABA7"/>
</svg>
