<svg width="16" height="16" viewBox="0 0 16 16" fill="none" xmlns="http://www.w3.org/2000/svg">
<path d="M8.13339 0.800018C6.68299 0.800018 5.26516 1.23011 4.0592 2.03591C2.85324 2.84171 1.91331 3.98702 1.35827 5.32701C0.803226 6.667 0.658002 8.14149 0.94096 9.56402C1.22392 10.9865 1.92235 12.2932 2.94794 13.3188C3.97352 14.3444 5.2802 15.0428 6.70272 15.3258C8.12525 15.6087 9.59974 15.4635 10.9397 14.9085C12.2797 14.3534 13.425 13.4135 14.2308 12.2075C15.0366 11.0016 15.4667 9.58375 15.4667 8.13335C15.4644 6.18914 14.6911 4.32521 13.3163 2.95044C11.9415 1.57567 10.0776 0.802312 8.13339 0.800018ZM10.6047 10.6047C10.4797 10.7297 10.3102 10.7999 10.1334 10.7999C9.95661 10.7999 9.78707 10.7297 9.66205 10.6047L7.66205 8.60469C7.53702 8.47969 7.46676 8.31015 7.46672 8.13335V4.13335C7.46672 3.95654 7.53696 3.78697 7.66198 3.66195C7.78701 3.53692 7.95657 3.46669 8.13339 3.46669C8.3102 3.46669 8.47977 3.53692 8.60479 3.66195C8.72981 3.78697 8.80005 3.95654 8.80005 4.13335V7.85735L10.6047 9.66202C10.7297 9.78704 10.7999 9.95658 10.7999 10.1334C10.7999 10.3101 10.7297 10.4797 10.6047 10.6047Z" fill="#02ABA7"/>
</svg>
