<svg width="24" height="24" viewBox="0 0 24 24" fill="none" xmlns="http://www.w3.org/2000/svg">
<g clip-path="url(#clip0_124_8329)">
<path d="M22.0953 12.2707C22.0953 9.88004 21.1456 7.58734 19.4552 5.89692C17.7648 4.2065 15.4721 3.25684 13.0814 3.25684C10.6908 3.25684 8.39813 4.2065 6.70771 5.89692C5.01729 7.58734 4.06763 9.88004 4.06763 12.2707C4.06763 14.6613 5.01729 16.954 6.70771 18.6444C8.39813 20.3348 10.6908 21.2845 13.0814 21.2845C15.4721 21.2845 17.7648 20.3348 19.4552 18.6444C21.1456 16.954 22.0953 14.6613 22.0953 12.2707Z" fill="#C3DBFF"/>
<path d="M7.07213 21.0038C6.67415 21.0053 6.2929 21.164 6.01149 21.4454C5.73008 21.7269 5.57132 22.1081 5.56982 22.5061C5.56982 23.3281 6.24728 24.0084 7.07213 24.0084H19.0906C19.9182 24.0084 20.5929 23.3281 20.5929 22.5061C20.5914 22.1081 20.4326 21.7269 20.1512 21.4454C19.8698 21.164 19.4885 21.0053 19.0906 21.0038H7.07213ZM7.07213 21.7549H19.0906C19.5157 21.7549 19.8417 22.0809 19.8417 22.5061C19.8417 22.9284 19.5129 23.2572 19.0906 23.2572H7.07213C6.97317 23.2584 6.87498 23.2397 6.78333 23.2024C6.69168 23.165 6.60842 23.1098 6.53844 23.0398C6.46846 22.9698 6.41318 22.8865 6.37583 22.7949C6.33849 22.7032 6.31984 22.605 6.32098 22.5061C6.32098 22.0809 6.64978 21.7549 7.07213 21.7549Z" fill="#1A1A1A"/>
<path d="M12.8858 9.02226C12.5173 9.15832 11.9901 9.48712 11.2276 9.986C10.4623 10.482 9.56091 11.1453 8.68788 11.9163C6.93897 13.464 5.26659 15.4453 5.2014 17.557C5.15038 19.0593 5.6039 20.4171 6.41175 21.5849C6.6952 21.9988 7.31596 21.5707 7.02967 21.1597C6.28916 20.1172 5.9108 18.8606 5.95255 17.5826C6.00641 15.8677 7.50304 13.9657 9.18392 12.4804C10.0258 11.7349 10.9045 11.0915 11.6386 10.6124C12.0993 10.2912 12.5835 10.005 13.0871 9.7564C13.1353 9.77341 13.2742 9.80175 13.3705 9.84994C13.5803 9.95482 13.8722 10.1249 14.2124 10.3517C14.8927 10.8052 15.7657 11.4685 16.6302 12.2565C18.3593 13.8296 20.0288 15.913 20.1932 17.6081C20.3208 18.9318 19.9835 20.0458 19.2437 21.103C18.9177 21.5169 19.5782 21.9817 19.8588 21.5311C20.6836 20.3519 21.0861 19.0537 20.9387 17.5344C20.7375 15.4425 18.9262 13.3307 17.1348 11.7037C16.3479 10.9848 15.5095 10.3245 14.6262 9.72806C14.3304 9.52736 14.0228 9.34467 13.705 9.18099C13.5803 9.1158 13.4017 9.06761 13.294 9.0336C13.1863 9.00242 13.0927 8.94856 12.8858 9.02226Z" fill="#1A1A1A"/>
<path fill-rule="evenodd" clip-rule="evenodd" d="M7.44912 23.2573C6.95165 23.2588 6.47494 23.4569 6.1229 23.8084C5.77087 24.1599 5.57207 24.6363 5.56982 25.1338C5.56982 25.2338 5.60954 25.3297 5.68024 25.4004C5.75094 25.4711 5.84683 25.5108 5.94682 25.5108H20.2187C20.3182 25.51 20.4134 25.47 20.4834 25.3994C20.5535 25.3287 20.5929 25.2333 20.5929 25.1338C20.5914 24.6366 20.3932 24.1602 20.0416 23.8086C19.69 23.457 19.2136 23.2588 18.7164 23.2573H18.3394V24.0085H18.7164C19.1954 24.0085 19.5242 24.3401 19.6886 24.7596H6.47688C6.64128 24.3401 6.97008 24.0085 7.44912 24.0085H7.82328V23.2573H7.44912Z" fill="#1A1A1A"/>
<path d="M12.3331 4.47852C12.2489 4.47829 12.1671 4.50622 12.1006 4.55788C11.8462 4.75311 11.6364 5.00046 11.4853 5.28337C11.3342 5.56628 11.2454 5.87821 11.2247 6.19826C11.204 6.51831 11.2519 6.83909 11.3653 7.13911C11.4786 7.43912 11.6548 7.71144 11.882 7.93782C12.1092 8.1642 12.3822 8.3394 12.6826 8.45169C12.983 8.56399 13.304 8.61077 13.6239 8.58892C13.9439 8.56707 14.2555 8.47708 14.5379 8.32499C14.8202 8.1729 15.0668 7.96221 15.2612 7.70705C15.2931 7.6676 15.3167 7.62211 15.3306 7.57332C15.3445 7.52453 15.3484 7.47343 15.3421 7.42309C15.3357 7.37275 15.3193 7.3242 15.2938 7.28035C15.2683 7.2365 15.2342 7.19826 15.1935 7.16791C15.1529 7.13756 15.1065 7.11573 15.0572 7.10372C15.0079 7.09172 14.9567 7.08979 14.9066 7.09805C14.8566 7.10631 14.8087 7.12459 14.7659 7.15179C14.723 7.17899 14.6861 7.21456 14.6574 7.25636C14.5294 7.43083 14.3652 7.57558 14.176 7.68071C13.9869 7.78585 13.7773 7.84888 13.5615 7.8655C13.3458 7.88211 13.129 7.85192 12.926 7.77699C12.723 7.70206 12.5385 7.58416 12.3853 7.43135C12.2321 7.27854 12.1137 7.09444 12.0382 6.89163C11.9627 6.68883 11.932 6.47211 11.948 6.25631C11.964 6.04051 12.0265 5.83072 12.1311 5.6413C12.2357 5.45188 12.3801 5.28729 12.5542 5.15881C12.6178 5.11181 12.6651 5.04597 12.6893 4.97062C12.7134 4.89527 12.7133 4.81423 12.6888 4.73898C12.6644 4.66372 12.6168 4.59807 12.553 4.55132C12.4891 4.50458 12.4122 4.47911 12.3331 4.47852Z" fill="#1A1A1A"/>
<path fill-rule="evenodd" clip-rule="evenodd" d="M12.7073 8.23425V9.35956H13.4584V8.23425H12.7073Z" fill="#1A1A1A"/>
<path d="M4.06756 4.10152C4.06756 4.15102 4.05788 4.20005 4.03908 4.24579C4.02027 4.29153 3.99271 4.33308 3.95797 4.36809C3.92323 4.4031 3.88198 4.43087 3.83658 4.44981C3.79119 4.46876 3.74253 4.47851 3.6934 4.47851C3.64403 4.47889 3.59507 4.46941 3.54934 4.45064C3.50362 4.43186 3.46204 4.40415 3.427 4.36911C3.39195 4.33406 3.36414 4.29237 3.34516 4.24645C3.32618 4.20052 3.3164 4.15127 3.31641 4.10152C3.31677 4.05201 3.32682 4.00306 3.34596 3.95746C3.36511 3.91186 3.39298 3.87051 3.42799 3.83576C3.463 3.80102 3.50445 3.77356 3.54999 3.75496C3.59553 3.73636 3.64426 3.72698 3.6934 3.72736C3.79215 3.72736 3.88689 3.76669 3.95698 3.83677C4.02707 3.90686 4.06682 4.00202 4.06756 4.10152ZM9.32562 5.60382C9.32562 5.70381 9.2862 5.79969 9.21603 5.87039C9.14586 5.94109 9.05069 5.98081 8.95146 5.98081C8.90209 5.98119 8.85313 5.97172 8.8074 5.95294C8.76168 5.93416 8.7201 5.90645 8.68506 5.87141C8.65001 5.83636 8.6222 5.79468 8.60322 5.74875C8.58424 5.70283 8.57447 5.65357 8.57447 5.60382C8.57484 5.55431 8.58488 5.50536 8.60402 5.45976C8.62317 5.41416 8.65104 5.37281 8.68605 5.33807C8.72106 5.30332 8.76251 5.27586 8.80805 5.25726C8.85359 5.23866 8.90232 5.22929 8.95146 5.22966C9.05021 5.22966 9.14495 5.26899 9.21504 5.33908C9.28513 5.40916 9.32488 5.50433 9.32562 5.60382ZM4.81871 10.8619C4.81871 10.9619 4.77929 11.0578 4.70912 11.1285C4.63895 11.1992 4.54378 11.2389 4.44455 11.2389C4.39518 11.2393 4.34622 11.2298 4.3005 11.211C4.25477 11.1922 4.21319 11.1645 4.17815 11.1295C4.1431 11.0944 4.11529 11.0527 4.09631 11.0068C4.07733 10.9609 4.06756 10.9116 4.06756 10.8619C4.06793 10.8124 4.07797 10.7634 4.09711 10.7178C4.11626 10.6722 4.14413 10.6309 4.17914 10.5961C4.21415 10.5614 4.25561 10.5339 4.30114 10.5153C4.34668 10.4967 4.39541 10.4873 4.44455 10.4877C4.5433 10.4877 4.63804 10.527 4.70813 10.5971C4.77822 10.6672 4.81797 10.7624 4.81871 10.8619ZM19.0906 8.23427C19.0898 8.33376 19.0501 8.42892 18.98 8.49901C18.9099 8.5691 18.8152 8.60843 18.7164 8.60843C18.6673 8.6088 18.6186 8.59942 18.573 8.58082C18.5275 8.56222 18.486 8.53477 18.451 8.50002C18.416 8.46528 18.3881 8.42393 18.369 8.37833C18.3498 8.33273 18.3398 8.28378 18.3394 8.23427C18.3394 8.18452 18.3492 8.13526 18.3682 8.08934C18.3872 8.04341 18.415 8.00172 18.45 7.96668C18.4851 7.93163 18.5267 7.90392 18.5724 7.88515C18.6181 7.86637 18.6671 7.8569 18.7164 7.85728C18.8157 7.85728 18.9108 7.89699 18.981 7.96769C19.0512 8.03839 19.0906 8.13428 19.0906 8.23427ZM22.0952 5.60382C22.0952 5.70381 22.0558 5.79969 21.9856 5.87039C21.9154 5.94109 21.8203 5.98081 21.721 5.98081C21.6717 5.98119 21.6227 5.97172 21.577 5.95294C21.5313 5.93416 21.4897 5.90645 21.4546 5.87141C21.4196 5.83636 21.3918 5.79468 21.3728 5.74875C21.3538 5.70283 21.344 5.65357 21.344 5.60382C21.3444 5.55431 21.3545 5.50536 21.3736 5.45976C21.3927 5.41416 21.4206 5.37281 21.4556 5.33807C21.4906 5.30332 21.5321 5.27586 21.5776 5.25726C21.6232 5.23866 21.6719 5.22929 21.721 5.22966C21.8198 5.22966 21.9145 5.26899 21.9846 5.33908C22.0547 5.40916 22.0945 5.50433 22.0952 5.60382ZM19.0906 3.35037C19.0906 3.45035 19.0512 3.54624 18.981 3.61694C18.9108 3.68764 18.8157 3.72736 18.7164 3.72736C18.6671 3.72774 18.6181 3.71826 18.5724 3.69949C18.5267 3.68071 18.4851 3.653 18.45 3.61795C18.415 3.58291 18.3872 3.54122 18.3682 3.4953C18.3492 3.44937 18.3394 3.40011 18.3394 3.35037C18.3398 3.30086 18.3498 3.2519 18.369 3.20631C18.3881 3.16071 18.416 3.11936 18.451 3.08461C18.486 3.04987 18.5275 3.02241 18.573 3.00381C18.6186 2.98521 18.6673 2.97583 18.7164 2.97621C18.8152 2.9762 18.9099 3.01553 18.98 3.08562C19.0501 3.15571 19.0898 3.25087 19.0906 3.35037Z" fill="#1A1A1A"/>
<path fill-rule="evenodd" clip-rule="evenodd" d="M6.31522 6.73193C6.21622 6.73416 6.12208 6.77525 6.05313 6.84633C5.98418 6.9174 5.94596 7.01274 5.94673 7.11176V8.60273C5.9422 8.65479 5.94855 8.70723 5.96537 8.75671C5.98219 8.80619 6.00911 8.85163 6.04442 8.89015C6.07974 8.92867 6.12268 8.95943 6.17052 8.98047C6.21836 9.00151 6.27005 9.01238 6.32231 9.01238C6.37457 9.01238 6.42626 9.00151 6.47409 8.98047C6.52193 8.95943 6.56487 8.92867 6.60019 8.89015C6.6355 8.85163 6.66243 8.80619 6.67924 8.75671C6.69606 8.70723 6.70241 8.65479 6.69788 8.60273V7.1146C6.69826 7.06437 6.68861 7.01457 6.66948 6.96813C6.65035 6.92169 6.62213 6.87954 6.58648 6.84416C6.55083 6.80877 6.50847 6.78087 6.46189 6.76208C6.41531 6.7433 6.36544 6.73118 6.31522 6.73193Z" fill="#1A1A1A"/>
<path fill-rule="evenodd" clip-rule="evenodd" d="M5.57542 7.48311C5.52336 7.47858 5.47092 7.48493 5.42144 7.50174C5.37196 7.51856 5.32652 7.54548 5.288 7.5808C5.24948 7.61612 5.21872 7.65906 5.19768 7.7069C5.17664 7.75473 5.16577 7.80642 5.16577 7.85868C5.16577 7.91094 5.17664 7.96263 5.19768 8.01047C5.21872 8.05831 5.24948 8.10125 5.288 8.13656C5.32652 8.17188 5.37196 8.1988 5.42144 8.21562C5.47092 8.23244 5.52336 8.23879 5.57542 8.23426H7.06639C7.11845 8.23879 7.17089 8.23244 7.22037 8.21562C7.26985 8.1988 7.31529 8.17188 7.35381 8.13656C7.39233 8.10125 7.42309 8.05831 7.44413 8.01047C7.46517 7.96263 7.47604 7.91094 7.47604 7.85868C7.47604 7.80642 7.46517 7.75473 7.44413 7.7069C7.42309 7.65906 7.39233 7.61612 7.35381 7.5808C7.31529 7.54548 7.26985 7.51856 7.22037 7.50174C7.17089 7.48493 7.11845 7.47858 7.06639 7.48311H5.57542ZM21.7124 8.98541C21.6134 8.98764 21.5193 9.02873 21.4503 9.0998C21.3814 9.17087 21.3432 9.26622 21.3439 9.36524V10.8562C21.3394 10.9083 21.3458 10.9607 21.3626 11.0102C21.3794 11.0597 21.4063 11.1051 21.4416 11.1436C21.4769 11.1821 21.5199 11.2129 21.5677 11.2339C21.6156 11.255 21.6673 11.2659 21.7195 11.2659C21.7718 11.2659 21.8235 11.255 21.8713 11.2339C21.9191 11.2129 21.9621 11.1821 21.9974 11.1436C22.0327 11.1051 22.0596 11.0597 22.0765 11.0102C22.0933 10.9607 22.0996 10.9083 22.0951 10.8562V9.36524C22.0955 9.31525 22.0859 9.26569 22.0669 9.21944C22.048 9.17319 22.02 9.13116 21.9847 9.09582C21.9493 9.06047 21.9073 9.03251 21.8611 9.01355C21.8148 8.9946 21.7624 8.98503 21.7124 8.98541Z" fill="#1A1A1A"/>
<path fill-rule="evenodd" clip-rule="evenodd" d="M20.9754 9.73376C20.8754 9.73376 20.7795 9.77348 20.7088 9.84418C20.6381 9.91488 20.5984 10.0108 20.5984 10.1108C20.5984 10.2107 20.6381 10.3066 20.7088 10.3773C20.7795 10.448 20.8754 10.4878 20.9754 10.4878H22.4663C22.5663 10.4878 22.6622 10.448 22.7329 10.3773C22.8036 10.3066 22.8433 10.2107 22.8433 10.1108C22.8433 10.0108 22.8036 9.91488 22.7329 9.84418C22.6622 9.77348 22.5663 9.73376 22.4663 9.73376H20.9754Z" fill="#1A1A1A"/>
</g>
<defs>
<clipPath id="clip0_124_8329">
<rect width="24" height="24" fill="white"/>
</clipPath>
</defs>
</svg>
