<svg width="24" height="25" viewBox="0 0 24 25" fill="none" xmlns="http://www.w3.org/2000/svg">
<path d="M23.1421 12.5022C23.1421 14.9637 22.1642 17.3245 20.4237 19.065C18.6831 20.8056 16.3224 21.7834 13.8608 21.7834C12.642 21.7834 11.4351 21.5434 10.3091 21.077C9.18301 20.6105 8.15985 19.9269 7.29801 19.065C5.55743 17.3245 4.57959 14.9637 4.57959 12.5022C4.57959 10.0407 5.55743 7.67993 7.29801 5.93936C9.03858 4.19879 11.3993 3.22095 13.8608 3.22095C16.3224 3.22095 18.6831 4.19879 20.4237 5.93936C22.1642 7.67993 23.1421 10.0407 23.1421 12.5022Z" fill="#C3DBFF"/>
<path d="M10.2076 2.06371C7.57031 2.35086 5.14023 3.62808 3.40812 5.63747C-0.185881 9.79996 0.043619 16.04 3.93312 19.9272C7.82112 23.8152 14.0611 24.0425 18.2229 20.447C22.3839 16.8522 23.0649 10.646 19.7829 6.23372C19.7543 6.19228 19.7177 6.15702 19.6752 6.13003C19.6327 6.10305 19.5853 6.08489 19.5356 6.07663C19.486 6.06838 19.4352 6.0702 19.3863 6.08199C19.3373 6.09378 19.2913 6.11529 19.2509 6.14525C19.2104 6.17521 19.1764 6.213 19.1509 6.25637C19.1254 6.29975 19.1089 6.34781 19.1023 6.39771C19.0958 6.4476 19.0993 6.49831 19.1128 6.5468C19.1262 6.59529 19.1493 6.64058 19.1806 6.67997C22.2324 10.7825 21.6009 16.538 17.7316 19.88C13.8624 23.222 8.07912 23.012 4.46262 19.397C2.7197 17.6561 1.70067 15.3198 1.61051 12.858C1.52034 10.3963 2.36573 7.99168 3.97662 6.12796C5.58535 4.26259 7.84083 3.07568 10.2893 2.80601C12.7377 2.53634 15.1975 3.20393 17.1736 4.67446C17.2132 4.70391 17.2581 4.72529 17.3059 4.73736C17.3537 4.74943 17.4034 4.75197 17.4522 4.74484C17.501 4.7377 17.5479 4.72102 17.5903 4.69576C17.6326 4.67049 17.6695 4.63713 17.699 4.59759C17.7284 4.55805 17.7498 4.51309 17.7619 4.46528C17.774 4.41748 17.7765 4.36777 17.7694 4.31898C17.7622 4.2702 17.7456 4.22329 17.7203 4.18095C17.695 4.13861 17.6617 4.10166 17.6221 4.07221C15.4941 2.48804 12.8443 1.77024 10.2076 2.06371Z" fill="#1A1A1A"/>
<path fill-rule="evenodd" clip-rule="evenodd" d="M10.9825 2.375V4.625H11.7325V2.375H10.9825ZM10.9825 20.3773V22.6273H11.7325V20.3773H10.9825ZM19.2332 12.1258V12.8757H21.4832V12.1258H19.2332ZM1.23096 12.1258V12.8757H3.48096V12.1258H1.23096ZM10.9825 6.875V12.656L15.0302 16.7037L15.5605 16.1735L11.7325 12.3455V6.875H10.9825Z" fill="#1A1A1A"/>
<path d="M18.0376 5.40344C18.0376 5.30399 18.0771 5.2086 18.1474 5.13828C18.2178 5.06795 18.3131 5.02844 18.4126 5.02844C18.5121 5.02844 18.6074 5.06795 18.6778 5.13828C18.7481 5.2086 18.7876 5.30399 18.7876 5.40344C18.7876 5.5029 18.7481 5.59828 18.6778 5.66861C18.6074 5.73893 18.5121 5.77844 18.4126 5.77844C18.3131 5.77844 18.2178 5.73893 18.1474 5.66861C18.0771 5.59828 18.0376 5.5029 18.0376 5.40344Z" fill="#1A1A1A"/>
</svg>
