<svg width="56" height="56" viewBox="0 0 56 56" fill="none" xmlns="http://www.w3.org/2000/svg">
<g clip-path="url(#clip0_32_16561)">
<path d="M46.8199 24.4319C46.8199 27.2808 46.2587 30.1017 45.1685 32.7337C44.0783 35.3657 42.4804 37.7572 40.4659 39.7716C38.4515 41.7861 36.06 43.384 33.428 44.4742C30.796 45.5644 27.9751 46.1255 25.1262 46.1255C22.2774 46.1247 19.4566 45.5627 16.8249 44.4717C14.1933 43.3807 11.8023 41.782 9.78845 39.767C7.77463 37.7519 6.17741 35.3599 5.08801 32.7276C3.9986 30.0953 3.43834 27.2742 3.43921 24.4253C3.44096 18.6729 5.72731 13.1568 9.79547 9.08986C13.8636 5.02295 19.3805 2.73828 25.1328 2.73828C30.8852 2.74004 36.4014 5.02638 40.4683 9.09454C44.5352 13.1627 46.8199 18.6796 46.8199 24.4319Z" fill="#C3DBFF"/>
<path d="M9.31897 6.93848V8.69116H36.4823C37.4744 8.69116 38.235 9.45838 38.235 10.4439V29.7234C38.235 30.7089 37.4678 31.4761 36.4823 31.4761H9.31897V33.2288H36.4823C38.407 33.2288 39.9877 31.6481 39.9877 29.7234V10.4439C39.9842 9.51524 39.6138 8.62566 38.9571 7.96903C38.3005 7.31239 37.4109 6.94196 36.4823 6.93848H9.31897Z" fill="#1A1A1A"/>
<path d="M39.1147 13.949V15.7017H47.8781V38.4866H34.723C34.4921 38.4893 34.263 38.4458 34.0492 38.3586C33.8353 38.2715 33.641 38.1425 33.4778 37.9792C33.3145 37.8159 33.1855 37.6216 33.0983 37.4078C33.0112 37.1939 32.9677 36.9648 32.9703 36.7339V32.3423H31.2177V36.7273C31.2177 38.652 32.7984 40.2327 34.723 40.2327H48.7445C48.9778 40.2327 49.2016 40.14 49.3665 39.975C49.5315 39.8101 49.6242 39.5863 49.6242 39.353V14.8154C49.6224 14.5833 49.529 14.3612 49.3642 14.1977C49.1994 14.0341 48.9767 13.9424 48.7445 13.9424L39.1147 13.949Z" fill="#1A1A1A"/>
<path d="M35.6357 34.1413C35.5082 34.1477 35.3835 34.1818 35.2705 34.2411C35.1574 34.3005 35.0586 34.3838 34.981 34.4853L34.3064 35.3517C34.2307 35.4424 34.1741 35.5474 34.1399 35.6605C34.1057 35.7735 34.0946 35.8923 34.1074 36.0097C34.1201 36.1272 34.1563 36.2408 34.2139 36.344C34.2715 36.4471 34.3492 36.5376 34.4425 36.61C34.5358 36.6824 34.6428 36.7353 34.757 36.7655C34.8711 36.7957 34.9902 36.8026 35.1072 36.7858C35.2241 36.769 35.3364 36.7288 35.4374 36.6676C35.5385 36.6064 35.6262 36.5255 35.6953 36.4298L36.3633 35.57C36.4691 35.4379 36.5345 35.2781 36.5518 35.1097C36.569 34.9414 36.5374 34.7717 36.4606 34.6209C36.3838 34.4701 36.2651 34.3446 36.1188 34.2596C35.9725 34.1745 35.8048 34.1335 35.6357 34.1413ZM9.29915 4.3126C9.06816 4.31781 8.84849 4.41368 8.68761 4.57952C8.52672 4.74535 8.43755 4.96782 8.43934 5.19887V56.0003C8.42878 56.1218 8.44359 56.2442 8.48283 56.3596C8.52207 56.4751 8.58489 56.5811 8.6673 56.671C8.7497 56.7609 8.8499 56.8326 8.96152 56.8817C9.07314 56.9308 9.19374 56.9562 9.31569 56.9562C9.43763 56.9562 9.55824 56.9308 9.66986 56.8817C9.78148 56.8326 9.88167 56.7609 9.96407 56.671C10.0465 56.5811 10.1093 56.4751 10.1485 56.3596C10.1878 56.2442 10.2026 56.1218 10.192 56.0003V5.20548C10.1938 5.08773 10.1719 4.97083 10.1277 4.86169C10.0835 4.75255 10.0178 4.65341 9.93449 4.57014C9.85122 4.48687 9.75208 4.42117 9.64294 4.37693C9.53381 4.33269 9.4169 4.31082 9.29915 4.3126ZM27.58 13.9557C27.4645 13.9566 27.3503 13.9802 27.2439 14.0252C27.1375 14.0702 27.041 14.1357 26.9599 14.218C26.8789 14.3003 26.8148 14.3978 26.7714 14.5048C26.728 14.6119 26.7061 14.7264 26.707 14.8419V17.7256C26.6964 17.8471 26.7112 17.9694 26.7505 18.0849C26.7897 18.2004 26.8525 18.3064 26.9349 18.3963C27.0173 18.4862 27.1175 18.5579 27.2291 18.607C27.3408 18.6561 27.4614 18.6815 27.5833 18.6815C27.7052 18.6815 27.8259 18.6561 27.9375 18.607C28.0491 18.5579 28.1493 18.4862 28.2317 18.3963C28.3141 18.3064 28.3769 18.2004 28.4162 18.0849C28.4554 17.9694 28.4702 17.8471 28.4597 17.7256V14.8419C28.4614 14.7248 28.4398 14.6084 28.3959 14.4997C28.3521 14.391 28.287 14.2922 28.2044 14.209C28.1219 14.1258 28.0235 14.06 27.9151 14.0153C27.8068 13.9707 27.6906 13.9482 27.5734 13.9491L27.58 13.9557Z" fill="#1A1A1A"/>
<path d="M24.8484 15.9665C24.6365 15.9624 24.4303 16.0349 24.2676 16.1707C24.1049 16.3065 23.9967 16.4965 23.9629 16.7057C23.9291 16.9149 23.972 17.1293 24.0836 17.3094C24.1953 17.4895 24.3682 17.6233 24.5706 17.6861L27.3154 18.5724C27.4276 18.62 27.5486 18.6437 27.6705 18.6421C27.7924 18.6405 27.9126 18.6135 28.0236 18.563C28.1345 18.5124 28.2337 18.4394 28.315 18.3484C28.3962 18.2575 28.4576 18.1506 28.4953 18.0347C28.533 17.9188 28.5462 17.7962 28.5341 17.6749C28.522 17.5536 28.4847 17.4361 28.4248 17.33C28.3648 17.2238 28.2835 17.1313 28.1859 17.0582C28.0882 16.9852 27.9765 16.9332 27.8577 16.9057L25.113 16.0128C25.0277 15.9839 24.9384 15.9683 24.8484 15.9665Z" fill="#1A1A1A"/>
<path d="M27.6064 16.8526C27.4643 16.8509 27.3238 16.8838 27.1971 16.9483C27.0704 17.0128 26.9612 17.107 26.8789 17.223L25.1791 19.5577C25.098 19.6495 25.0369 19.7571 24.9998 19.8739C24.9627 19.9906 24.9504 20.1138 24.9637 20.2356C24.9769 20.3573 25.0155 20.475 25.0768 20.581C25.1382 20.687 25.221 20.779 25.32 20.8512C25.4189 20.9233 25.5319 20.974 25.6516 21C25.7713 21.0259 25.8951 21.0266 26.0151 21.002C26.1351 20.9774 26.2486 20.9279 26.3483 20.8569C26.4481 20.7859 26.532 20.6948 26.5945 20.5895L28.2943 18.2547C28.39 18.1251 28.4484 17.9717 28.4629 17.8112C28.4774 17.6507 28.4475 17.4893 28.3765 17.3446C28.3055 17.1999 28.1962 17.0775 28.0604 16.9908C27.9246 16.904 27.7675 16.8562 27.6064 16.8526Z" fill="#1A1A1A"/>
<path d="M27.5403 16.8528C27.3814 16.861 27.2278 16.9121 27.0957 17.0007C26.9636 17.0894 26.858 17.2121 26.7901 17.356C26.7223 17.4999 26.6947 17.6594 26.7103 17.8177C26.726 17.976 26.7842 18.1271 26.8789 18.2549L28.5787 20.5897C28.6412 20.695 28.7251 20.7861 28.8248 20.8571C28.9246 20.9281 29.0381 20.9776 29.1581 21.0022C29.2781 21.0268 29.4019 21.0261 29.5216 21.0002C29.6413 20.9742 29.7542 20.9235 29.8532 20.8514C29.9522 20.7792 30.035 20.6872 30.0964 20.5812C30.1577 20.4752 30.1963 20.3575 30.2095 20.2358C30.2228 20.114 30.2105 19.9908 30.1734 19.8741C30.1363 19.7573 30.0752 19.6496 29.9941 19.5579L28.2943 17.2232C28.2095 17.1035 28.0961 17.0069 27.9644 16.9422C27.8327 16.8775 27.6869 16.8468 27.5403 16.8528Z" fill="#1A1A1A"/>
<path d="M30.2918 15.953C30.2151 15.9585 30.1395 15.9741 30.0669 15.9992L27.3155 16.8921C27.1967 16.9197 27.085 16.9717 26.9874 17.0447C26.8898 17.1178 26.8084 17.2103 26.7485 17.3165C26.6885 17.4226 26.6513 17.5401 26.6391 17.6614C26.627 17.7827 26.6402 17.9052 26.6779 18.0212C26.7157 18.1371 26.7771 18.244 26.8583 18.3349C26.9395 18.4258 27.0387 18.4989 27.1497 18.5495C27.2606 18.6 27.3809 18.627 27.5028 18.6286C27.6247 18.6302 27.7456 18.6064 27.8578 18.5588L30.6026 17.666C30.8023 17.5987 30.9712 17.4621 31.0786 17.2809C31.186 17.0996 31.2249 16.8859 31.188 16.6785C31.1512 16.471 31.0411 16.2837 30.8779 16.1506C30.7146 16.0174 30.5024 15.9473 30.2918 15.953Z" fill="#1A1A1A"/>
<path d="M22.7518 11.343C20.8029 11.7987 19.0648 12.8988 17.8189 14.4652C16.5729 16.0316 15.8921 17.9727 15.8866 19.9742C15.8866 24.8618 19.8682 28.8434 24.7559 28.8434C28.4729 28.8103 32.3619 26.5285 33.3936 21.9583C33.6251 20.953 32.2296 20.4371 31.76 21.3631C31.1232 22.6091 30.0846 23.6039 28.8123 24.1865C27.54 24.769 26.1083 24.9053 24.749 24.5733C23.3896 24.2413 22.1819 23.4604 21.3214 22.3569C20.4609 21.2535 19.9978 19.892 20.0071 18.4926C20.0071 16.1712 21.2968 14.0481 23.3537 12.97C23.4616 12.9147 23.5567 12.8373 23.6328 12.7428C23.7089 12.6484 23.7643 12.539 23.7955 12.4218C23.8267 12.3046 23.8329 12.1822 23.8137 12.0624C23.7946 11.9427 23.7505 11.8283 23.6844 11.7266C23.587 11.5748 23.4454 11.4565 23.2785 11.3879C23.1117 11.3193 22.9279 11.3036 22.7518 11.343ZM18.4859 16.6341C18.1717 17.9613 18.2022 19.3468 18.5744 20.6589C18.9467 21.971 19.6484 23.166 20.6128 24.1304C21.5772 25.0948 22.7723 25.7965 24.0844 26.1688C25.3964 26.5411 26.7819 26.5716 28.1091 26.2574C27.1832 26.7005 25.8405 27.0973 24.7559 27.0973C20.8206 27.0973 17.6393 23.9227 17.6393 19.9808C17.6393 18.9027 18.0493 17.5601 18.4859 16.6341Z" fill="#1A1A1A"/>
</g>
<defs>
<clipPath id="clip0_32_16561">
<rect width="56" height="56" fill="white"/>
</clipPath>
</defs>
</svg>
