<svg width="56" height="56" viewBox="0 0 56 56" fill="none" xmlns="http://www.w3.org/2000/svg">
<g clip-path="url(#clip0_523_92198)">
<path d="M46.8794 31.4824C46.8794 25.9043 44.6635 20.5547 40.7192 16.6104C36.7749 12.6661 31.4253 10.4502 25.8472 10.4502C20.2691 10.4502 14.9195 12.6661 10.9751 16.6104C7.03083 20.5547 4.81494 25.9043 4.81494 31.4824C4.81494 37.0605 7.03083 42.4102 10.9751 46.3545C14.9195 50.2988 20.2691 52.5147 25.8472 52.5147C31.4253 52.5147 36.7749 50.2988 40.7192 46.3545C44.6635 42.4102 46.8794 37.0605 46.8794 31.4824Z" fill="#C3DBFF"/>
<path fill-rule="evenodd" clip-rule="evenodd" d="M43.9694 17.8576C43.7259 18.4193 43.6346 19.0352 43.7048 19.6434L44.4985 28.9822C44.4987 29.1032 44.5242 29.2228 44.5734 29.3335C44.6226 29.4442 44.6945 29.5435 44.7844 29.6251C44.8744 29.7068 44.9804 29.769 45.0959 29.8078C45.2113 29.8466 45.3336 29.8612 45.4551 29.8506C45.5765 29.84 45.6944 29.8045 45.8012 29.7463C45.9081 29.6882 46.0016 29.6086 46.0758 29.5126C46.1501 29.4167 46.2034 29.3064 46.2324 29.189C46.2615 29.0715 46.2656 28.9493 46.2446 28.8301L45.4509 19.4714V19.4516C45.425 19.1456 45.4703 18.8377 45.5832 18.5521C45.7353 18.2082 45.9602 17.8907 46.7472 17.6923C47.5409 17.4806 48.6256 18.142 48.7711 19.0349L50.9801 32.3024C51.5423 35.6557 50.7354 39.0155 49.2936 42.2167L43.6453 54.7831C43.5881 54.8887 43.5535 55.0048 43.5435 55.1242C43.5336 55.2436 43.5485 55.3638 43.5873 55.4772C43.6262 55.5907 43.6881 55.695 43.7693 55.7836C43.8506 55.8723 43.9493 55.9434 44.0594 55.9925C44.1695 56.0417 44.2887 56.0678 44.4094 56.0693C44.5301 56.0707 44.6499 56.0475 44.7611 56.0011C44.8724 55.9546 44.9729 55.8859 45.0563 55.7993C45.1397 55.7126 45.2042 55.6099 45.2459 55.4974L50.8941 42.931C52.422 39.538 53.3413 35.8276 52.7063 32.018L50.4973 18.7571C50.4188 18.2932 50.2457 17.8505 49.9889 17.4563C49.7321 17.0621 49.397 16.7249 49.0044 16.4656C48.6118 16.2064 48.1701 16.0306 47.7067 15.9492C47.2433 15.8678 46.7681 15.8826 46.3107 15.9925C45.805 16.1046 45.3316 16.3309 44.927 16.6542C44.5223 16.9775 44.197 17.3892 43.976 17.8576H43.9694Z" fill="#1A1A1A"/>
<path fill-rule="evenodd" clip-rule="evenodd" d="M32.7389 45.8609L31.8857 51.8796C31.8638 51.9953 31.8656 52.1141 31.8912 52.229C31.9167 52.344 31.9654 52.4526 32.0343 52.5484C32.1032 52.6441 32.1909 52.7251 32.2922 52.7864C32.3934 52.8476 32.5061 52.888 32.6234 52.9049C32.7408 52.9219 32.8604 52.9151 32.975 52.885C33.0896 52.8549 33.197 52.8022 33.2905 52.7299C33.3841 52.6576 33.462 52.5672 33.5195 52.4643C33.577 52.3614 33.6129 52.248 33.6251 52.1309L34.4783 46.099C34.7032 44.5051 35.4241 43.0236 36.5485 41.8727L40.7814 37.534C40.8884 37.4275 40.9658 37.2954 41.0063 37.1504L42.6399 31.0656C42.691 30.8597 42.7821 30.6658 42.9082 30.4951C43.0343 30.3245 43.1928 30.1803 43.3746 30.071C43.5564 29.9616 43.7581 29.8892 43.9679 29.8579C44.1778 29.8265 44.3918 29.8369 44.5976 29.8883L45.2458 30.0471C46.0791 30.2587 46.5752 31.1119 46.3437 31.9849L43.8569 41.2576C43.8153 41.3714 43.798 41.4925 43.8061 41.6132C43.8142 41.7339 43.8475 41.8517 43.9039 41.9589C43.9603 42.0662 44.0385 42.1607 44.1336 42.2364C44.2287 42.3121 44.3386 42.3673 44.4564 42.3986C44.5742 42.4298 44.6972 42.4365 44.8177 42.4181C44.9382 42.3997 45.0535 42.3566 45.1563 42.2916C45.2592 42.2266 45.3472 42.1411 45.415 42.0406C45.4828 41.94 45.5288 41.8265 45.55 41.7074L48.0368 32.4413C48.1517 32.0179 48.1817 31.5759 48.125 31.1408C48.0684 30.7058 47.9262 30.2862 47.7068 29.9063C47.4873 29.5264 47.1949 29.1936 46.8463 28.9272C46.4977 28.6608 46.0999 28.466 45.6757 28.3539L45.0275 28.1886C44.165 27.979 43.2547 28.1157 42.4918 28.5695C41.7289 29.0232 41.1742 29.7579 40.9467 30.6159L39.3726 36.4758L35.2918 40.6558C33.9095 42.0712 33.0167 43.9032 32.7389 45.8609ZM9.27271 17.8576C9.6034 18.6182 9.57033 19.2995 9.53726 19.6434L8.74359 28.9822C8.74341 29.1032 8.7179 29.2228 8.66868 29.3335C8.61946 29.4442 8.5476 29.5435 8.45765 29.6251C8.36771 29.7068 8.26166 29.769 8.14621 29.8078C8.03076 29.8466 7.90845 29.8612 7.78702 29.8506C7.6656 29.84 7.54771 29.8045 7.44085 29.7463C7.33398 29.6882 7.24047 29.6086 7.16623 29.5126C7.092 29.4167 7.03867 29.3064 7.00963 29.189C6.98059 29.0715 6.97646 28.9493 6.99752 28.8301L7.79119 19.4714C7.79111 19.4648 7.79111 19.4582 7.79119 19.4516C7.81707 19.1456 7.7718 18.8377 7.65891 18.5521C7.50679 18.2082 7.28192 17.8907 6.49486 17.6923C5.69458 17.4806 4.61651 18.142 4.47101 19.0349L2.26196 32.309C1.69978 35.6557 2.50668 39.0221 3.94189 42.2167L9.59679 54.7831C9.65393 54.8887 9.68857 55.0048 9.69854 55.1242C9.70852 55.2436 9.69362 55.3638 9.65477 55.4772C9.61592 55.5907 9.55395 55.695 9.47273 55.7836C9.39151 55.8723 9.29277 55.9434 9.18265 55.9925C9.07254 56.0417 8.95341 56.0678 8.83268 56.0693C8.71196 56.0707 8.59222 56.0475 8.48093 56.0011C8.36963 55.9546 8.26916 55.8859 8.18577 55.7993C8.10239 55.7126 8.03786 55.6099 7.99622 55.4974L2.34794 42.931C0.820127 39.538 -0.0992062 35.8276 0.535729 32.018L2.74478 18.7571C2.82331 18.2932 2.99636 17.8505 3.25318 17.4563C3.51 17.0621 3.84512 16.7249 4.23771 16.4656C4.63031 16.2064 5.07201 16.0306 5.53539 15.9492C5.99877 15.8678 6.47394 15.8826 6.93138 15.9925C7.43709 16.1046 7.91043 16.3309 8.31512 16.6542C8.71982 16.9775 9.05173 17.3892 9.27271 17.8576Z" fill="#1A1A1A"/>
<path fill-rule="evenodd" clip-rule="evenodd" d="M20.5031 45.8611L21.3497 51.8798C21.3789 51.9979 21.383 52.1209 21.3615 52.2407C21.3401 52.3605 21.2936 52.4745 21.2252 52.5755C21.1567 52.6764 21.0677 52.762 20.964 52.8269C20.8602 52.8917 20.7439 52.9342 20.6226 52.9518C20.5013 52.9694 20.3776 52.9617 20.2595 52.929C20.1414 52.8964 20.0315 52.8396 19.9368 52.7623C19.8421 52.6851 19.7647 52.589 19.7096 52.4803C19.6545 52.3716 19.6229 52.2526 19.6168 52.1311L18.7637 46.0992C18.5408 44.5061 17.8156 43.0255 16.6935 41.8729L12.4606 37.5342C12.3536 37.4277 12.2761 37.2955 12.2357 37.1506L10.6021 31.0658C10.551 30.8598 10.4598 30.666 10.3338 30.4953C10.2077 30.3246 10.0492 30.1805 9.86738 30.0711C9.68554 29.9618 9.48392 29.8894 9.27406 29.858C9.0642 29.8267 8.85022 29.8371 8.64437 29.8885L7.9962 30.0472C7.79539 30.0999 7.60716 30.1923 7.44264 30.3189C7.27812 30.4455 7.14063 30.6039 7.03829 30.7845C6.93595 30.9651 6.87083 31.1644 6.84679 31.3706C6.82275 31.5768 6.84026 31.7858 6.89829 31.9851L9.38513 41.2578C9.42668 41.3716 9.44395 41.4927 9.43585 41.6134C9.42776 41.7341 9.39447 41.8518 9.33809 41.9591C9.28172 42.0664 9.20349 42.1609 9.10838 42.2366C9.01326 42.3122 8.90333 42.3675 8.78557 42.3987C8.66781 42.43 8.54478 42.4367 8.42429 42.4183C8.3038 42.3998 8.18848 42.3568 8.08565 42.2918C7.98282 42.2268 7.89473 42.1413 7.82696 42.0407C7.75918 41.9402 7.71321 41.8267 7.69196 41.7076L5.20513 32.4415C5.09028 32.018 5.06031 31.5761 5.11696 31.141C5.17361 30.7059 5.31576 30.2864 5.53522 29.9065C5.75468 29.5266 6.04711 29.1938 6.39569 28.9274C6.74427 28.661 7.14211 28.4661 7.5663 28.3541L8.21446 28.1887C9.07699 27.9791 9.98731 28.1159 10.7502 28.5697C11.5131 29.0234 12.0677 29.7581 12.2952 30.616L13.8694 36.476L17.9501 40.656C19.3324 42.0713 20.2253 43.9034 20.5031 45.8611Z" fill="#1A1A1A"/>
<path d="M26.5945 6.94482C26.4104 6.95086 26.2328 7.01411 26.0869 7.12566C25.9409 7.2372 25.8339 7.39141 25.781 7.56653L23.3537 15.3974L15.2384 15.318C15.05 15.3144 14.8654 15.371 14.7119 15.4793C14.5583 15.5876 14.4438 15.742 14.3853 15.9198C14.3268 16.0976 14.3273 16.2893 14.3868 16.4667C14.4464 16.6441 14.5617 16.7979 14.7159 16.9054L21.3431 21.6674L18.7504 29.452C18.6915 29.6278 18.6904 29.8177 18.7475 29.9942C18.8045 30.1706 18.9166 30.3245 19.0676 30.4335C19.2186 30.5425 19.4007 30.601 19.5874 30.6005C19.7741 30.6001 19.9558 30.5406 20.1063 30.4308L26.621 25.5431L33.1357 30.4374C33.2863 30.5514 33.47 30.614 33.6594 30.616C33.8488 30.618 34.0338 30.5593 34.1869 30.4486C34.34 30.3379 34.4529 30.1811 34.509 30.0015C34.5651 29.8219 34.5613 29.6292 34.4981 29.452L31.9055 21.6674L38.5194 16.9054C38.6731 16.7982 38.7882 16.645 38.8478 16.4683C38.9075 16.2915 38.9085 16.1004 38.8509 15.923C38.7932 15.7456 38.6799 15.5912 38.5274 15.4823C38.3749 15.3734 38.1913 15.3159 38.0035 15.318L29.8882 15.3974L27.4609 7.56653C27.4045 7.38518 27.29 7.22703 27.1348 7.11603C26.9797 7.00504 26.7923 6.94726 26.6011 6.95144L26.5945 6.94482ZM26.621 10.7809L28.4067 16.535C28.4614 16.7154 28.5733 16.8734 28.7259 16.9855C28.8785 17.0975 29.0635 17.1576 29.2533 17.1567L35.2521 17.0906L30.3578 20.6158C30.2046 20.7254 30.091 20.8811 30.0338 21.0597C29.9766 21.2384 29.9789 21.4306 30.0404 21.6079L31.9518 27.3487L27.1501 23.7508C26.9976 23.6368 26.8119 23.5752 26.621 23.5752C26.4301 23.5752 26.2443 23.6368 26.0918 23.7508L21.2968 27.3487L23.2082 21.6079C23.2689 21.4299 23.2702 21.2373 23.2118 21.0585C23.1534 20.8798 23.0385 20.7245 22.8841 20.6158L17.9898 17.0972L23.9886 17.1567C24.1776 17.158 24.362 17.0989 24.5144 16.9881C24.6669 16.8774 24.7794 16.7208 24.8352 16.5416L26.621 10.7809Z" fill="#1A1A1A"/>
</g>
<defs>
<clipPath id="clip0_523_92198">
<rect width="56" height="56" fill="white"/>
</clipPath>
</defs>
</svg>
