<svg width="56" height="56" viewBox="0 0 56 56" fill="none" xmlns="http://www.w3.org/2000/svg">
<g clip-path="url(#clip0_31_16506)">
<path d="M41.7206 29.1211C41.7206 34.7606 39.4803 40.1692 35.4926 44.1569C31.5048 48.1446 26.0963 50.3849 20.4568 50.3849C14.8174 50.3849 9.40884 48.1446 5.42112 44.1569C1.43339 40.1692 -0.806885 34.7606 -0.806885 29.1211C-0.806885 23.4817 1.43339 18.0731 5.42112 14.0854C9.40884 10.0977 14.8174 7.85742 20.4568 7.85742C26.0963 7.85742 31.5048 10.0977 35.4926 14.0854C39.4803 18.0731 41.7206 23.4817 41.7206 29.1211Z" fill="#C3DBFF"/>
<path d="M26.7599 20.2124V21.9651H46.0329V50.0081H20.1725C19.8842 50.0099 19.5985 49.9542 19.332 49.8443C19.0656 49.7344 18.8237 49.5725 18.6205 49.3681C18.4173 49.1637 18.2568 48.9208 18.1486 48.6536C18.0403 48.3865 17.9863 48.1005 17.9899 47.8123V46.5027H16.2372V47.8123C16.2372 49.9882 18.0097 51.7608 20.1791 51.7608H46.9059C47.1392 51.7608 47.3629 51.6681 47.5279 51.5031C47.6929 51.3382 47.7855 51.1144 47.7855 50.8811V21.0854C47.7838 20.8533 47.6903 20.6312 47.5256 20.4677C47.3608 20.3042 47.1381 20.2124 46.9059 20.2124H26.7599Z" fill="#1A1A1A"/>
<path d="M10.1061 11.4424C9.87392 11.4441 9.65187 11.5376 9.48833 11.7024C9.32479 11.8671 9.23303 12.0899 9.23303 12.322V43.8704C9.23303 44.1026 9.32479 44.3253 9.48833 44.4901C9.65187 44.6549 9.87392 44.7483 10.1061 44.75H21.0587C22.1054 44.7483 23.1087 44.3317 23.8488 43.5916C24.5889 42.8515 25.0055 41.8482 25.0072 40.8015V15.3909C25.0037 14.3454 24.5864 13.3438 23.8465 12.6051C23.1065 11.8664 22.1042 11.4507 21.0587 11.449L10.1061 11.4424ZM10.9857 13.2017H21.0587C22.2889 13.2017 23.2545 14.1607 23.2545 15.3909V40.8015C23.2581 41.0909 23.2037 41.378 23.0946 41.646C22.9855 41.914 22.8239 42.1575 22.6193 42.3621C22.4147 42.5667 22.1712 42.7284 21.9032 42.8374C21.6352 42.9465 21.3481 43.0009 21.0587 42.9974H10.9857V13.2017ZM20.9595 45.9869C20.7322 45.9939 20.5165 46.0887 20.3576 46.2514L19.4978 47.1112C19.4016 47.1886 19.3228 47.2855 19.2665 47.3954C19.2102 47.5053 19.1776 47.6258 19.171 47.7491C19.1643 47.8725 19.1837 47.9958 19.2279 48.1111C19.2721 48.2264 19.34 48.3312 19.4273 48.4185C19.5147 48.5058 19.6194 48.5738 19.7347 48.618C19.8501 48.6621 19.9734 48.6815 20.0967 48.6749C20.22 48.6682 20.3406 48.6357 20.4505 48.5794C20.5604 48.5231 20.6572 48.4442 20.7346 48.348L21.5944 47.4882C21.7182 47.3644 21.8021 47.2065 21.8356 47.0347C21.8691 46.8629 21.8506 46.685 21.7824 46.5238C21.7142 46.3626 21.5995 46.2254 21.4529 46.1297C21.3063 46.0341 21.1345 45.9843 20.9595 45.9869Z" fill="#1A1A1A"/>
<path fill-rule="evenodd" clip-rule="evenodd" d="M46.9257 49.1283C46.8042 49.1177 46.6819 49.1326 46.5664 49.1718C46.451 49.211 46.3449 49.2739 46.255 49.3563C46.1652 49.4387 46.0934 49.5389 46.0443 49.6505C45.9952 49.7621 45.9698 49.8827 45.9698 50.0047C45.9698 50.1266 45.9952 50.2472 46.0443 50.3588C46.0934 50.4704 46.1652 50.5706 46.255 50.653C46.3449 50.7354 46.451 50.7983 46.5664 50.8375C46.6819 50.8767 46.8042 50.8916 46.9257 50.881H49.5316C49.6531 50.8916 49.7754 50.8767 49.8909 50.8375C50.0063 50.7983 50.1124 50.7354 50.2022 50.653C50.2921 50.5706 50.3639 50.4704 50.413 50.3588C50.4621 50.2472 50.4874 50.1266 50.4874 50.0047C50.4874 49.8827 50.4621 49.7621 50.413 49.6505C50.3639 49.5389 50.2921 49.4387 50.2022 49.3563C50.1124 49.2739 50.0063 49.211 49.8909 49.1718C49.7754 49.1326 49.6531 49.1177 49.5316 49.1283H46.9257Z" fill="#1A1A1A"/>
<path d="M53.0437 50.0081C53.0437 49.7759 52.9519 49.5532 52.7884 49.3884C52.6248 49.2236 52.4028 49.1302 52.1706 49.1284C51.9385 49.1302 51.7164 49.2236 51.5529 49.3884C51.3894 49.5532 51.2976 49.7759 51.2976 50.0081C51.2993 50.2391 51.3919 50.4601 51.5552 50.6235C51.7186 50.7868 51.9396 50.8794 52.1706 50.8811C52.4028 50.8811 52.6255 50.7893 52.7903 50.6258C52.9551 50.4623 53.0419 50.2402 53.0437 50.0081Z" fill="#1A1A1A"/>
<path fill-rule="evenodd" clip-rule="evenodd" d="M46.9257 45.6229C46.8042 45.6124 46.6819 45.6272 46.5664 45.6664C46.451 45.7057 46.3449 45.7685 46.255 45.8509C46.1652 45.9333 46.0934 46.0335 46.0443 46.1451C45.9952 46.2567 45.9698 46.3773 45.9698 46.4993C45.9698 46.6212 45.9952 46.7418 46.0443 46.8535C46.0934 46.9651 46.1652 47.0653 46.255 47.1477C46.3449 47.2301 46.451 47.2929 46.5664 47.3321C46.6819 47.3714 46.8042 47.3862 46.9257 47.3756H49.5316C49.6531 47.3862 49.7754 47.3714 49.8909 47.3321C50.0063 47.2929 50.1124 47.2301 50.2022 47.1477C50.2921 47.0653 50.3639 46.9651 50.413 46.8535C50.4621 46.7418 50.4874 46.6212 50.4874 46.4993C50.4874 46.3773 50.4621 46.2567 50.413 46.1451C50.3639 46.0335 50.2921 45.9333 50.2022 45.8509C50.1124 45.7685 50.0063 45.7057 49.8909 45.6664C49.7754 45.6272 49.6531 45.6124 49.5316 45.6229H46.9257Z" fill="#1A1A1A"/>
<path d="M53.0437 46.5027C53.0437 46.2705 52.9519 46.0478 52.7884 45.883C52.6248 45.7182 52.4028 45.6248 52.1706 45.623C51.9385 45.6248 51.7164 45.7182 51.5529 45.883C51.3894 46.0478 51.2976 46.2705 51.2976 46.5027C51.2993 46.7337 51.3919 46.9548 51.5552 47.1181C51.7186 47.2815 51.9396 47.374 52.1706 47.3757C52.4028 47.3757 52.6255 47.284 52.7903 47.1204C52.9551 46.9569 53.0419 46.7348 53.0437 46.5027Z" fill="#1A1A1A"/>
<path fill-rule="evenodd" clip-rule="evenodd" d="M46.9257 42.1176C46.8042 42.107 46.6819 42.1218 46.5664 42.1611C46.451 42.2003 46.3449 42.2631 46.255 42.3455C46.1652 42.4279 46.0934 42.5281 46.0443 42.6397C45.9952 42.7514 45.9698 42.872 45.9698 42.9939C45.9698 43.1159 45.9952 43.2365 46.0443 43.3481C46.0934 43.4597 46.1652 43.5599 46.255 43.6423C46.3449 43.7247 46.451 43.7875 46.5664 43.8268C46.6819 43.866 46.8042 43.8808 46.9257 43.8703H49.5316C49.6531 43.8808 49.7754 43.866 49.8909 43.8268C50.0063 43.7875 50.1124 43.7247 50.2022 43.6423C50.2921 43.5599 50.3639 43.4597 50.413 43.3481C50.4621 43.2365 50.4874 43.1159 50.4874 42.9939C50.4874 42.872 50.4621 42.7514 50.413 42.6397C50.3639 42.5281 50.2921 42.4279 50.2022 42.3455C50.1124 42.2631 50.0063 42.2003 49.8909 42.1611C49.7754 42.1218 49.6531 42.107 49.5316 42.1176H46.9257Z" fill="#1A1A1A"/>
<path d="M53.0437 42.9973C53.0437 42.7652 52.9519 42.5424 52.7884 42.3776C52.6248 42.2129 52.4028 42.1194 52.1706 42.1177C51.9385 42.1194 51.7164 42.2129 51.5529 42.3776C51.3894 42.5424 51.2976 42.7652 51.2976 42.9973C51.2993 43.2283 51.3919 43.4494 51.5552 43.6127C51.7186 43.7761 51.9396 43.8686 52.1706 43.8704C52.4028 43.8704 52.6255 43.7786 52.7903 43.6151C52.9551 43.4515 53.0419 43.2295 53.0437 42.9973Z" fill="#1A1A1A"/>
<path fill-rule="evenodd" clip-rule="evenodd" d="M46.9257 38.6122C46.8042 38.6016 46.6819 38.6164 46.5664 38.6557C46.451 38.6949 46.3449 38.7577 46.255 38.8402C46.1652 38.9226 46.0934 39.0227 46.0443 39.1344C45.9952 39.246 45.9698 39.3666 45.9698 39.4885C45.9698 39.6105 45.9952 39.7311 46.0443 39.8427C46.0934 39.9543 46.1652 40.0545 46.255 40.1369C46.3449 40.2193 46.451 40.2821 46.5664 40.3214C46.6819 40.3606 46.8042 40.3754 46.9257 40.3649H49.5316C49.6531 40.3754 49.7754 40.3606 49.8909 40.3214C50.0063 40.2821 50.1124 40.2193 50.2022 40.1369C50.2921 40.0545 50.3639 39.9543 50.413 39.8427C50.4621 39.7311 50.4874 39.6105 50.4874 39.4885C50.4874 39.3666 50.4621 39.246 50.413 39.1344C50.3639 39.0227 50.2921 38.9226 50.2022 38.8402C50.1124 38.7577 50.0063 38.6949 49.8909 38.6557C49.7754 38.6164 49.6531 38.6016 49.5316 38.6122H46.9257Z" fill="#1A1A1A"/>
<path d="M53.0437 39.492C53.0437 39.2598 52.9519 39.0371 52.7884 38.8723C52.6248 38.7075 52.4028 38.6141 52.1706 38.6123C51.9385 38.6141 51.7164 38.7075 51.5529 38.8723C51.3894 39.0371 51.2976 39.2598 51.2976 39.492C51.2993 39.723 51.3919 39.944 51.5552 40.1074C51.7186 40.2707 51.9396 40.3633 52.1706 40.365C52.4028 40.365 52.6255 40.2732 52.7903 40.1097C52.9551 39.9462 53.0419 39.7241 53.0437 39.492Z" fill="#1A1A1A"/>
<path fill-rule="evenodd" clip-rule="evenodd" d="M46.9257 35.1068C46.8042 35.0963 46.6819 35.1111 46.5664 35.1503C46.451 35.1896 46.3449 35.2524 46.255 35.3348C46.1652 35.4172 46.0934 35.5174 46.0443 35.629C45.9952 35.7406 45.9698 35.8612 45.9698 35.9832C45.9698 36.1051 45.9952 36.2257 46.0443 36.3373C46.0934 36.449 46.1652 36.5491 46.255 36.6316C46.3449 36.714 46.451 36.7768 46.5664 36.816C46.6819 36.8553 46.8042 36.8701 46.9257 36.8595H49.5316C49.6531 36.8701 49.7754 36.8553 49.8909 36.816C50.0063 36.7768 50.1124 36.714 50.2022 36.6316C50.2921 36.5491 50.3639 36.449 50.413 36.3373C50.4621 36.2257 50.4874 36.1051 50.4874 35.9832C50.4874 35.8612 50.4621 35.7406 50.413 35.629C50.3639 35.5174 50.2921 35.4172 50.2022 35.3348C50.1124 35.2524 50.0063 35.1896 49.8909 35.1503C49.7754 35.1111 49.6531 35.0963 49.5316 35.1068H46.9257Z" fill="#1A1A1A"/>
<path d="M53.0437 35.9866C53.0437 35.7544 52.9519 35.5317 52.7884 35.3669C52.6248 35.2021 52.4028 35.1087 52.1706 35.1069C51.9385 35.1087 51.7164 35.2021 51.5529 35.3669C51.3894 35.5317 51.2976 35.7544 51.2976 35.9866C51.2993 36.2176 51.3919 36.4386 51.5552 36.602C51.7186 36.7654 51.9396 36.8579 52.1706 36.8596C52.4028 36.8596 52.6255 36.7679 52.7903 36.6043C52.9551 36.4408 53.0419 36.2187 53.0437 35.9866Z" fill="#1A1A1A"/>
<path fill-rule="evenodd" clip-rule="evenodd" d="M46.9257 31.6015C46.8042 31.5909 46.6819 31.6057 46.5664 31.6449C46.451 31.6842 46.3449 31.747 46.255 31.8294C46.1652 31.9118 46.0934 32.012 46.0443 32.1236C45.9952 32.2352 45.9698 32.3559 45.9698 32.4778C45.9698 32.5997 45.9952 32.7203 46.0443 32.832C46.0934 32.9436 46.1652 33.0438 46.255 33.1262C46.3449 33.2086 46.451 33.2714 46.5664 33.3106C46.6819 33.3499 46.8042 33.3647 46.9257 33.3541H49.5316C49.6531 33.3647 49.7754 33.3499 49.8909 33.3106C50.0063 33.2714 50.1124 33.2086 50.2022 33.1262C50.2921 33.0438 50.3639 32.9436 50.413 32.832C50.4621 32.7203 50.4874 32.5997 50.4874 32.4778C50.4874 32.3559 50.4621 32.2352 50.413 32.1236C50.3639 32.012 50.2921 31.9118 50.2022 31.8294C50.1124 31.747 50.0063 31.6842 49.8909 31.6449C49.7754 31.6057 49.6531 31.5909 49.5316 31.6015H46.9257Z" fill="#1A1A1A"/>
<path d="M53.0437 32.4812C53.0437 32.2491 52.9519 32.0263 52.7884 31.8615C52.6248 31.6968 52.4028 31.6033 52.1706 31.6016C51.9385 31.6033 51.7164 31.6968 51.5529 31.8615C51.3894 32.0263 51.2976 32.2491 51.2976 32.4812C51.2993 32.7122 51.3919 32.9333 51.5552 33.0966C51.7186 33.26 51.9396 33.3525 52.1706 33.3543C52.4028 33.3543 52.6255 33.2625 52.7903 33.0989C52.9551 32.9354 53.0419 32.7134 53.0437 32.4812Z" fill="#1A1A1A"/>
<path fill-rule="evenodd" clip-rule="evenodd" d="M46.9257 28.0961C46.8042 28.0855 46.6819 28.1003 46.5664 28.1396C46.451 28.1788 46.3449 28.2416 46.255 28.324C46.1652 28.4064 46.0934 28.5066 46.0443 28.6183C45.9952 28.7299 45.9698 28.8505 45.9698 28.9724C45.9698 29.0944 45.9952 29.215 46.0443 29.3266C46.0934 29.4382 46.1652 29.5384 46.255 29.6208C46.3449 29.7032 46.451 29.766 46.5664 29.8053C46.6819 29.8445 46.8042 29.8593 46.9257 29.8488H49.5316C49.6531 29.8593 49.7754 29.8445 49.8909 29.8053C50.0063 29.766 50.1124 29.7032 50.2022 29.6208C50.2921 29.5384 50.3639 29.4382 50.413 29.3266C50.4621 29.215 50.4874 29.0944 50.4874 28.9724C50.4874 28.8505 50.4621 28.7299 50.413 28.6183C50.3639 28.5066 50.2921 28.4064 50.2022 28.324C50.1124 28.2416 50.0063 28.1788 49.8909 28.1396C49.7754 28.1003 49.6531 28.0855 49.5316 28.0961H46.9257Z" fill="#1A1A1A"/>
<path d="M53.0437 28.9758C53.0437 28.7437 52.9519 28.5209 52.7884 28.3562C52.6248 28.1914 52.4028 28.0979 52.1706 28.0962C51.9385 28.0979 51.7164 28.1914 51.5529 28.3562C51.3894 28.5209 51.2976 28.7437 51.2976 28.9758C51.2993 29.2069 51.3919 29.4279 51.5552 29.5913C51.7186 29.7546 51.9396 29.8471 52.1706 29.8489C52.4028 29.8489 52.6255 29.7571 52.7903 29.5936C52.9551 29.43 53.0419 29.208 53.0437 28.9758Z" fill="#1A1A1A"/>
<path fill-rule="evenodd" clip-rule="evenodd" d="M46.9257 24.5907C46.8042 24.5801 46.6819 24.595 46.5664 24.6342C46.451 24.6734 46.3449 24.7363 46.255 24.8187C46.1652 24.9011 46.0934 25.0013 46.0443 25.1129C45.9952 25.2245 45.9698 25.3451 45.9698 25.4671C45.9698 25.589 45.9952 25.7096 46.0443 25.8212C46.0934 25.9328 46.1652 26.033 46.255 26.1154C46.3449 26.1978 46.451 26.2607 46.5664 26.2999C46.6819 26.3392 46.8042 26.354 46.9257 26.3434H49.5316C49.6531 26.354 49.7754 26.3392 49.8909 26.2999C50.0063 26.2607 50.1124 26.1978 50.2022 26.1154C50.2921 26.033 50.3639 25.9328 50.413 25.8212C50.4621 25.7096 50.4874 25.589 50.4874 25.4671C50.4874 25.3451 50.4621 25.2245 50.413 25.1129C50.3639 25.0013 50.2921 24.9011 50.2022 24.8187C50.1124 24.7363 50.0063 24.6734 49.8909 24.6342C49.7754 24.595 49.6531 24.5801 49.5316 24.5907H46.9257Z" fill="#1A1A1A"/>
<path d="M53.0437 25.4705C53.0437 25.2383 52.9519 25.0156 52.7884 24.8508C52.6248 24.686 52.4028 24.5926 52.1706 24.5908C51.9385 24.5926 51.7164 24.686 51.5529 24.8508C51.3894 25.0156 51.2976 25.2383 51.2976 25.4705C51.2993 25.7015 51.3919 25.9225 51.5552 26.0859C51.7186 26.2492 51.9396 26.3418 52.1706 26.3435C52.4028 26.3435 52.6255 26.2517 52.7903 26.0882C52.9551 25.9247 53.0419 25.7026 53.0437 25.4705Z" fill="#1A1A1A"/>
<path fill-rule="evenodd" clip-rule="evenodd" d="M46.9257 21.0853C46.8042 21.0748 46.6819 21.0896 46.5664 21.1288C46.451 21.1681 46.3449 21.2309 46.255 21.3133C46.1652 21.3957 46.0934 21.4959 46.0443 21.6075C45.9952 21.7191 45.9698 21.8397 45.9698 21.9617C45.9698 22.0836 45.9952 22.2042 46.0443 22.3159C46.0934 22.4275 46.1652 22.5277 46.255 22.6101C46.3449 22.6925 46.451 22.7553 46.5664 22.7945C46.6819 22.8338 46.8042 22.8486 46.9257 22.838H49.5316C49.6531 22.8486 49.7754 22.8338 49.8909 22.7945C50.0063 22.7553 50.1124 22.6925 50.2022 22.6101C50.2921 22.5277 50.3639 22.4275 50.413 22.3159C50.4621 22.2042 50.4874 22.0836 50.4874 21.9617C50.4874 21.8397 50.4621 21.7191 50.413 21.6075C50.3639 21.4959 50.2921 21.3957 50.2022 21.3133C50.1124 21.2309 50.0063 21.1681 49.8909 21.1288C49.7754 21.0896 49.6531 21.0748 49.5316 21.0853H46.9257Z" fill="#1A1A1A"/>
<path d="M53.0437 21.9651C53.0437 21.7329 52.9519 21.5102 52.7884 21.3454C52.6248 21.1806 52.4028 21.0872 52.1706 21.0854C51.9385 21.0872 51.7164 21.1806 51.5529 21.3454C51.3894 21.5102 51.2976 21.7329 51.2976 21.9651C51.2993 22.1961 51.3919 22.4172 51.5552 22.5805C51.7186 22.7439 51.9396 22.8364 52.1706 22.8381C52.4028 22.8381 52.6255 22.7464 52.7903 22.5828C52.9551 22.4193 53.0419 22.1973 53.0437 21.9651Z" fill="#1A1A1A"/>
<path fill-rule="evenodd" clip-rule="evenodd" d="M7.49357 41.2445C7.37209 41.234 7.24974 41.2488 7.13429 41.288C7.01883 41.3272 6.9128 41.3901 6.82292 41.4725C6.73303 41.5549 6.66127 41.6551 6.61217 41.7667C6.56307 41.8783 6.53772 41.9989 6.53772 42.1209C6.53772 42.2428 6.56307 42.3634 6.61217 42.475C6.66127 42.5867 6.73303 42.6868 6.82292 42.7693C6.9128 42.8517 7.01883 42.9145 7.13429 42.9537C7.24974 42.993 7.37209 43.0078 7.49357 42.9972H10.0995C10.2209 43.0078 10.3433 42.993 10.4587 42.9537C10.5742 42.9145 10.6802 42.8517 10.7701 42.7693C10.86 42.6868 10.9318 42.5867 10.9809 42.475C11.03 42.3634 11.0553 42.2428 11.0553 42.1209C11.0553 41.9989 11.03 41.8783 10.9809 41.7667C10.9318 41.6551 10.86 41.5549 10.7701 41.4725C10.6802 41.3901 10.5742 41.3272 10.4587 41.288C10.3433 41.2488 10.2209 41.234 10.0995 41.2445H7.49357Z" fill="#1A1A1A"/>
<path d="M3.96838 42.1177C3.97013 41.8855 4.06358 41.6635 4.22835 41.4999C4.39313 41.3364 4.61588 41.2446 4.84803 41.2446C5.08019 41.2446 5.30294 41.3364 5.46771 41.4999C5.63249 41.6635 5.72594 41.8855 5.72768 42.1177C5.72768 42.351 5.63501 42.5747 5.47004 42.7397C5.30507 42.9046 5.08133 42.9973 4.84803 42.9973C4.61588 42.9956 4.39384 42.9021 4.2303 42.7373C4.06676 42.5726 3.96838 42.3498 3.96838 42.1177Z" fill="#1A1A1A"/>
<path fill-rule="evenodd" clip-rule="evenodd" d="M7.49357 37.7391C7.37209 37.7286 7.24974 37.7434 7.13429 37.7826C7.01883 37.8219 6.9128 37.8847 6.82292 37.9671C6.73303 38.0495 6.66127 38.1497 6.61217 38.2613C6.56307 38.3729 6.53772 38.4936 6.53772 38.6155C6.53772 38.7374 6.56307 38.858 6.61217 38.9697C6.66127 39.0813 6.73303 39.1815 6.82292 39.2639C6.9128 39.3463 7.01883 39.4091 7.13429 39.4483C7.24974 39.4876 7.37209 39.5024 7.49357 39.4918H10.0995C10.2209 39.5024 10.3433 39.4876 10.4587 39.4483C10.5742 39.4091 10.6802 39.3463 10.7701 39.2639C10.86 39.1815 10.9318 39.0813 10.9809 38.9697C11.03 38.858 11.0553 38.7374 11.0553 38.6155C11.0553 38.4936 11.03 38.3729 10.9809 38.2613C10.9318 38.1497 10.86 38.0495 10.7701 37.9671C10.6802 37.8847 10.5742 37.8219 10.4587 37.7826C10.3433 37.7434 10.2209 37.7286 10.0995 37.7391H7.49357Z" fill="#1A1A1A"/>
<path d="M3.96838 38.6123C3.97013 38.3801 4.06358 38.1581 4.22835 37.9946C4.39313 37.831 4.61588 37.7393 4.84803 37.7393C5.08019 37.7393 5.30294 37.831 5.46771 37.9946C5.63249 38.1581 5.72594 38.3801 5.72768 38.6123C5.72768 38.8456 5.63501 39.0693 5.47004 39.2343C5.30507 39.3993 5.08133 39.4919 4.84803 39.4919C4.61588 39.4902 4.39384 39.3968 4.2303 39.232C4.06676 39.0672 3.96838 38.8445 3.96838 38.6123Z" fill="#1A1A1A"/>
<path fill-rule="evenodd" clip-rule="evenodd" d="M7.49357 34.2338C7.37209 34.2232 7.24974 34.238 7.13429 34.2773C7.01883 34.3165 6.9128 34.3793 6.82292 34.4617C6.73303 34.5441 6.66127 34.6443 6.61217 34.756C6.56307 34.8676 6.53772 34.9882 6.53772 35.1101C6.53772 35.2321 6.56307 35.3527 6.61217 35.4643C6.66127 35.5759 6.73303 35.6761 6.82292 35.7585C6.9128 35.8409 7.01883 35.9037 7.13429 35.943C7.24974 35.9822 7.37209 35.997 7.49357 35.9865H10.0995C10.2209 35.997 10.3433 35.9822 10.4587 35.943C10.5742 35.9037 10.6802 35.8409 10.7701 35.7585C10.86 35.6761 10.9318 35.5759 10.9809 35.4643C11.03 35.3527 11.0553 35.2321 11.0553 35.1101C11.0553 34.9882 11.03 34.8676 10.9809 34.756C10.9318 34.6443 10.86 34.5441 10.7701 34.4617C10.6802 34.3793 10.5742 34.3165 10.4587 34.2773C10.3433 34.238 10.2209 34.2232 10.0995 34.2338H7.49357Z" fill="#1A1A1A"/>
<path d="M3.96838 35.1069C3.97013 34.8748 4.06358 34.6527 4.22835 34.4892C4.39313 34.3256 4.61588 34.2339 4.84803 34.2339C5.08019 34.2339 5.30294 34.3256 5.46771 34.4892C5.63249 34.6527 5.72594 34.8748 5.72768 35.1069C5.72768 35.3402 5.63501 35.564 5.47004 35.7289C5.30507 35.8939 5.08133 35.9866 4.84803 35.9866C4.61588 35.9848 4.39384 35.8914 4.2303 35.7266C4.06676 35.5618 3.96838 35.3391 3.96838 35.1069Z" fill="#1A1A1A"/>
<path fill-rule="evenodd" clip-rule="evenodd" d="M7.49357 30.7284C7.37209 30.7178 7.24974 30.7326 7.13429 30.7719C7.01883 30.8111 6.9128 30.874 6.82292 30.9564C6.73303 31.0388 6.66127 31.139 6.61217 31.2506C6.56307 31.3622 6.53772 31.4828 6.53772 31.6047C6.53772 31.7267 6.56307 31.8473 6.61217 31.9589C6.66127 32.0705 6.73303 32.1707 6.82292 32.2531C6.9128 32.3355 7.01883 32.3984 7.13429 32.4376C7.24974 32.4768 7.37209 32.4917 7.49357 32.4811H10.0995C10.2209 32.4917 10.3433 32.4768 10.4587 32.4376C10.5742 32.3984 10.6802 32.3355 10.7701 32.2531C10.86 32.1707 10.9318 32.0705 10.9809 31.9589C11.03 31.8473 11.0553 31.7267 11.0553 31.6047C11.0553 31.4828 11.03 31.3622 10.9809 31.2506C10.9318 31.139 10.86 31.0388 10.7701 30.9564C10.6802 30.874 10.5742 30.8111 10.4587 30.7719C10.3433 30.7326 10.2209 30.7178 10.0995 30.7284H7.49357Z" fill="#1A1A1A"/>
<path d="M3.96838 31.6016C3.97013 31.3694 4.06358 31.1474 4.22835 30.9838C4.39313 30.8203 4.61588 30.7285 4.84803 30.7285C5.08019 30.7285 5.30294 30.8203 5.46771 30.9838C5.63249 31.1474 5.72594 31.3694 5.72768 31.6016C5.72768 31.8348 5.63501 32.0586 5.47004 32.2236C5.30507 32.3885 5.08133 32.4812 4.84803 32.4812C4.61588 32.4795 4.39384 32.386 4.2303 32.2212C4.06676 32.0565 3.96838 31.8337 3.96838 31.6016Z" fill="#1A1A1A"/>
<path fill-rule="evenodd" clip-rule="evenodd" d="M7.49357 27.223C7.37209 27.2125 7.24974 27.2273 7.13429 27.2665C7.01883 27.3058 6.9128 27.3686 6.82292 27.451C6.73303 27.5334 6.66127 27.6336 6.61217 27.7452C6.56307 27.8568 6.53772 27.9774 6.53772 28.0994C6.53772 28.2213 6.56307 28.3419 6.61217 28.4535C6.66127 28.5652 6.73303 28.6654 6.82292 28.7478C6.9128 28.8302 7.01883 28.893 7.13429 28.9322C7.24974 28.9715 7.37209 28.9863 7.49357 28.9757H10.0995C10.2209 28.9863 10.3433 28.9715 10.4587 28.9322C10.5742 28.893 10.6802 28.8302 10.7701 28.7478C10.86 28.6654 10.9318 28.5652 10.9809 28.4535C11.03 28.3419 11.0553 28.2213 11.0553 28.0994C11.0553 27.9774 11.03 27.8568 10.9809 27.7452C10.9318 27.6336 10.86 27.5334 10.7701 27.451C10.6802 27.3686 10.5742 27.3058 10.4587 27.2665C10.3433 27.2273 10.2209 27.2125 10.0995 27.223H7.49357Z" fill="#1A1A1A"/>
<path d="M3.96838 28.0962C3.97013 27.864 4.06358 27.642 4.22835 27.4784C4.39313 27.3149 4.61588 27.2231 4.84803 27.2231C5.08019 27.2231 5.30294 27.3149 5.46771 27.4784C5.63249 27.642 5.72594 27.864 5.72768 28.0962C5.72768 28.3295 5.63501 28.5532 5.47004 28.7182C5.30507 28.8832 5.08133 28.9758 4.84803 28.9758C4.61588 28.9741 4.39384 28.8806 4.2303 28.7159C4.06676 28.5511 3.96838 28.3283 3.96838 28.0962Z" fill="#1A1A1A"/>
<path fill-rule="evenodd" clip-rule="evenodd" d="M7.49357 23.7177C7.37209 23.7071 7.24974 23.7219 7.13429 23.7612C7.01883 23.8004 6.9128 23.8632 6.82292 23.9456C6.73303 24.028 6.66127 24.1282 6.61217 24.2398C6.56307 24.3515 6.53772 24.4721 6.53772 24.594C6.53772 24.7159 6.56307 24.8366 6.61217 24.9482C6.66127 25.0598 6.73303 25.16 6.82292 25.2424C6.9128 25.3248 7.01883 25.3876 7.13429 25.4269C7.24974 25.4661 7.37209 25.4809 7.49357 25.4703H10.0995C10.2209 25.4809 10.3433 25.4661 10.4587 25.4269C10.5742 25.3876 10.6802 25.3248 10.7701 25.2424C10.86 25.16 10.9318 25.0598 10.9809 24.9482C11.03 24.8366 11.0553 24.7159 11.0553 24.594C11.0553 24.4721 11.03 24.3515 10.9809 24.2398C10.9318 24.1282 10.86 24.028 10.7701 23.9456C10.6802 23.8632 10.5742 23.8004 10.4587 23.7612C10.3433 23.7219 10.2209 23.7071 10.0995 23.7177H7.49357Z" fill="#1A1A1A"/>
<path d="M3.96838 24.5908C3.97013 24.3587 4.06358 24.1366 4.22835 23.9731C4.39313 23.8095 4.61588 23.7178 4.84803 23.7178C5.08019 23.7178 5.30294 23.8095 5.46771 23.9731C5.63249 24.1366 5.72594 24.3587 5.72768 24.5908C5.72768 24.8241 5.63501 25.0478 5.47004 25.2128C5.30507 25.3778 5.08133 25.4705 4.84803 25.4705C4.61588 25.4687 4.39384 25.3753 4.2303 25.2105C4.06676 25.0457 3.96838 24.823 3.96838 24.5908Z" fill="#1A1A1A"/>
<path fill-rule="evenodd" clip-rule="evenodd" d="M7.49357 20.2123C7.37209 20.2017 7.24974 20.2165 7.13429 20.2558C7.01883 20.295 6.9128 20.3578 6.82292 20.4402C6.73303 20.5227 6.66127 20.6228 6.61217 20.7345C6.56307 20.8461 6.53772 20.9667 6.53772 21.0886C6.53772 21.2106 6.56307 21.3312 6.61217 21.4428C6.66127 21.5544 6.73303 21.6546 6.82292 21.737C6.9128 21.8194 7.01883 21.8822 7.13429 21.9215C7.24974 21.9607 7.37209 21.9755 7.49357 21.965H10.0995C10.2209 21.9755 10.3433 21.9607 10.4587 21.9215C10.5742 21.8822 10.6802 21.8194 10.7701 21.737C10.86 21.6546 10.9318 21.5544 10.9809 21.4428C11.03 21.3312 11.0553 21.2106 11.0553 21.0886C11.0553 20.9667 11.03 20.8461 10.9809 20.7345C10.9318 20.6228 10.86 20.5227 10.7701 20.4402C10.6802 20.3578 10.5742 20.295 10.4587 20.2558C10.3433 20.2165 10.2209 20.2017 10.0995 20.2123H7.49357Z" fill="#1A1A1A"/>
<path d="M3.96838 21.0854C3.97013 20.8533 4.06358 20.6312 4.22835 20.4677C4.39313 20.3042 4.61588 20.2124 4.84803 20.2124C5.08019 20.2124 5.30294 20.3042 5.46771 20.4677C5.63249 20.6312 5.72594 20.8533 5.72768 21.0854C5.72768 21.3187 5.63501 21.5425 5.47004 21.7074C5.30507 21.8724 5.08133 21.9651 4.84803 21.9651C4.61588 21.9633 4.39384 21.8699 4.2303 21.7051C4.06676 21.5403 3.96838 21.3176 3.96838 21.0854Z" fill="#1A1A1A"/>
<path fill-rule="evenodd" clip-rule="evenodd" d="M7.49357 16.7069C7.37209 16.6964 7.24974 16.7112 7.13429 16.7504C7.01883 16.7896 6.9128 16.8525 6.82292 16.9349C6.73303 17.0173 6.66127 17.1175 6.61217 17.2291C6.56307 17.3407 6.53772 17.4613 6.53772 17.5833C6.53772 17.7052 6.56307 17.8258 6.61217 17.9374C6.66127 18.0491 6.73303 18.1492 6.82292 18.2317C6.9128 18.3141 7.01883 18.3769 7.13429 18.4161C7.24974 18.4554 7.37209 18.4702 7.49357 18.4596H10.0995C10.2209 18.4702 10.3433 18.4554 10.4587 18.4161C10.5742 18.3769 10.6802 18.3141 10.7701 18.2317C10.86 18.1492 10.9318 18.0491 10.9809 17.9374C11.03 17.8258 11.0553 17.7052 11.0553 17.5833C11.0553 17.4613 11.03 17.3407 10.9809 17.2291C10.9318 17.1175 10.86 17.0173 10.7701 16.9349C10.6802 16.8525 10.5742 16.7896 10.4587 16.7504C10.3433 16.7112 10.2209 16.6964 10.0995 16.7069H7.49357Z" fill="#1A1A1A"/>
<path d="M3.96838 17.5801C3.97013 17.3479 4.06358 17.1259 4.22835 16.9623C4.39313 16.7988 4.61588 16.707 4.84803 16.707C5.08019 16.707 5.30294 16.7988 5.46771 16.9623C5.63249 17.1259 5.72594 17.3479 5.72768 17.5801C5.72768 17.8134 5.63501 18.0371 5.47004 18.2021C5.30507 18.367 5.08133 18.4597 4.84803 18.4597C4.61588 18.458 4.39384 18.3645 4.2303 18.1997C4.06676 18.035 3.96838 17.8122 3.96838 17.5801Z" fill="#1A1A1A"/>
<path fill-rule="evenodd" clip-rule="evenodd" d="M7.40761 13.2015C7.18682 13.2283 6.98436 13.3377 6.84098 13.5077C6.6976 13.6778 6.62395 13.8958 6.63485 14.1179C6.64574 14.34 6.74038 14.5498 6.89971 14.705C7.05904 14.8602 7.27124 14.9492 7.49359 14.9542H10.0995C10.221 14.9648 10.3433 14.95 10.4588 14.9107C10.5742 14.8715 10.6802 14.8087 10.7701 14.7263C10.86 14.6439 10.9318 14.5437 10.9809 14.4321C11.03 14.3204 11.0553 14.1998 11.0553 14.0779C11.0553 13.956 11.03 13.8353 10.9809 13.7237C10.9318 13.6121 10.86 13.5119 10.7701 13.4295C10.6802 13.3471 10.5742 13.2843 10.4588 13.245C10.3433 13.2058 10.221 13.191 10.0995 13.2015H7.49359C7.46494 13.2001 7.43625 13.2001 7.40761 13.2015Z" fill="#1A1A1A"/>
<path d="M3.96838 14.0813C3.96838 13.848 4.06106 13.6243 4.22603 13.4593C4.39099 13.2943 4.61474 13.2017 4.84803 13.2017C5.08133 13.2017 5.30507 13.2943 5.47004 13.4593C5.63501 13.6243 5.72768 13.848 5.72768 14.0813C5.72594 14.3135 5.63249 14.5355 5.46771 14.699C5.30294 14.8626 5.08019 14.9544 4.84803 14.9543C4.61703 14.9526 4.39597 14.8601 4.23262 14.6967C4.06926 14.5334 3.97011 14.3123 3.96838 14.0813ZM17.1168 18.4531C16.8847 18.4549 16.6626 18.5483 16.4991 18.7131C16.3356 18.8779 16.2438 19.1006 16.2438 19.3328V35.1069C16.2438 35.3391 16.3356 35.5618 16.4991 35.7266C16.6626 35.8914 16.8847 35.9848 17.1168 35.9866H21.5019C22.4873 35.9866 23.2546 36.7538 23.2546 37.7393C23.244 37.8608 23.2588 37.9831 23.298 38.0986C23.3373 38.214 23.4001 38.3201 23.4825 38.4099C23.5649 38.4998 23.6651 38.5716 23.7767 38.6207C23.8883 38.6698 24.009 38.6951 24.1309 38.6951C24.2528 38.6951 24.3734 38.6698 24.4851 38.6207C24.5967 38.5716 24.6969 38.4998 24.7793 38.4099C24.8617 38.3201 24.9245 38.214 24.9638 38.0986C25.003 37.9831 25.0178 37.8608 25.0072 37.7393C25.0038 36.8107 24.6333 35.9211 23.9767 35.2645C23.3201 34.6078 22.4305 34.2374 21.5019 34.2339H17.9965V20.2124H21.5019C22.4873 20.2124 23.2546 20.9796 23.2546 21.9651C23.244 22.0866 23.2588 22.2089 23.298 22.3244C23.3373 22.4398 23.4001 22.5459 23.4825 22.6358C23.5649 22.7256 23.6651 22.7974 23.7767 22.8465C23.8883 22.8956 24.009 22.9209 24.1309 22.9209C24.2528 22.9209 24.3734 22.8956 24.4851 22.8465C24.5967 22.7974 24.6969 22.7256 24.7793 22.6358C24.8617 22.5459 24.9245 22.4398 24.9638 22.3244C25.003 22.2089 25.0178 22.0866 25.0072 21.9651C25.0038 21.0365 24.6333 20.1469 23.9767 19.4903C23.3201 18.8336 22.4305 18.4632 21.5019 18.4597L17.1168 18.4531Z" fill="#1A1A1A"/>
<path d="M32.6397 26.8064C31.0656 26.7535 29.756 27.3421 28.5325 28.0961H24.1276C24.0061 28.0856 23.8838 28.1004 23.7683 28.1396C23.6529 28.1789 23.5468 28.2417 23.4569 28.3241C23.3671 28.4065 23.2953 28.5067 23.2462 28.6183C23.1971 28.7299 23.1718 28.8505 23.1718 28.9725C23.1718 29.0944 23.1971 29.215 23.2462 29.3266C23.2953 29.4383 23.3671 29.5385 23.4569 29.6209C23.5468 29.7033 23.6529 29.7661 23.7683 29.8053C23.8838 29.8446 24.0061 29.8594 24.1276 29.8488H28.5325C28.7101 29.8472 28.883 29.7919 29.0285 29.6901C30.0495 28.9211 31.3027 28.5244 32.5802 28.5657C34.2337 28.612 36.2774 30.1531 37.8779 31.9653C38.6848 32.8648 39.3793 33.8172 39.8952 34.6108C40.3515 35.3053 40.6029 35.8013 40.7153 36.0461C40.6095 36.2445 40.4309 36.5619 40.1862 36.9257C39.7034 37.6532 38.9825 38.5924 38.1293 39.525C36.4295 41.3967 34.1477 43.1428 32.5273 43.2949C31.2692 43.4191 30.0117 43.0544 29.0153 42.2764C28.9228 42.1933 28.8138 42.1307 28.6954 42.0928C28.577 42.0549 28.4519 42.0425 28.3283 42.0565C28.2048 42.0705 28.0856 42.1105 27.9787 42.1739C27.8717 42.2373 27.7794 42.3227 27.7079 42.4244C27.6363 42.526 27.5872 42.6417 27.5636 42.7638C27.54 42.8859 27.5426 43.0116 27.5711 43.1326C27.5997 43.2536 27.6535 43.3671 27.7292 43.4658C27.8048 43.5645 27.9005 43.646 28.01 43.705C29.3592 44.6508 30.9069 45.2129 32.6926 45.041C35.2522 44.7963 37.5935 42.7129 39.4256 40.7089C40.234 39.8275 40.9768 38.888 41.6479 37.898C41.9124 37.4879 42.1241 37.1373 42.2762 36.8331C42.3525 36.6888 42.4167 36.5384 42.468 36.3834C42.5143 36.2246 42.6399 36.0725 42.468 35.6294C42.2894 35.1399 41.9256 34.505 41.3635 33.6452C40.8013 32.7854 40.0605 31.7801 39.1941 30.8012C37.448 28.8303 35.2125 26.8924 32.6397 26.8064Z" fill="#1A1A1A"/>
</g>
<defs>
<clipPath id="clip0_31_16506">
<rect width="56" height="56" fill="white"/>
</clipPath>
</defs>
</svg>
