<svg width="24" height="24" viewBox="0 0 24 24" fill="none" xmlns="http://www.w3.org/2000/svg">
<g clip-path="url(#clip0_124_8322)">
<path d="M21.9933 10.4906C21.9933 12.9564 21.0138 15.3212 19.2702 17.0648C17.5266 18.8084 15.1618 19.7879 12.696 19.7879C11.4751 19.7875 10.2662 19.5467 9.13835 19.0791C8.0105 18.6115 6.98578 17.9264 6.12272 17.0628C5.25965 16.1992 4.57513 15.1741 4.10824 14.0459C3.64135 12.9178 3.40124 11.7087 3.40161 10.4878C3.40236 8.0225 4.38223 5.65843 6.12572 3.91547C7.86922 2.1725 10.2336 1.19336 12.6989 1.19336C15.1642 1.19411 17.5283 2.17397 19.2712 3.91747C21.0142 5.66096 21.9933 8.02533 21.9933 10.4906Z" fill="#C3DBFF"/>
<path fill-rule="evenodd" clip-rule="evenodd" d="M7.86594 5.32898C7.83008 5.3315 7.79476 5.33914 7.76106 5.35166L1.75185 7.60511C1.68345 7.63082 1.62399 7.67585 1.58071 7.73473C1.53743 7.79361 1.5122 7.86379 1.50808 7.93675L0.756929 22.2086C0.751996 22.2974 0.778589 22.385 0.832011 22.4561C0.885433 22.5272 0.962247 22.577 1.04889 22.597L7.80925 24.0993C7.85205 24.1087 7.89618 24.1106 7.93964 24.1049L19.9581 22.6026C20.0515 22.59 20.1367 22.5428 20.1971 22.4704C20.2574 22.398 20.2884 22.3056 20.284 22.2115L19.5329 7.18843C19.5285 7.10105 19.4939 7.01792 19.4349 6.95328C19.376 6.88863 19.2964 6.84651 19.2097 6.83412L7.94247 5.33181C7.91703 5.32922 7.89139 5.32922 7.86594 5.33181V5.32898ZM7.9368 6.08863L18.7987 7.53708L19.5159 21.8997L7.91129 23.3509L1.52225 21.9337L2.24506 8.2202L7.9368 6.08863Z" fill="#1A1A1A"/>
<path fill-rule="evenodd" clip-rule="evenodd" d="M7.51733 5.70593V23.7336H8.26849V5.70593H7.51733Z" fill="#1A1A1A"/>
<path fill-rule="evenodd" clip-rule="evenodd" d="M7.88017 9.83594L1.83694 10.5899L1.92765 11.3382L7.90001 10.5928L19.1333 11.3382L19.1843 10.5871L7.88017 9.83594ZM7.88017 11.3382L1.83694 12.0922L1.93048 12.8377L7.90284 12.0922L19.1333 12.8405L19.1843 12.0894L7.88017 11.3382ZM19.8873 18.8498L7.90001 19.6009L1.17366 18.8498L1.08862 19.5952L7.883 20.3492L19.9326 19.5981L19.8873 18.8498ZM7.88017 12.8405C7.86883 12.84 7.85748 12.84 7.84615 12.8405L7.095 12.9341L6.34385 13.0276C6.29172 13.0298 6.2406 13.0427 6.19372 13.0656C6.14685 13.0885 6.10524 13.1209 6.07152 13.1607C6.03781 13.2005 6.01273 13.2469 5.99786 13.2969C5.983 13.3469 5.97868 13.3995 5.98518 13.4512C5.99167 13.503 6.00884 13.5529 6.0356 13.5976C6.06236 13.6424 6.09812 13.6812 6.14063 13.7114C6.18313 13.7417 6.23146 13.7628 6.28254 13.7734C6.33362 13.784 6.38635 13.7839 6.43739 13.7731L7.18854 13.6796L7.90284 13.5917L9.27476 13.6824C9.32675 13.6913 9.38003 13.6893 9.43117 13.6763C9.4823 13.6634 9.53015 13.6398 9.57162 13.6072C9.61309 13.5746 9.64726 13.5337 9.67191 13.4871C9.69657 13.4404 9.71116 13.3891 9.71475 13.3365C9.71834 13.2839 9.71084 13.2311 9.69274 13.1815C9.67465 13.132 9.64635 13.0868 9.60969 13.0489C9.57303 13.0109 9.52882 12.9811 9.47991 12.9613C9.43101 12.9416 9.3785 12.9323 9.32578 12.9341L7.91702 12.8405C7.9038 12.8398 7.89338 12.8398 7.88017 12.8405ZM10.6949 13.0276C10.6007 13.0343 10.5124 13.076 10.4475 13.1446C10.3826 13.2132 10.3458 13.3036 10.3444 13.398C10.343 13.4924 10.377 13.5839 10.4398 13.6544C10.5026 13.7249 10.5896 13.7693 10.6835 13.7788L12.0923 13.8751L12.4438 13.8978C12.4946 13.9041 12.5462 13.8999 12.5954 13.8855C12.6445 13.8711 12.6903 13.8469 12.7297 13.8143C12.7692 13.7816 12.8017 13.7413 12.825 13.6957C12.8484 13.6501 12.8623 13.6003 12.8657 13.5492C12.8692 13.4981 12.8622 13.4468 12.8452 13.3985C12.8282 13.3502 12.8016 13.3058 12.7668 13.2681C12.7321 13.2305 12.6901 13.2003 12.6433 13.1794C12.5965 13.1585 12.546 13.1474 12.4948 13.1467L12.1405 13.124L10.7345 13.0305C10.7213 13.0298 10.7081 13.0269 10.6949 13.0276ZM5.24122 13.1693C5.23366 13.1691 5.2261 13.1691 5.21854 13.1693L4.84155 13.2175C4.78821 13.2178 4.73554 13.2294 4.68701 13.2515C4.63848 13.2736 4.59519 13.3058 4.56001 13.3458C4.52482 13.3859 4.49855 13.433 4.48291 13.484C4.46728 13.535 4.46264 13.5887 4.4693 13.6416C4.47597 13.6946 4.49379 13.7455 4.52158 13.791C4.54937 13.8365 4.5865 13.8756 4.63053 13.9057C4.67455 13.9358 4.72446 13.9562 4.77696 13.9656C4.82946 13.975 4.88336 13.9732 4.93509 13.9602L5.30924 13.9148C5.40241 13.8985 5.48604 13.8478 5.54353 13.7726C5.60103 13.6975 5.62819 13.6036 5.61962 13.5094C5.61106 13.4152 5.5674 13.3276 5.4973 13.2641C5.42721 13.2006 5.3358 13.1686 5.24122 13.1693ZM13.5124 13.2175C13.4182 13.2242 13.3299 13.2659 13.265 13.3345C13.2001 13.4031 13.1634 13.4935 13.1619 13.5879C13.1605 13.6823 13.1946 13.7738 13.2573 13.8443C13.3201 13.9148 13.4071 13.9592 13.501 13.9687L14.204 14.014L14.5555 14.0367C14.6075 14.0457 14.6608 14.0436 14.7119 14.0306C14.763 14.0177 14.8109 13.9941 14.8524 13.9615C14.8938 13.9289 14.928 13.888 14.9527 13.8414C14.9773 13.7947 14.9919 13.7434 14.9955 13.6908C14.9991 13.6382 14.9916 13.5854 14.9735 13.5358C14.9554 13.4863 14.9271 13.4411 14.8904 13.4032C14.8538 13.3652 14.8096 13.3354 14.7607 13.3157C14.7117 13.2959 14.6592 13.2866 14.6065 13.2884L14.255 13.2657L13.5492 13.2175C13.537 13.2169 13.5247 13.2169 13.5124 13.2175ZM15.6241 13.3564C15.5299 13.3631 15.4417 13.4048 15.3768 13.4734C15.3119 13.542 15.2751 13.6324 15.2737 13.7268C15.2722 13.8212 15.3063 13.9127 15.3691 13.9832C15.4319 14.0537 15.5188 14.0981 15.6128 14.1076L16.3157 14.1529L16.6701 14.1756C16.7221 14.1845 16.7755 14.1823 16.8267 14.1693C16.8779 14.1562 16.9257 14.1325 16.9672 14.0998C17.0086 14.067 17.0427 14.0259 17.0673 13.9791C17.0918 13.9323 17.1062 13.8809 17.1096 13.8282C17.113 13.7755 17.1053 13.7226 17.087 13.6731C17.0686 13.6236 17.0401 13.5784 17.0032 13.5406C16.9663 13.5028 16.9218 13.4732 16.8728 13.4537C16.8237 13.4342 16.771 13.4252 16.7182 13.4273L16.3668 13.4046L15.6638 13.3564C15.6506 13.3557 15.6373 13.3557 15.6241 13.3564ZM3.73891 13.3564C3.73136 13.3562 3.72379 13.3562 3.71624 13.3564L3.33924 13.4018C3.28711 13.4039 3.23599 13.4168 3.18912 13.4397C3.14224 13.4626 3.10063 13.495 3.06692 13.5349C3.0332 13.5747 3.00812 13.6211 2.99326 13.6711C2.9784 13.7211 2.97408 13.7736 2.98057 13.8254C2.98707 13.8772 3.00424 13.927 3.03099 13.9718C3.05775 14.0166 3.09352 14.0553 3.13602 14.0856C3.17853 14.1159 3.22685 14.137 3.27793 14.1476C3.32901 14.1582 3.38174 14.1581 3.43278 14.1473L3.80694 14.1019C3.90011 14.0856 3.98374 14.0348 4.04123 13.9597C4.09872 13.8846 4.12588 13.7906 4.11732 13.6964C4.10876 13.6022 4.0651 13.5147 3.995 13.4512C3.9249 13.3877 3.8335 13.3557 3.73891 13.3564ZM17.7358 13.4953C17.6443 13.5051 17.5595 13.5481 17.4975 13.6161C17.4354 13.6841 17.4004 13.7724 17.399 13.8645C17.3976 13.9565 17.4299 14.0459 17.4899 14.1157C17.5499 14.1856 17.6333 14.2311 17.7245 14.2436L18.4303 14.2918L19.1333 14.3372C19.1853 14.3461 19.2385 14.344 19.2897 14.3311C19.3408 14.3181 19.3887 14.2946 19.4301 14.262C19.4716 14.2294 19.5058 14.1885 19.5304 14.1418C19.5551 14.0952 19.5697 14.0439 19.5733 13.9913C19.5768 13.9387 19.5693 13.8859 19.5513 13.8363C19.5332 13.7868 19.5049 13.7416 19.4682 13.7036C19.4315 13.6657 19.3873 13.6359 19.3384 13.6161C19.2895 13.5963 19.237 13.5871 19.1843 13.5889L18.4785 13.5407L17.7755 13.4953C17.7623 13.4946 17.7491 13.4946 17.7358 13.4953ZM2.27629 13.5407C2.25531 13.5418 2.23445 13.5446 2.21393 13.5492L1.83694 13.5945C1.78481 13.5967 1.73369 13.6096 1.68681 13.6325C1.63994 13.6554 1.59833 13.6878 1.56461 13.7276C1.5309 13.7674 1.50582 13.8138 1.49096 13.8638C1.47609 13.9138 1.47177 13.9664 1.47827 14.0181C1.48476 14.0699 1.50193 14.1198 1.52869 14.1646C1.55545 14.2093 1.59121 14.2481 1.63372 14.2783C1.67622 14.3086 1.72455 14.3297 1.77563 14.3403C1.82671 14.3509 1.87944 14.3508 1.93048 14.34L2.30464 14.2947C2.39889 14.2837 2.48555 14.2376 2.5473 14.1655C2.60905 14.0935 2.64137 14.0008 2.63779 13.906C2.63421 13.8112 2.595 13.7212 2.528 13.654C2.46099 13.5868 2.37111 13.5445 2.27629 13.5407Z" fill="#1A1A1A"/>
</g>
<defs>
<clipPath id="clip0_124_8322">
<rect width="24" height="24" fill="white"/>
</clipPath>
</defs>
</svg>
