<svg width="54" height="56" viewBox="0 0 54 56" fill="none" xmlns="http://www.w3.org/2000/svg">
<g clip-path="url(#clip0_26_261)">
<path d="M44.575 25.0875C44.575 27.7388 44.0528 30.3643 43.0381 32.8138C42.0235 35.2634 40.5363 37.4891 38.6615 39.3639C36.7867 41.2387 34.5609 42.7259 32.1114 43.7406C29.6618 44.7552 27.0364 45.2774 24.385 45.2774C19.0314 45.2758 13.8975 43.1479 10.1125 39.3618C6.32748 35.5756 4.20117 30.4411 4.20117 25.0875C4.20117 19.7327 6.32833 14.5973 10.1147 10.811C13.901 7.02461 19.0364 4.89746 24.3912 4.89746C27.0426 4.89746 29.668 5.41969 32.1175 6.43433C34.5671 7.44897 36.7928 8.93616 38.6676 10.811C40.5425 12.6858 42.0296 14.9115 43.0443 17.3611C44.0589 19.8106 44.575 22.4361 44.575 25.0875Z" fill="#C3DBFF"/>
<path d="M7.29735 1.52557C5.48351 1.94967 3.86587 2.97351 2.7063 4.43136C1.54673 5.8892 0.913091 7.69571 0.907959 9.55847C0.907959 14.1135 4.61356 17.8191 9.16246 17.8191C12.6218 17.7822 16.2413 15.6524 17.2015 11.4051C17.417 10.4695 16.1182 9.99551 15.6811 10.8511C15.2604 11.6551 14.6565 12.3489 13.9181 12.8764C13.1798 13.4039 12.3278 13.7504 11.4308 13.8878C10.5339 14.0252 9.61717 13.9498 8.75476 13.6675C7.89235 13.3853 7.10842 12.9042 6.46628 12.263C5.82413 11.6219 5.34178 10.8387 5.05818 9.97676C4.77458 9.1148 4.69768 8.19823 4.8337 7.30106C4.96971 6.4039 5.31483 5.5513 5.84118 4.81214C6.36752 4.07297 7.06033 3.46796 7.86366 3.04597C7.96307 2.99334 8.05037 2.9205 8.11995 2.83212C8.18953 2.74374 8.23985 2.64178 8.26768 2.53279C8.2955 2.42381 8.30022 2.3102 8.28153 2.19928C8.26283 2.08837 8.22113 1.98259 8.15912 1.88874C8.07098 1.74748 7.94187 1.63644 7.78899 1.57045C7.63612 1.50447 7.46676 1.48666 7.30351 1.51941L7.29735 1.52557ZM3.32706 6.44996C3.03592 7.68473 3.06526 8.97343 3.41231 10.1937C3.75936 11.4139 4.41258 12.5252 5.30995 13.4219C6.20732 14.3187 7.31904 14.9711 8.53952 15.3174C9.76 15.6636 11.0487 15.692 12.2833 15.4C11.4215 15.8124 10.172 16.1879 9.16246 16.1879C5.49995 16.1879 2.53916 13.2333 2.53916 9.55847C2.53916 8.55513 2.9208 7.31172 3.32706 6.44996Z" fill="#1A1A1A"/>
<path fill-rule="evenodd" clip-rule="evenodd" d="M25.3329 25.1566C25.1885 25.164 25.0487 25.2095 24.9276 25.2884C24.8065 25.3673 24.7085 25.4769 24.6435 25.606L22.606 29.6871C22.511 29.8793 22.4952 30.101 22.5619 30.3048C22.6287 30.5085 22.7727 30.6779 22.963 30.7766L37.2376 38.1139C37.3379 38.165 37.4477 38.1949 37.56 38.2017C37.6724 38.2084 37.785 38.192 37.8907 38.1533C37.9964 38.1145 38.093 38.0545 38.1745 37.9767C38.2559 37.899 38.3204 37.8053 38.364 37.7015L40.4015 32.8079C40.408 32.7958 40.4141 32.7834 40.42 32.771L42.4513 27.0648C42.5002 26.9617 42.5271 26.8495 42.5301 26.7354C42.5331 26.6213 42.5122 26.5078 42.4688 26.4022C42.4253 26.2967 42.3603 26.2013 42.2779 26.1224C42.1954 26.0435 42.0973 25.9826 41.99 25.9438C41.8826 25.905 41.7683 25.8891 41.6545 25.8971C41.5406 25.9051 41.4297 25.9368 41.3288 25.9902C41.2279 26.0436 41.1392 26.1175 41.0686 26.2071C40.998 26.2968 40.9469 26.4003 40.9186 26.5109L38.8873 32.2047L37.1945 36.2611L24.428 29.6932L25.7822 26.991L34.0675 30.0072C34.1698 30.0495 34.2797 30.0707 34.3904 30.0694C34.5012 30.0681 34.6105 30.0443 34.7118 29.9995C34.8131 29.9547 34.9042 29.8898 34.9797 29.8088C35.0552 29.7278 35.1134 29.6323 35.151 29.5281C35.1885 29.4239 35.2045 29.3131 35.1979 29.2026C35.1914 29.092 35.1625 28.9839 35.113 28.8849C35.0635 28.7858 34.9945 28.6978 34.91 28.6262C34.8255 28.5546 34.7274 28.5009 34.6215 28.4683L25.653 25.2059C25.5506 25.1683 25.4418 25.1516 25.3329 25.1566Z" fill="#1A1A1A"/>
<path fill-rule="evenodd" clip-rule="evenodd" d="M42.4822 15.3687C42.3238 15.372 42.1699 15.4212 42.039 15.5102L34.2954 20.8101C34.1376 20.9173 34.0222 21.0762 33.9691 21.2595L31.9317 28.1905C31.8965 28.2949 31.8828 28.4054 31.8913 28.5152C31.8999 28.6251 31.9305 28.7321 31.9814 28.8298C32.0322 28.9275 32.1023 29.014 32.1874 29.084C32.2725 29.154 32.3708 29.2061 32.4765 29.2372C32.5822 29.2683 32.6931 29.2777 32.8026 29.2649C32.912 29.2521 33.0177 29.2174 33.1134 29.1627C33.2091 29.1081 33.2928 29.0348 33.3594 28.947C33.4261 28.8593 33.4743 28.759 33.5013 28.6522L35.4526 21.9981L42.3467 17.2769L45.7446 21.3518L44.1811 47.1679L28.6508 47.0694C28.5433 47.0686 28.4367 47.089 28.337 47.1294C28.2374 47.1698 28.1467 47.2294 28.0701 47.3048C27.9935 47.3803 27.9325 47.4701 27.8906 47.5691C27.8487 47.6681 27.8268 47.7744 27.826 47.8819C27.8251 47.9894 27.8455 48.096 27.8859 48.1957C27.9263 48.2953 27.9859 48.386 28.0614 48.4626C28.1368 48.5392 28.2266 48.6002 28.3256 48.6421C28.4247 48.684 28.531 48.7059 28.6385 48.7068L44.9505 48.8176C45.1594 48.8179 45.3605 48.7385 45.5127 48.5954C45.6649 48.4524 45.7566 48.2566 45.7692 48.0481L47.4004 21.1363C47.4137 20.929 47.3477 20.7244 47.2157 20.5639L43.1346 15.6703C43.056 15.5756 42.9571 15.4999 42.8452 15.4488C42.7333 15.3976 42.6113 15.3723 42.4883 15.3748L42.4822 15.3687Z" fill="#1A1A1A"/>
<path fill-rule="evenodd" clip-rule="evenodd" d="M44.9381 47.1739C44.7688 47.1772 44.6048 47.2329 44.4685 47.3333C44.3322 47.4337 44.2304 47.5739 44.1771 47.7345C44.1238 47.8952 44.1215 48.0684 44.1707 48.2304C44.2199 48.3923 44.3181 48.5351 44.4518 48.6389C44.4518 48.6389 45.9291 49.8577 47.0556 50.3624C47.9481 50.7749 48.9207 50.8549 49.7455 50.978C50.5703 51.1011 51.192 51.3104 51.3028 51.4273C51.2228 51.3473 51.3829 51.7167 51.4383 52.0675H43.3315C43.2184 52.0577 43.1046 52.0715 42.9971 52.108C42.8897 52.1445 42.791 52.203 42.7073 52.2797C42.6237 52.3564 42.5569 52.4496 42.5112 52.5535C42.4655 52.6574 42.4419 52.7696 42.4419 52.8831C42.4419 52.9966 42.4655 53.1089 42.5112 53.2127C42.5569 53.3166 42.6237 53.4099 42.7073 53.4866C42.791 53.5633 42.8897 53.6217 42.9971 53.6582C43.1046 53.6948 43.2184 53.7086 43.3315 53.6987H52.2877C52.4965 53.6974 52.6969 53.6164 52.848 53.4723C52.999 53.3281 53.0893 53.1316 53.1003 52.9231C53.1003 52.9231 53.1249 52.4861 53.0756 51.969C53.0264 51.4581 53.0264 50.8364 52.4601 50.2701C51.7584 49.5684 50.8412 49.4884 49.9794 49.3653C49.1177 49.2422 48.2559 49.119 47.7327 48.8851C47.0802 48.5897 45.4674 47.3586 45.4674 47.3586C45.3182 47.2366 45.1308 47.1712 44.9381 47.1739Z" fill="#1A1A1A"/>
<path d="M39.3491 1.52017C40.3372 1.60188 41.2844 1.95111 42.089 2.53038C42.8937 3.10965 43.5255 3.8971 43.9165 4.80823C44.3075 5.71935 44.443 6.71975 44.3086 7.70208C44.1741 8.6844 43.7747 9.61156 43.1531 10.3841C43.0926 10.4828 43.0118 10.5675 42.9162 10.6327C42.8205 10.6978 42.7121 10.742 42.5981 10.7622C42.4841 10.7823 42.3671 10.7781 42.2548 10.7498C42.1426 10.7214 42.0376 10.6696 41.9469 10.5977C41.8561 10.5258 41.7817 10.4355 41.7284 10.3327C41.6751 10.2299 41.6443 10.117 41.6379 10.0014C41.6314 9.88583 41.6496 9.77019 41.6912 9.66213C41.7327 9.55408 41.7967 9.45607 41.879 9.37457C42.3195 8.83436 42.6036 8.18381 42.7006 7.49353C42.7975 6.80325 42.7036 6.0996 42.4289 5.45894C42.1543 4.81828 41.7094 4.26508 41.1426 3.85937C40.5757 3.45365 39.9086 3.21093 39.2136 3.15753C38.5199 3.09775 37.8229 3.22769 37.1973 3.53345C36.5717 3.8392 36.041 4.30927 35.6619 4.89338C35.6074 4.99111 35.5333 5.07661 35.4444 5.14461C35.3555 5.2126 35.2536 5.26164 35.145 5.2887C35.0364 5.31575 34.9233 5.32024 34.8129 5.3019C34.7025 5.28355 34.597 5.24276 34.503 5.18204C34.409 5.12132 34.3284 5.04196 34.2662 4.94887C34.2041 4.85578 34.1617 4.75093 34.1416 4.6408C34.1216 4.53068 34.1244 4.41761 34.1498 4.3086C34.1751 4.19958 34.2226 4.09693 34.2892 4.00699C34.8288 3.17394 35.5846 2.50312 36.4757 2.06621C37.3669 1.62929 38.3601 1.44268 39.3491 1.52633V1.52017Z" fill="#1A1A1A"/>
<path fill-rule="evenodd" clip-rule="evenodd" d="M19.6328 19.3394C19.4364 19.3489 19.2499 19.4287 19.1075 19.5643C18.9651 19.7 18.8762 19.8823 18.8572 20.0781C18.8572 20.0781 18.7649 21.1245 18.771 22.3987C18.771 23.6667 18.8388 25.1502 19.325 26.2951C19.7867 27.3785 20.7531 28.388 21.6087 29.2251C22.4705 30.0623 23.2276 30.684 23.2276 30.684C23.3103 30.7566 23.4067 30.8119 23.5112 30.8464C23.6157 30.8809 23.7261 30.894 23.8358 30.8849C23.9455 30.8758 24.0522 30.8447 24.1495 30.7934C24.2469 30.7421 24.3329 30.6717 24.4025 30.5865C24.472 30.5012 24.5237 30.4027 24.5543 30.297C24.585 30.1913 24.594 30.0806 24.5809 29.9713C24.5677 29.862 24.5327 29.7565 24.4779 29.6611C24.423 29.5657 24.3495 29.4823 24.2617 29.416C24.2617 29.416 23.5477 28.8374 22.7475 28.0618C21.9473 27.28 21.0794 26.252 20.827 25.655C20.55 25.0086 20.4146 23.5867 20.4023 22.3987C21.0099 23.0868 21.7895 23.6009 22.6613 23.8883C23.3138 24.1099 24.1879 24.6147 24.5818 26.1659C24.6044 26.2736 24.6484 26.3757 24.7113 26.466C24.7742 26.5563 24.8546 26.633 24.9478 26.6915C25.041 26.75 25.1451 26.7892 25.2537 26.8065C25.3624 26.8239 25.4734 26.8193 25.5803 26.7928C25.6871 26.7663 25.7874 26.7185 25.8754 26.6523C25.9633 26.5862 26.037 26.503 26.092 26.4077C26.1471 26.3124 26.1824 26.207 26.1957 26.0977C26.2091 25.9885 26.2004 25.8777 26.1699 25.7719C26.0024 24.9974 25.6421 24.2776 25.1224 23.6794C24.6026 23.0811 23.9404 22.6237 23.1968 22.3495C22.5306 22.1586 21.9368 21.7727 21.4918 21.2415C21.1224 20.8044 20.8147 20.232 20.2853 19.6164C20.2042 19.5243 20.1035 19.4516 19.9906 19.4037C19.8777 19.3557 19.7554 19.3338 19.6328 19.3394ZM34.3567 3.13821C34.2492 3.1374 34.1426 3.15777 34.043 3.19816C33.9433 3.23856 33.8526 3.29818 33.776 3.37363C33.6994 3.44908 33.6385 3.53888 33.5966 3.6379C33.5547 3.73692 33.5327 3.84322 33.5319 3.95073V5.39727L32.7994 6.85612C32.7422 6.97079 32.7126 7.09729 32.7132 7.22545V8.60428L31.2236 10.8449C31.1194 11.0015 31.0724 11.1891 31.0903 11.3763C31.1082 11.5635 31.1901 11.7389 31.3221 11.8728L31.9007 12.4515V14.1011L31.6175 14.2058C31.5141 14.245 31.4198 14.3047 31.3401 14.3814C31.2604 14.458 31.1971 14.5501 31.1539 14.6519C31.1108 14.7537 31.0887 14.8632 31.089 14.9738C31.0894 15.0844 31.1121 15.1937 31.1559 15.2953L34.0059 21.8201L35.5017 21.1676L32.9964 15.4307L39.9336 12.8762C40.0888 12.8176 40.2225 12.7132 40.317 12.5769C40.4116 12.4406 40.4625 12.2788 40.463 12.1129V9.23214L41.6879 10.0939V16.1878H43.3191V9.66302C43.318 9.53224 43.2855 9.40364 43.2245 9.28797C43.1635 9.17231 43.0756 9.07296 42.9683 8.99823L34.8122 3.27978C34.6778 3.18842 34.5193 3.13914 34.3567 3.13821ZM35.1569 5.52038L38.8318 8.08722V11.5404L33.5319 13.4917V12.1067C33.5301 11.8918 33.4439 11.6862 33.2918 11.5343L32.9533 11.1834L34.209 9.29369C34.2982 9.15858 34.3453 9.00007 34.3444 8.83818V7.3978L35.0769 5.95126C35.1342 5.8366 35.1637 5.71009 35.1631 5.58193L35.1569 5.52038Z" fill="#1A1A1A"/>
<path d="M11.7846 3.95071C11.5686 3.95556 11.3632 4.04564 11.2133 4.20131C11.0634 4.35698 10.9811 4.56561 10.9844 4.7817V7.47164C10.9702 7.58674 10.9807 7.70354 11.015 7.81431C11.0493 7.92508 11.1068 8.02728 11.1837 8.11416C11.2605 8.20103 11.3549 8.2706 11.4606 8.31824C11.5663 8.36589 11.681 8.39053 11.797 8.39053C11.9129 8.39053 12.0276 8.36589 12.1333 8.31824C12.239 8.2706 12.3334 8.20103 12.4103 8.11416C12.4871 8.02728 12.5446 7.92508 12.5789 7.81431C12.6132 7.70354 12.6237 7.58674 12.6095 7.47164V4.7817C12.6111 4.67264 12.591 4.56434 12.5502 4.46319C12.5094 4.36203 12.4488 4.27004 12.3719 4.19263C12.2951 4.11521 12.2036 4.05393 12.1027 4.01239C12.0018 3.97085 11.8937 3.94987 11.7846 3.95071Z" fill="#1A1A1A"/>
<path d="M9.24865 5.8273C9.05145 5.82347 8.8595 5.89096 8.70809 6.01736C8.55668 6.14375 8.45599 6.32056 8.42454 6.51527C8.39309 6.70998 8.43299 6.9095 8.5369 7.07714C8.64081 7.24478 8.80175 7.36928 8.99012 7.42773L11.5446 8.25256C11.6491 8.29686 11.7616 8.31897 11.8751 8.31746C11.9886 8.31596 12.1005 8.29089 12.2037 8.24384C12.307 8.19679 12.3993 8.12878 12.4749 8.04414C12.5505 7.95951 12.6077 7.86008 12.6428 7.75218C12.6779 7.64427 12.6902 7.53025 12.6789 7.41734C12.6676 7.30444 12.6329 7.19511 12.5771 7.0963C12.5213 6.9975 12.4456 6.91137 12.3548 6.84338C12.2639 6.7754 12.1599 6.72704 12.0494 6.70138L9.49487 5.87039C9.41548 5.84351 9.33244 5.82898 9.24865 5.8273Z" fill="#1A1A1A"/>
<path d="M11.8154 6.65289C11.6831 6.65135 11.5523 6.6819 11.4344 6.74193C11.3165 6.80197 11.2149 6.88969 11.1383 6.99759L9.55631 9.17664C9.47829 9.26173 9.41915 9.36237 9.38277 9.47194C9.34639 9.58151 9.3336 9.69754 9.34523 9.81241C9.35687 9.92727 9.39266 10.0384 9.45028 10.1384C9.50789 10.2385 9.58601 10.3252 9.67951 10.3929C9.77301 10.4607 9.87978 10.5078 9.99281 10.5314C10.1058 10.5549 10.2226 10.5543 10.3353 10.5295C10.4481 10.5048 10.5543 10.4564 10.6471 10.3877C10.7399 10.319 10.8171 10.2314 10.8736 10.1307L12.4555 7.95785C12.5447 7.83722 12.5989 7.69442 12.6124 7.54504C12.6259 7.39567 12.5981 7.24545 12.5321 7.1108C12.466 6.97614 12.3643 6.86222 12.2379 6.78147C12.1115 6.70072 11.9653 6.65624 11.8154 6.65289Z" fill="#1A1A1A"/>
<path d="M11.754 6.65353C11.6061 6.66117 11.4631 6.70875 11.3402 6.79122C11.2172 6.87369 11.1189 6.98796 11.0558 7.12185C10.9926 7.25575 10.967 7.40426 10.9815 7.55159C10.9961 7.69891 11.0503 7.83954 11.1384 7.95849L12.7142 10.1314C12.7725 10.2286 12.8503 10.3127 12.9428 10.3782C13.0352 10.4438 13.1403 10.4895 13.2513 10.5123C13.3623 10.5352 13.4769 10.5348 13.5877 10.511C13.6985 10.4873 13.8032 10.4409 13.8952 10.3746C13.9871 10.3083 14.0643 10.2236 14.1218 10.126C14.1794 10.0283 14.216 9.91977 14.2294 9.80721C14.2428 9.69466 14.2326 9.58055 14.1996 9.47212C14.1666 9.36368 14.1115 9.26328 14.0377 9.17727L12.4557 6.99823C12.3768 6.88681 12.2712 6.79691 12.1486 6.7367C12.0261 6.6765 11.8904 6.6479 11.754 6.65353Z" fill="#1A1A1A"/>
<path d="M14.3146 5.82111C14.2435 5.82428 14.1731 5.83669 14.1053 5.85805L11.5446 6.68904C11.4341 6.71469 11.3301 6.76305 11.2392 6.83104C11.1484 6.89902 11.0727 6.98515 11.0169 7.08396C10.9611 7.18276 10.9264 7.29209 10.9151 7.405C10.9038 7.5179 10.9161 7.63193 10.9512 7.73983C10.9863 7.84773 11.0435 7.94716 11.1191 8.0318C11.1947 8.11644 11.287 8.18444 11.3903 8.23149C11.4935 8.27854 11.6054 8.30361 11.7189 8.30512C11.8324 8.30662 11.9449 8.28452 12.0494 8.24022L14.6039 7.40923C14.7904 7.34661 14.9481 7.21894 15.0481 7.04959C15.1482 6.88023 15.1839 6.68051 15.1488 6.48696C15.1137 6.29341 15.01 6.11898 14.8569 5.99558C14.7037 5.87218 14.5112 5.80806 14.3146 5.81496V5.82111ZM31.0821 34.5364V39.2762L18.1987 44.1759C17.3189 44.4811 16.5296 45.0017 15.9027 45.6902C15.2868 46.3973 14.8939 47.2708 14.7734 48.2007C14.6529 49.1307 14.8102 50.0755 15.2256 50.9162C15.6583 51.7623 16.3185 52.4709 17.1319 52.9624C17.9453 53.4539 18.8796 53.7088 19.8299 53.6985H43.3192C43.4663 53.6972 43.6103 53.6563 43.7361 53.5801C43.8619 53.5039 43.9649 53.3952 44.0342 53.2654C44.1035 53.1357 44.1365 52.9897 44.1298 52.8427C44.1232 52.6958 44.0771 52.5534 43.9963 52.4304L40.7339 47.543L39.3797 48.4478L41.7927 52.0673H19.8299C19.1842 52.0754 18.5488 51.9042 17.9946 51.5728C17.4404 51.2413 16.9889 50.7626 16.6906 50.1898C16.413 49.6385 16.3068 49.0167 16.3858 48.4045C16.4648 47.7923 16.7253 47.2178 17.1338 46.7551C17.586 46.2735 18.1508 45.9118 18.7773 45.7025L32.1901 40.5996C32.3441 40.54 32.4765 40.4352 32.5699 40.299C32.6633 40.1628 32.7133 40.0015 32.7133 39.8363V34.5364H31.0821ZM6.61406 27.6054C6.61245 27.8204 6.52633 28.0261 6.3743 28.1781C6.22227 28.3302 6.01653 28.4163 5.80154 28.4179C5.58654 28.4163 5.38081 28.3302 5.22878 28.1781C5.07675 28.0261 4.99062 27.8204 4.98901 27.6054C4.98901 27.3893 5.07442 27.182 5.22662 27.0286C5.37882 26.8753 5.58548 26.7883 5.80154 26.7867C6.01866 26.7867 6.2269 26.8729 6.38043 27.0265C6.53396 27.18 6.61406 27.3882 6.61406 27.6054ZM7.43274 43.0987C7.43113 43.3137 7.34501 43.5195 7.19298 43.6715C7.04095 43.8235 6.83521 43.9096 6.62022 43.9112C6.40415 43.9113 6.19685 43.8258 6.04349 43.6736C5.89013 43.5214 5.80316 43.3148 5.80154 43.0987C5.80154 42.8816 5.88779 42.6734 6.04132 42.5198C6.19486 42.3663 6.40309 42.28 6.62022 42.28C6.83628 42.2817 7.04293 42.3686 7.19514 42.522C7.34734 42.6753 7.43275 42.8827 7.43274 43.0987Z" fill="#1A1A1A"/>
<path fill-rule="evenodd" clip-rule="evenodd" d="M10.6829 33.3126C10.4679 33.3174 10.2635 33.4067 10.1138 33.561C9.96404 33.7153 9.88105 33.9224 9.88272 34.1374V37.3814C9.87289 37.4944 9.88667 37.6083 9.92319 37.7158C9.95971 37.8232 10.0182 37.9219 10.0949 38.0055C10.1716 38.0892 10.2648 38.156 10.3687 38.2017C10.4726 38.2474 10.5848 38.271 10.6983 38.271C10.8118 38.271 10.9241 38.2474 11.0279 38.2017C11.1318 38.156 11.2251 38.0892 11.3018 38.0055C11.3785 37.9219 11.4369 37.8232 11.4734 37.7158C11.51 37.6083 11.5238 37.4944 11.5139 37.3814V34.1374C11.5148 34.0284 11.4938 33.9202 11.4522 33.8194C11.4107 33.7185 11.3494 33.627 11.272 33.5501C11.1946 33.4733 11.1026 33.4127 11.0014 33.3719C10.9003 33.3311 10.792 33.3109 10.6829 33.3126Z" fill="#1A1A1A"/>
<path fill-rule="evenodd" clip-rule="evenodd" d="M9.07637 34.9435C8.96331 34.9337 8.84944 34.9475 8.74198 34.984C8.63453 35.0205 8.53585 35.079 8.4522 35.1557C8.36854 35.2324 8.30175 35.3256 8.25606 35.4295C8.21036 35.5334 8.18677 35.6456 8.18677 35.7591C8.18677 35.8726 8.21036 35.9848 8.25606 36.0887C8.30175 36.1926 8.36854 36.2859 8.4522 36.3626C8.53585 36.4393 8.63453 36.4977 8.74198 36.5342C8.84944 36.5708 8.96331 36.5845 9.07637 36.5747H12.3142C12.4272 36.5845 12.5411 36.5708 12.6485 36.5342C12.756 36.4977 12.8547 36.4393 12.9383 36.3626C13.022 36.2859 13.0888 36.1926 13.1345 36.0887C13.1802 35.9848 13.2038 35.8726 13.2038 35.7591C13.2038 35.6456 13.1802 35.5334 13.1345 35.4295C13.0888 35.3256 13.022 35.2324 12.9383 35.1557C12.8547 35.079 12.756 35.0205 12.6485 34.984C12.5411 34.9475 12.4272 34.9337 12.3142 34.9435H9.07637Z" fill="#1A1A1A"/>
<path d="M13.9576 30.0501C13.956 30.2651 13.8699 30.4709 13.7179 30.6229C13.5658 30.7749 13.3601 30.861 13.1451 30.8627C12.929 30.8627 12.7217 30.7772 12.5684 30.625C12.415 30.4728 12.328 30.2662 12.3264 30.0501C12.3264 29.833 12.4127 29.6248 12.5662 29.4712C12.7197 29.3177 12.928 29.2314 13.1451 29.2314C13.3612 29.2331 13.5678 29.32 13.72 29.4734C13.8722 29.6268 13.9576 29.8341 13.9576 30.0501Z" fill="#1A1A1A"/>
<path fill-rule="evenodd" clip-rule="evenodd" d="M25.3638 8.84433C25.1489 8.84918 24.9444 8.93841 24.7947 9.09275C24.645 9.24708 24.562 9.45414 24.5636 9.66917V12.9131C24.5538 13.0262 24.5676 13.14 24.6041 13.2475C24.6406 13.3549 24.6991 13.4536 24.7758 13.5373C24.8525 13.6209 24.9457 13.6877 25.0496 13.7334C25.1535 13.7791 25.2657 13.8027 25.3792 13.8027C25.4927 13.8027 25.605 13.7791 25.7088 13.7334C25.8127 13.6877 25.906 13.6209 25.9827 13.5373C26.0594 13.4536 26.1178 13.3549 26.1544 13.2475C26.1909 13.14 26.2047 13.0262 26.1948 12.9131V9.66917C26.1957 9.5601 26.1747 9.45196 26.1331 9.3511C26.0916 9.25025 26.0303 9.15872 25.9529 9.08188C25.8755 9.00504 25.7835 8.94444 25.6824 8.90365C25.5812 8.86286 25.4729 8.84269 25.3638 8.84433Z" fill="#1A1A1A"/>
<path fill-rule="evenodd" clip-rule="evenodd" d="M23.757 10.4752C23.644 10.4654 23.5301 10.4792 23.4226 10.5157C23.3152 10.5522 23.2165 10.6107 23.1329 10.6874C23.0492 10.7641 22.9824 10.8573 22.9367 10.9612C22.891 11.0651 22.8674 11.1774 22.8674 11.2908C22.8674 11.4043 22.891 11.5166 22.9367 11.6205C22.9824 11.7244 23.0492 11.8176 23.1329 11.8943C23.2165 11.971 23.3152 12.0295 23.4226 12.066C23.5301 12.1025 23.644 12.1163 23.757 12.1064H26.9948C27.1079 12.1163 27.2218 12.1025 27.3292 12.066C27.4367 12.0295 27.5353 11.971 27.619 11.8943C27.7026 11.8176 27.7694 11.7244 27.8151 11.6205C27.8608 11.5166 27.8844 11.4043 27.8844 11.2908C27.8844 11.1774 27.8608 11.0651 27.8151 10.9612C27.7694 10.8573 27.7026 10.7641 27.619 10.6874C27.5353 10.6107 27.4367 10.5522 27.3292 10.5157C27.2218 10.4792 27.1079 10.4654 26.9948 10.4752H23.757Z" fill="#1A1A1A"/>
<path d="M25.3759 3.95003C25.3743 4.16502 25.2882 4.37076 25.1362 4.52279C24.9841 4.67482 24.7784 4.76094 24.5634 4.76255C24.3473 4.76256 24.14 4.67715 23.9867 4.52495C23.8333 4.37274 23.7464 4.16609 23.7447 3.95003C23.7447 3.7329 23.831 3.52467 23.9845 3.37113C24.138 3.2176 24.3463 3.13135 24.5634 3.13135C24.7795 3.13297 24.9861 3.21994 25.1383 3.3733C25.2905 3.52665 25.3759 3.73396 25.3759 3.95003ZM23.7447 15.3685C23.7431 15.5834 23.657 15.7892 23.505 15.9412C23.3529 16.0932 23.1472 16.1794 22.9322 16.181C22.7161 16.181 22.5088 16.0956 22.3555 15.9434C22.2021 15.7912 22.1151 15.5845 22.1135 15.3685C22.1135 15.1513 22.1998 14.9431 22.3533 14.7896C22.5068 14.636 22.7151 14.5498 22.9322 14.5498C23.1483 14.5514 23.3549 14.6384 23.5071 14.7917C23.6593 14.9451 23.7447 15.1524 23.7447 15.3685Z" fill="#1A1A1A"/>
</g>
<defs>
<clipPath id="clip0_26_261">
<rect width="53.6667" height="56" fill="white" transform="translate(0.333252)"/>
</clipPath>
</defs>
</svg>
