<svg width="24" height="25" viewBox="0 0 24 25" fill="none" xmlns="http://www.w3.org/2000/svg">
<g clip-path="url(#clip0_124_8304)">
<path d="M20.9954 13.536C20.9954 11.1454 20.0457 8.85272 18.3553 7.1623C16.6649 5.47188 14.3722 4.52222 11.9816 4.52222C9.59098 4.52222 7.29828 5.47188 5.60786 7.1623C3.91744 8.85272 2.96777 11.1454 2.96777 13.536C2.96777 15.9266 3.91744 18.2193 5.60786 19.9098C7.29828 21.6002 9.59098 22.5499 11.9816 22.5499C14.3722 22.5499 16.6649 21.6002 18.3553 19.9098C20.0457 18.2193 20.9954 15.9266 20.9954 13.536Z" fill="#C3DBFF"/>
<path fill-rule="evenodd" clip-rule="evenodd" d="M15.2157 13.1137C15.1732 13.1142 15.131 13.1218 15.091 13.1364L10.9611 14.6387C10.9102 14.6517 10.8625 14.6752 10.8212 14.7078C10.78 14.7403 10.7459 14.7811 10.7213 14.8276C10.6967 14.874 10.6821 14.9251 10.6785 14.9776C10.6748 15.03 10.6821 15.0826 10.7 15.1321C10.7179 15.1815 10.7459 15.2266 10.7822 15.2646C10.8186 15.3026 10.8625 15.3325 10.9111 15.3525C10.9597 15.3725 11.012 15.3822 11.0645 15.3808C11.117 15.3794 11.1687 15.367 11.2162 15.3445L15.006 13.9669L15.4964 15.1914L9.77627 18.2187L8.99961 16.3564L8.06421 13.7373C8.04921 13.6886 8.02447 13.6434 7.9915 13.6045C7.95853 13.5655 7.91801 13.5337 7.87239 13.5109C7.82676 13.4882 7.77699 13.4749 7.72608 13.4719C7.67517 13.4688 7.62419 13.4762 7.5762 13.4935C7.52822 13.5108 7.48424 13.5376 7.44693 13.5723C7.40961 13.6071 7.37974 13.6491 7.35911 13.6957C7.33849 13.7424 7.32754 13.7927 7.32693 13.8437C7.32632 13.8947 7.33607 13.9453 7.35558 13.9924L8.29381 16.62C8.29556 16.6257 8.29745 16.6314 8.29948 16.637L9.24054 18.8905C9.26085 18.9384 9.29087 18.9816 9.3287 19.0174C9.36654 19.0531 9.41136 19.0806 9.46036 19.0982C9.50935 19.1158 9.56146 19.123 9.61339 19.1195C9.66532 19.1159 9.71595 19.1016 9.7621 19.0776L16.1483 15.6988C16.2299 15.6547 16.2924 15.582 16.3238 15.4946C16.3552 15.4073 16.3533 15.3114 16.3184 15.2254L15.5701 13.349C15.542 13.2781 15.4931 13.2174 15.4298 13.1749C15.3666 13.1324 15.2919 13.1129 15.2157 13.1137Z" fill="#1A1A1A"/>
<path fill-rule="evenodd" clip-rule="evenodd" d="M12.211 17.2435C12.1115 17.2458 12.017 17.2872 11.9479 17.3589C11.8789 17.4306 11.841 17.5267 11.8425 17.6262V19.5027C11.8422 19.581 11.8664 19.6575 11.9116 19.7215C11.9568 19.7856 12.0209 19.8339 12.0948 19.8598L19.3512 22.3429V24.8372L16.6754 25.5062H7.6616L8.77557 23.8395C8.80691 23.7985 8.8295 23.7515 8.84194 23.7014C8.85439 23.6514 8.85642 23.5993 8.84792 23.5484C8.83942 23.4975 8.82056 23.4489 8.79252 23.4056C8.76447 23.3623 8.72783 23.3252 8.68487 23.2966C8.64191 23.268 8.59354 23.2486 8.54276 23.2395C8.49198 23.2303 8.43986 23.2317 8.38964 23.2436C8.33942 23.2554 8.29216 23.2774 8.25079 23.3082C8.20942 23.3391 8.17482 23.3781 8.14914 23.4228L6.64683 25.6734C6.60965 25.73 6.58841 25.7956 6.58535 25.8633C6.58228 25.931 6.5975 25.9982 6.6294 26.0579C6.66131 26.1177 6.70872 26.1677 6.76665 26.2028C6.82459 26.2379 6.8909 26.2568 6.95863 26.2573H16.7236C16.7542 26.2573 16.7846 26.2535 16.8143 26.246L19.8189 25.4977C19.9005 25.4768 19.9728 25.4291 20.0242 25.3623C20.0756 25.2955 20.1031 25.2135 20.1024 25.1292V22.0792C20.1025 22.0005 20.0779 21.9238 20.0321 21.8597C19.9864 21.7957 19.9217 21.7475 19.8473 21.7221L12.5909 19.2362V17.629C12.5916 17.5788 12.5823 17.5289 12.5635 17.4824C12.5448 17.4358 12.5168 17.3934 12.4815 17.3578C12.4461 17.3221 12.4039 17.2939 12.3575 17.2748C12.311 17.2556 12.2612 17.2431 12.211 17.2435Z" fill="#1A1A1A"/>
<path fill-rule="evenodd" clip-rule="evenodd" d="M7.31315 8.60675C7.25313 8.61019 7.19479 8.62793 7.14301 8.6585C7.09124 8.68907 7.04753 8.73159 7.01553 8.78249L5.13623 11.7871C5.09379 11.8548 5.07394 11.9342 5.07954 12.0139L5.83069 23.6553C5.8372 23.7513 5.88016 23.8412 5.95077 23.9065C6.02139 23.9718 6.11432 24.0077 6.21052 24.0068L13.722 23.9529C13.7741 23.957 13.8265 23.9503 13.8758 23.9331C13.9252 23.9159 13.9704 23.8886 14.0086 23.853C14.0469 23.8174 14.0773 23.7742 14.098 23.7262C14.1186 23.6783 14.1291 23.6265 14.1287 23.5743C14.1283 23.522 14.1171 23.4704 14.0957 23.4227C14.0743 23.3751 14.0432 23.3324 14.0044 23.2973C13.9657 23.2623 13.92 23.2357 13.8704 23.2193C13.8209 23.2028 13.7684 23.1969 13.7164 23.2018L6.55917 23.2528L5.8392 12.0847L7.45488 9.49679L10.0343 11.0671L11.4884 14.752C11.504 14.8013 11.5295 14.8469 11.5634 14.886C11.5973 14.925 11.6388 14.9567 11.6855 14.9789C11.7321 15.0012 11.7829 15.0137 11.8345 15.0155C11.8862 15.0174 11.9377 15.0086 11.9858 14.9897C12.0339 14.9708 12.0777 14.9422 12.1143 14.9057C12.1509 14.8692 12.1796 14.8255 12.1986 14.7774C12.2176 14.7294 12.2265 14.6779 12.2248 14.6262C12.2231 14.5745 12.2107 14.5238 12.1886 14.4771L10.6863 10.6703C10.6561 10.5949 10.6024 10.5313 10.5332 10.4889L7.52858 8.66061C7.46381 8.62143 7.38874 8.60267 7.31315 8.60675Z" fill="#1A1A1A"/>
<path fill-rule="evenodd" clip-rule="evenodd" d="M6.20476 23.2528C6.14551 23.2534 6.08725 23.268 6.03469 23.2953L4.5664 24.0323L1.9728 24.7693C1.89422 24.792 1.82517 24.8397 1.77608 24.9052C1.72699 24.9706 1.70053 25.0503 1.70068 25.1321V25.8832C1.70143 25.9822 1.74108 26.077 1.81109 26.147C1.8811 26.217 1.97584 26.2567 2.07484 26.2574H6.95024C7.0023 26.2619 7.05474 26.2556 7.10422 26.2388C7.1537 26.2219 7.19915 26.195 7.23767 26.1597C7.27619 26.1244 7.30694 26.0814 7.32799 26.0336C7.34903 25.9858 7.35989 25.9341 7.35989 25.8818C7.35989 25.8296 7.34903 25.7779 7.32799 25.73C7.30694 25.6822 7.27619 25.6393 7.23767 25.6039C7.19915 25.5686 7.1537 25.5417 7.10422 25.5249C7.05474 25.5081 7.0023 25.5017 6.95024 25.5062H2.45467V25.4155L4.80733 24.7438C4.82981 24.7373 4.85163 24.7288 4.87253 24.7182L6.37483 23.9699C6.4526 23.9328 6.51531 23.8702 6.5525 23.7924C6.5897 23.7147 6.59914 23.6266 6.57925 23.5427C6.55937 23.4589 6.51136 23.3844 6.44321 23.3316C6.37507 23.2789 6.29092 23.251 6.20476 23.2528ZM10.3262 2.59754C10.2302 2.60054 10.1389 2.64009 10.0711 2.70809L7.06646 5.7127C6.99747 5.78311 6.9588 5.87774 6.95874 5.97631V8.98091C6.95934 9.05486 6.98167 9.127 7.02296 9.18835C7.06425 9.2497 7.12267 9.29755 7.19095 9.32595C7.25923 9.35435 7.33435 9.36204 7.40697 9.34807C7.47958 9.33409 7.54649 9.29907 7.59935 9.24736L8.72466 8.12205C8.76019 8.0873 8.78849 8.04587 8.80795 8.00015C8.82741 7.95442 8.83764 7.9053 8.83804 7.8556V6.92871L9.2122 6.67927V7.47861C9.21204 7.56042 9.23851 7.64007 9.2876 7.70552C9.33668 7.77097 9.40573 7.81867 9.48431 7.84143L11.7349 8.48204L11.2871 9.83411L9.08181 7.94631L8.59144 8.51322L11.219 10.7695C11.266 10.8099 11.3222 10.8381 11.3826 10.8516C11.443 10.8652 11.5059 10.8636 11.5656 10.847C11.6253 10.8305 11.6799 10.7995 11.7248 10.7568C11.7697 10.7141 11.8033 10.6611 11.8228 10.6023L12.574 8.34881C12.5896 8.30063 12.5954 8.2498 12.591 8.19933C12.5865 8.14887 12.572 8.09981 12.5482 8.0551C12.5244 8.01039 12.4918 7.97093 12.4524 7.93909C12.413 7.90725 12.3676 7.88368 12.3188 7.86978L12.2168 7.84143V7.26035L12.4804 6.99391C12.5416 6.93256 12.5798 6.852 12.5886 6.76578C12.5974 6.67957 12.5762 6.59296 12.5286 6.52054L11.8398 5.48877V4.851C11.8401 4.79198 11.8265 4.73373 11.8001 4.68093L11.4657 4.00914V3.34869C11.4653 3.27822 11.4452 3.20926 11.4076 3.14964C11.37 3.09001 11.3165 3.04212 11.2531 3.01139L10.5047 2.63723C10.4494 2.60954 10.3881 2.59591 10.3262 2.59754ZM10.4112 3.42806L10.7145 3.58113V4.09985C10.7147 4.1579 10.7283 4.21514 10.7542 4.26708L11.0887 4.93887V5.60215C11.0888 5.67573 11.1105 5.74766 11.151 5.80907L11.7321 6.67927L11.5762 6.83801C11.5407 6.87275 11.5124 6.91418 11.4929 6.95991C11.4734 7.00564 11.4632 7.05476 11.4628 7.10445V7.62601L9.96052 7.19799V5.97914C9.9596 5.91186 9.94068 5.84604 9.90574 5.78854C9.8708 5.73103 9.8211 5.68392 9.76181 5.6521C9.70251 5.62029 9.63578 5.60492 9.56854 5.6076C9.50131 5.61028 9.43601 5.63091 9.37944 5.66734L8.25129 6.41566C8.20003 6.44998 8.15798 6.49636 8.12882 6.55072C8.09966 6.60508 8.08429 6.66577 8.08405 6.72746V7.69971L7.7099 8.0767V6.13221L10.4112 3.42806Z" fill="#1A1A1A"/>
<path d="M8.77013 2.23197C8.31703 2.2733 7.88361 2.43666 7.51596 2.70468C7.14831 2.97271 6.86018 3.33537 6.68222 3.7541C6.50426 4.17283 6.44313 4.63197 6.50531 5.08268C6.5675 5.53338 6.75069 5.95881 7.0354 6.3137C7.06408 6.35804 7.10176 6.39586 7.146 6.42471C7.19023 6.45356 7.24004 6.47279 7.29218 6.48116C7.34433 6.48953 7.39765 6.48685 7.44869 6.4733C7.49973 6.45975 7.54736 6.43562 7.58848 6.40248C7.6296 6.36934 7.6633 6.32794 7.6874 6.28094C7.71149 6.23395 7.72545 6.18242 7.72835 6.12968C7.73126 6.07695 7.72306 6.0242 7.70427 5.97484C7.68549 5.92548 7.65654 5.88062 7.61931 5.84317C7.35209 5.50926 7.21512 5.08972 7.23384 4.66246C7.25256 4.2352 7.4257 3.82925 7.7211 3.52C8.0165 3.21074 8.4141 3.0192 8.84005 2.98093C9.26601 2.94266 9.69137 3.06028 10.0372 3.31193C10.118 3.37094 10.2189 3.39543 10.3178 3.38002C10.4167 3.3646 10.5054 3.31054 10.5644 3.22973C10.6234 3.14891 10.6479 3.04796 10.6325 2.94909C10.6171 2.85022 10.563 2.76152 10.4822 2.7025C9.98738 2.34338 9.37898 2.17617 8.77013 2.23197Z" fill="#1A1A1A"/>
<path fill-rule="evenodd" clip-rule="evenodd" d="M16.7152 11.5547C16.644 11.5581 16.5752 11.5817 16.5168 11.6227L15.3886 12.3739C15.3311 12.4118 15.285 12.4647 15.2554 12.5269L14.8813 13.3291C14.8548 13.3744 14.838 13.4247 14.832 13.4768C14.8261 13.5289 14.8311 13.5817 14.8467 13.6318C14.8623 13.6819 14.8882 13.7282 14.9227 13.7677C14.9572 13.8072 14.9996 13.8391 15.0472 13.8612C15.0947 13.8834 15.1463 13.8954 15.1988 13.8965C15.2513 13.8976 15.3034 13.8877 15.3518 13.8675C15.4002 13.8473 15.4439 13.8172 15.48 13.7792C15.5161 13.7411 15.5439 13.696 15.5616 13.6466L15.8932 12.9379L16.9306 12.2491C16.9989 12.2041 17.0506 12.1382 17.0781 12.0612C17.1056 11.9842 17.1073 11.9004 17.083 11.8223C17.0587 11.7443 17.0097 11.6762 16.9433 11.6285C16.877 11.5807 16.7969 11.553 16.7152 11.5547Z" fill="#1A1A1A"/>
<path fill-rule="evenodd" clip-rule="evenodd" d="M17.8433 10.4266C17.7438 10.4288 17.6492 10.4703 17.5802 10.542C17.5111 10.6136 17.4733 10.7097 17.4748 10.8092V13.2838L15.7032 15.1035C15.6641 15.1378 15.6326 15.1799 15.6105 15.2269C15.5885 15.274 15.5764 15.3251 15.5751 15.3771C15.5737 15.4291 15.5832 15.4808 15.6028 15.5289C15.6224 15.5771 15.6517 15.6207 15.6889 15.6569C15.7262 15.6932 15.7705 15.7214 15.8192 15.7397C15.8679 15.758 15.9198 15.766 15.9717 15.7633C16.0236 15.7606 16.0744 15.7471 16.1209 15.7238C16.1673 15.7005 16.2085 15.6679 16.2418 15.6279L18.1182 13.7004C18.1872 13.63 18.2259 13.5354 18.2259 13.4368V10.8092C18.2267 10.7588 18.2173 10.7087 18.1984 10.6619C18.1794 10.6151 18.1512 10.5726 18.1155 10.5369C18.0799 10.5012 18.0374 10.4731 17.9906 10.4541C17.9438 10.4352 17.8937 10.4258 17.8433 10.4266Z" fill="#1A1A1A"/>
<path d="M21.582 2.22058C21.5074 2.22118 21.4346 2.24393 21.3729 2.28592C21.3112 2.32792 21.2634 2.38728 21.2354 2.45649C21.2075 2.5257 21.2008 2.60164 21.216 2.6747C21.2313 2.74775 21.2679 2.81463 21.3212 2.86685C21.5322 3.07678 21.6997 3.32634 21.8139 3.60118C21.9282 3.87602 21.987 4.17072 21.987 4.46837C21.987 4.76601 21.9282 5.06072 21.8139 5.33556C21.6997 5.6104 21.5322 5.85995 21.3212 6.06988C21.1113 6.28088 20.8617 6.44832 20.5869 6.56257C20.3121 6.67682 20.0173 6.73564 19.7197 6.73564C19.4221 6.73564 19.1274 6.67682 18.8525 6.56257C18.5777 6.44832 18.3281 6.28088 18.1182 6.06988C18.085 6.02865 18.0435 5.99486 17.9964 5.97073C17.9493 5.94659 17.8977 5.93265 17.8448 5.9298C17.792 5.92695 17.7391 5.93526 17.6897 5.95419C17.6402 5.97312 17.5954 6.00225 17.5579 6.03967C17.5205 6.0771 17.4914 6.12198 17.4724 6.17141C17.4535 6.22083 17.4452 6.27369 17.4481 6.32654C17.4509 6.37939 17.4649 6.43105 17.489 6.47815C17.5131 6.52526 17.5469 6.56675 17.5881 6.59994C18.7616 7.77343 20.6778 7.77343 21.8513 6.59994C22.4149 6.03369 22.7313 5.26728 22.7313 4.46837C22.7313 3.66945 22.4149 2.90305 21.8513 2.3368C21.8162 2.30093 21.7743 2.27243 21.7281 2.25296C21.6818 2.23349 21.6322 2.22061 21.582 2.22058Z" fill="#1A1A1A"/>
<path fill-rule="evenodd" clip-rule="evenodd" d="M18.9629 2.61169C18.8639 2.61392 18.7698 2.65502 18.7008 2.72609C18.6319 2.79716 18.5937 2.8925 18.5944 2.99152V3.80787C18.5899 3.85993 18.5963 3.91237 18.6131 3.96185C18.6299 4.01133 18.6568 4.05677 18.6921 4.09529C18.7274 4.13381 18.7704 4.16457 18.8182 4.18561C18.8661 4.20665 18.9178 4.21752 18.97 4.21752C19.0223 4.21752 19.074 4.20665 19.1218 4.18561C19.1696 4.16457 19.2126 4.13381 19.2479 4.09529C19.2832 4.05677 19.3101 4.01133 19.3269 3.96185C19.3438 3.91237 19.3501 3.85993 19.3456 3.80787V2.99436C19.346 2.94437 19.3364 2.89481 19.3174 2.84856C19.2985 2.8023 19.2705 2.76028 19.2352 2.72494C19.1998 2.68959 19.1578 2.66163 19.1116 2.64267C19.0653 2.62372 19.0157 2.61415 18.9658 2.61453L18.9629 2.61169Z" fill="#1A1A1A"/>
<path fill-rule="evenodd" clip-rule="evenodd" d="M19.7 3.17871C19.6671 3.182 19.6347 3.18963 19.6037 3.20139L18.8497 3.45366C18.7989 3.46608 18.7513 3.48891 18.7098 3.52071C18.6684 3.55251 18.634 3.59259 18.6088 3.63839C18.5837 3.6842 18.5683 3.73473 18.5637 3.78679C18.5591 3.83885 18.5654 3.89129 18.5822 3.94078C18.5989 3.99028 18.6258 4.03575 18.6611 4.07431C18.6963 4.11287 18.7393 4.14368 18.7871 4.16477C18.8349 4.18587 18.8865 4.19679 18.9388 4.19686C18.9911 4.19692 19.0428 4.18611 19.0906 4.16513L19.8418 3.91002C19.9263 3.87948 19.9971 3.81975 20.0415 3.74158C20.0859 3.66342 20.1009 3.57197 20.0838 3.48373C20.0667 3.39549 20.0186 3.31627 19.9483 3.26034C19.8779 3.20441 19.7899 3.17546 19.7 3.17871Z" fill="#1A1A1A"/>
<path fill-rule="evenodd" clip-rule="evenodd" d="M18.1893 3.17871C18.1022 3.18498 18.02 3.22129 17.9567 3.28144C17.8934 3.34159 17.8529 3.42184 17.8422 3.5085C17.8315 3.59517 17.8512 3.68286 17.898 3.7566C17.9447 3.83035 18.0156 3.88558 18.0986 3.91286L18.8497 4.16796C18.8969 4.18491 18.947 4.19228 18.997 4.18963C19.0471 4.18699 19.0961 4.17439 19.1413 4.15258C19.1864 4.13076 19.2267 4.10016 19.2599 4.06257C19.293 4.02498 19.3184 3.98115 19.3344 3.93366C19.3504 3.88616 19.3568 3.83594 19.3532 3.78595C19.3496 3.73595 19.336 3.68718 19.3133 3.64248C19.2906 3.59779 19.2592 3.55807 19.221 3.52564C19.1828 3.49322 19.1385 3.46875 19.0907 3.45366L18.3367 3.19855C18.2892 3.18318 18.2391 3.17456 18.1893 3.17871Z" fill="#1A1A1A"/>
<path fill-rule="evenodd" clip-rule="evenodd" d="M18.9546 3.42806C18.8867 3.4308 18.8208 3.45183 18.7639 3.48891C18.707 3.52599 18.6612 3.57776 18.6313 3.63874C18.6014 3.69972 18.5885 3.76764 18.594 3.83534C18.5995 3.90303 18.6232 3.96798 18.6626 4.02332L19.1275 4.6866C19.1535 4.73198 19.1888 4.77143 19.231 4.80243C19.2731 4.83344 19.3213 4.85533 19.3724 4.8667C19.4235 4.87808 19.4764 4.87868 19.5277 4.86849C19.5791 4.8583 19.6277 4.83752 19.6706 4.80749C19.7135 4.77746 19.7496 4.73884 19.7767 4.69407C19.8039 4.6493 19.8214 4.59938 19.8281 4.54748C19.8349 4.49557 19.8308 4.44283 19.8161 4.3926C19.8013 4.34238 19.7763 4.29577 19.7426 4.25575L19.2749 3.58963C19.2392 3.53728 19.1908 3.49477 19.1343 3.46604C19.0779 3.4373 19.0151 3.42327 18.9517 3.42523L18.9546 3.42806Z" fill="#1A1A1A"/>
<path fill-rule="evenodd" clip-rule="evenodd" d="M18.9715 3.4281C18.91 3.42803 18.8495 3.44296 18.7952 3.47162C18.7408 3.50027 18.6943 3.54177 18.6597 3.5925L18.1976 4.25578C18.1639 4.29581 18.1389 4.34241 18.1241 4.39264C18.1094 4.44287 18.1053 4.49561 18.1121 4.54751C18.1188 4.59942 18.1363 4.64934 18.1635 4.69411C18.1906 4.73887 18.2267 4.7775 18.2696 4.80753C18.3125 4.83756 18.3611 4.85833 18.4125 4.86853C18.4638 4.87872 18.5167 4.87811 18.5678 4.86674C18.6189 4.85537 18.667 4.83348 18.7092 4.80247C18.7514 4.77146 18.7866 4.73201 18.8127 4.68663L19.2776 4.02619C19.3176 3.96987 19.3413 3.90365 19.3462 3.83475C19.3511 3.76586 19.337 3.69693 19.3055 3.63551C19.2739 3.57409 19.226 3.52252 19.1671 3.48644C19.1082 3.45037 19.0405 3.43117 18.9715 3.43094V3.4281Z" fill="#1A1A1A"/>
</g>
<defs>
<clipPath id="clip0_124_8304">
<rect width="24" height="24" fill="white" transform="translate(0 0.5)"/>
</clipPath>
</defs>
</svg>
