<svg width="24" height="23" viewBox="0 0 24 23" fill="none" xmlns="http://www.w3.org/2000/svg">
<path d="M23.5012 9.83276C23.5012 11.0516 23.2612 12.2585 22.7947 13.3845C22.3283 14.5106 21.6446 15.5338 20.7828 16.3956C19.921 17.2574 18.8978 17.9411 17.7718 18.4075C16.6457 18.8739 15.4388 19.114 14.22 19.114C11.7584 19.114 9.39771 18.1362 7.65714 16.3956C5.91656 14.655 4.93872 12.2943 4.93872 9.83276C4.93872 7.37122 5.91656 5.0105 7.65714 3.26993C9.39771 1.52936 11.7584 0.551514 14.22 0.551514C16.6815 0.551514 19.0422 1.52936 20.7828 3.26993C22.5234 5.0105 23.5012 7.37122 23.5012 9.83276Z" fill="#C3DBFF"/>
<path fill-rule="evenodd" clip-rule="evenodd" d="M12.2115 1.96107C11.2717 1.32376 10.1257 1.06529 9.00336 1.23749C7.881 1.40969 6.86522 1.99983 6.15973 2.88956C5.46345 3.76769 5.12021 4.87358 5.19615 5.99063C5.22489 6.09238 5.20939 6.20193 5.15281 6.292C5.09261 6.38785 4.99233 6.45138 4.87996 6.46487C3.83294 6.59055 2.87382 7.11245 2.19965 7.92333C1.52549 8.73422 1.18748 9.77251 1.25507 10.8249C1.32267 11.8772 1.79073 12.8637 2.56309 13.5817C3.33546 14.2997 4.35347 14.6946 5.40796 14.6853L5.41081 14.6853L14.0366 14.6748C14.0447 14.6748 14.0529 14.675 14.061 14.6756C14.9293 14.7313 15.7966 14.5536 16.573 14.161C17.3494 13.7684 18.0066 13.1751 18.4764 12.4428C19.434 10.9495 19.5188 9.04973 18.6667 7.50188L18.6667 7.50185C18.3217 6.87504 17.6964 6.18863 16.9322 5.68374C16.1672 5.17836 15.3016 4.87952 14.4735 4.96266C14.2856 4.98152 14.113 4.8578 14.0706 4.67384C13.8153 3.56741 13.1512 2.59838 12.2115 1.96107ZM4.43656 5.77596C4.41563 4.56408 4.81495 3.37842 5.57206 2.42358C6.39513 1.38556 7.5802 0.697062 8.88962 0.496163C10.199 0.295263 11.536 0.596812 12.6324 1.34034C13.6412 2.02444 14.3777 3.03616 14.7209 4.19893C15.6629 4.19054 16.5774 4.55046 17.3456 5.05797C18.202 5.6237 18.915 6.39754 19.3238 7.14022C20.3122 8.93585 20.2095 11.1296 19.1077 12.8477L19.1076 12.8478C18.5656 13.6927 17.8073 14.3772 16.9115 14.8303C16.0193 15.2814 15.0231 15.4866 14.0254 15.4248L5.41457 15.4353C5.41408 15.4353 5.4136 15.4353 5.41311 15.4353C4.16742 15.4459 2.9649 14.9792 2.05246 14.131C1.13966 13.2825 0.586497 12.1166 0.506614 10.8729C0.426731 9.62924 0.826198 8.40217 1.62294 7.44385C2.34304 6.57772 3.33822 5.99057 4.43656 5.77596Z" fill="#1A1A1A"/>
<path fill-rule="evenodd" clip-rule="evenodd" d="M10.5637 14.7079C10.7583 14.7786 10.8588 14.9938 10.788 15.1884L9.53911 18.6228L11.4575 18.0747C11.5951 18.0354 11.7431 18.0778 11.8389 18.184C11.9348 18.2902 11.9619 18.4417 11.9087 18.5746L10.4087 22.3246C10.3318 22.5168 10.1136 22.6104 9.92128 22.5335C9.72899 22.4565 9.63546 22.2383 9.71238 22.046L10.9284 19.0059L9.03858 19.5459C8.90307 19.5846 8.75729 19.544 8.66121 19.4409C8.56513 19.3378 8.53497 19.1896 8.58313 19.0571L10.0831 14.9321C10.1539 14.7375 10.3691 14.6371 10.5637 14.7079Z" fill="#1A1A1A"/>
</svg>
