<svg width="32" height="33" viewBox="0 0 32 33" fill="none" xmlns="http://www.w3.org/2000/svg">
<path d="M28.6004 3.22753V30.5264C28.6004 30.9008 28.4517 31.2599 28.1869 31.5246C27.9221 31.7894 27.5631 31.9381 27.1886 31.9381H4.81216C4.43773 31.9381 4.07864 31.7894 3.81389 31.5246C3.54913 31.2599 3.40039 30.9008 3.40039 30.5264V7.48165H7.65921C8.03364 7.48165 8.39272 7.33291 8.65748 7.06815C8.92224 6.80339 9.07098 6.44431 9.07098 6.06988V1.81577H27.1886C27.5631 1.81577 27.9221 1.9645 28.1869 2.22926C28.4517 2.49402 28.6004 2.85311 28.6004 3.22753Z" fill="#E9EDF4"/>
<path d="M3.40039 7.48165H7.65921C8.03364 7.48165 8.39272 7.33291 8.65748 7.06815C8.92224 6.80339 9.07098 6.44431 9.07098 6.06988V1.81577L3.40039 7.48165Z" fill="#D2DBEA"/>
<path d="M30.1181 19.3184V25.8689C30.1181 26.2434 29.9694 26.6025 29.7046 26.8672C29.4398 27.132 29.0808 27.2807 28.7063 27.2807H3.29458C2.92015 27.2807 2.56107 27.132 2.29631 26.8672C2.03155 26.6025 1.88281 26.2434 1.88281 25.8689V19.3184C1.88281 18.9439 2.03155 18.5848 2.29631 18.3201C2.56107 18.0553 2.92015 17.9066 3.29458 17.9066H28.7063C29.0808 17.9066 29.4398 18.0553 29.7046 18.3201C29.9694 18.5848 30.1181 18.9439 30.1181 19.3184Z" fill="#F14F4A"/>
<path d="M24.7221 11.4638C24.7221 11.8017 24.4529 12.0708 24.1151 12.0708H7.88636C7.72535 12.0708 7.57095 12.0069 7.4571 11.893C7.34325 11.7792 7.2793 11.6248 7.2793 11.4638C7.2793 11.3028 7.34325 11.1484 7.4571 11.0345C7.57095 10.9207 7.72535 10.8567 7.88636 10.8567H24.1151C24.4529 10.8567 24.7221 11.1259 24.7221 11.4638ZM24.7221 14.5744C24.7221 14.9122 24.4529 15.1814 24.1151 15.1814H7.88636C7.72535 15.1814 7.57095 15.1175 7.4571 15.0036C7.34325 14.8898 7.2793 14.7354 7.2793 14.5744C7.2793 14.4134 7.34325 14.259 7.4571 14.1451C7.57095 14.0313 7.72535 13.9673 7.88636 13.9673H24.1151C24.4529 13.9673 24.7221 14.237 24.7221 14.5744Z" fill="#D2DBEA"/>
<path d="M10.0135 24.8332C9.98546 24.8056 9.96341 24.7726 9.94868 24.7362C9.93394 24.6998 9.92685 24.6607 9.92782 24.6214V20.5748C9.92782 20.4916 9.95606 20.4196 10.0135 20.3603C10.0405 20.3313 10.0733 20.3083 10.1098 20.2929C10.1463 20.2775 10.1856 20.27 10.2252 20.2708H11.7325C12.1514 20.2708 12.493 20.3414 12.757 20.4826C13.0219 20.6238 13.2111 20.8045 13.3264 21.0247C13.4403 21.245 13.4982 21.4831 13.4982 21.7386C13.4982 21.9941 13.4403 22.2327 13.3259 22.453C13.2111 22.6732 13.0219 22.8539 12.757 22.9951C12.493 23.1363 12.1509 23.2068 11.7325 23.2068H10.5292V24.6214C10.53 24.661 10.5225 24.7003 10.5071 24.7368C10.4916 24.7733 10.4687 24.8061 10.4398 24.8332C10.3805 24.8901 10.3085 24.9188 10.2248 24.9188C10.141 24.9188 10.0704 24.8906 10.0135 24.8332ZM11.6732 22.6379C12.1226 22.6379 12.4389 22.5518 12.6215 22.38C12.8045 22.2083 12.8958 21.9941 12.8958 21.7386C12.8958 21.4831 12.8045 21.269 12.6215 21.0972C12.4389 20.9254 12.1226 20.8393 11.6732 20.8393H10.5292V22.6379H11.6732Z" fill="white"/>
<path d="M10.2252 25.037C10.1706 25.0376 10.1164 25.0272 10.0659 25.0064C10.0153 24.9857 9.96949 24.9549 9.93109 24.916C9.89199 24.8778 9.86113 24.8319 9.84041 24.7812C9.8197 24.7305 9.80956 24.6762 9.81062 24.6215V20.5749C9.81062 20.46 9.85062 20.3603 9.92968 20.2784C9.96765 20.2383 10.0135 20.2065 10.0644 20.1849C10.1152 20.1634 10.17 20.1526 10.2252 20.1532H11.733C12.1692 20.1532 12.5325 20.229 12.813 20.3786C13.0972 20.5302 13.3047 20.7292 13.4309 20.9702C13.5532 21.2069 13.6163 21.4652 13.6163 21.7386C13.6163 22.012 13.5537 22.2704 13.4309 22.5071C13.3052 22.748 13.0972 22.9471 12.813 23.0991C12.533 23.2483 12.1697 23.324 11.733 23.324H10.6473V24.6215C10.648 24.6768 10.6372 24.7317 10.6157 24.7828C10.5941 24.8338 10.5623 24.8798 10.5222 24.9179C10.483 24.9562 10.4366 24.9864 10.3857 25.0068C10.3349 25.0271 10.2805 25.0372 10.2257 25.0365L10.2252 25.037ZM10.2252 20.3885C10.2016 20.3878 10.1781 20.3921 10.1563 20.4013C10.1346 20.4105 10.115 20.4243 10.0991 20.4417C10.0817 20.4591 10.0679 20.4799 10.0588 20.5028C10.0497 20.5257 10.0453 20.5502 10.0459 20.5749V24.6215C10.0459 24.6742 10.0619 24.7151 10.0972 24.7495C10.1678 24.82 10.284 24.8205 10.3593 24.748C10.3767 24.7319 10.3904 24.7122 10.3995 24.6902C10.4086 24.6683 10.4129 24.6447 10.412 24.621V23.0888H11.733C12.1306 23.0888 12.4567 23.0224 12.7024 22.8911C12.9443 22.7622 13.1189 22.5965 13.2224 22.3984C13.3273 22.196 13.381 21.9739 13.381 21.7386C13.381 21.5033 13.3273 21.2817 13.2224 21.0789C13.1189 20.8812 12.9438 20.7151 12.7024 20.5862C12.4563 20.4549 12.1302 20.3885 11.733 20.3885H10.2252ZM11.6737 22.7556H10.412V20.7217H11.6732C12.1579 20.7217 12.4953 20.8163 12.7024 21.0116C12.9094 21.2059 13.0139 21.4506 13.0139 21.7386C13.0139 22.0266 12.9094 22.2713 12.7024 22.4657C12.4953 22.661 12.1584 22.7556 11.6737 22.7556ZM10.6473 22.5203H11.6732C12.0897 22.5203 12.3819 22.444 12.5414 22.2944C12.7014 22.1438 12.7786 21.9626 12.7786 21.7386C12.7786 21.5146 12.701 21.333 12.5414 21.1833C12.3819 21.0328 12.0897 20.9575 11.6737 20.9575H10.6473V22.5203ZM14.4572 24.7998C14.4291 24.7723 14.407 24.7393 14.3922 24.7029C14.3773 24.6664 14.3702 24.6274 14.3711 24.588V20.5749C14.3711 20.4916 14.3993 20.4196 14.4572 20.3603C14.4842 20.3314 14.5169 20.3085 14.5533 20.2931C14.5897 20.2777 14.629 20.2701 14.6685 20.2709H15.9974C16.4996 20.2709 16.9264 20.3824 17.277 20.605C17.6149 20.8141 17.8884 21.1126 18.0671 21.4676C18.2431 21.8205 18.3311 22.1904 18.3311 22.5782C18.3311 22.9659 18.2431 23.3363 18.0671 23.6892C17.8883 24.0442 17.6146 24.3428 17.2765 24.5518C16.9264 24.7749 16.5 24.8859 15.9974 24.8859H14.669C14.6297 24.8868 14.5906 24.8797 14.5542 24.8649C14.5177 24.85 14.4847 24.8279 14.4572 24.7998ZM15.925 24.324C16.2859 24.324 16.6031 24.2502 16.8765 24.1024C17.1425 23.9621 17.3627 23.7487 17.5113 23.4873C17.661 23.2252 17.7363 22.9226 17.7363 22.5786C17.7363 22.2346 17.661 21.9316 17.5113 21.6695C17.3626 21.4082 17.1424 21.1948 16.8765 21.0544C16.6036 20.9066 16.2859 20.8332 15.925 20.8332H14.9725V24.324H15.925Z" fill="white"/>
<path d="M15.9975 25.0035H14.669C14.6144 25.0043 14.5601 24.994 14.5095 24.9733C14.4589 24.9526 14.4129 24.9219 14.3745 24.8831C14.3353 24.8448 14.3045 24.7989 14.2838 24.7482C14.2631 24.6976 14.2529 24.6432 14.254 24.5885V20.5748C14.254 20.46 14.294 20.3602 14.373 20.2784C14.4111 20.2382 14.457 20.2063 14.5079 20.1848C14.5589 20.1632 14.6137 20.1525 14.669 20.1532H15.998C16.5208 20.1532 16.9721 20.2718 17.3406 20.5057C17.6962 20.7265 17.9841 21.041 18.1726 21.4148C18.3543 21.7758 18.449 22.1742 18.449 22.5784C18.449 22.9825 18.3543 23.381 18.1726 23.7419C17.9841 24.1157 17.6962 24.4303 17.3406 24.6511C16.9721 24.8849 16.5203 25.0035 15.9975 25.0035ZM14.6686 20.3885C14.6449 20.3877 14.6213 20.392 14.5994 20.4012C14.5776 20.4103 14.558 20.4242 14.542 20.4417C14.5245 20.4591 14.5108 20.4799 14.5017 20.5028C14.4926 20.5257 14.4882 20.5502 14.4888 20.5748V24.5885C14.4888 24.6407 14.5048 24.6817 14.5406 24.7165C14.5572 24.7335 14.5771 24.7473 14.5991 24.7561C14.6212 24.765 14.6448 24.7691 14.6686 24.7682H15.9975C16.4752 24.7682 16.8841 24.6619 17.214 24.4529C17.5336 24.2547 17.7923 23.9722 17.9617 23.6365C18.1274 23.3083 18.2137 22.9459 18.2137 22.5784C18.2137 22.2108 18.1274 21.8484 17.9617 21.5202C17.7922 21.1847 17.5335 20.9023 17.214 20.7042C16.8841 20.4948 16.4752 20.3889 15.9975 20.3889H14.669L14.6686 20.3885ZM15.925 24.4417H14.8549V20.7151H15.925C16.3034 20.7151 16.6427 20.7946 16.9326 20.9504C17.2243 21.1085 17.4535 21.3306 17.6135 21.6106C17.7735 21.8906 17.854 22.2162 17.854 22.5786C17.854 22.9409 17.7735 23.2666 17.6135 23.5457C17.4538 23.8259 17.2176 24.0549 16.9326 24.2059C16.6432 24.3621 16.3039 24.4417 15.925 24.4417ZM15.0902 24.2064H15.925C16.2643 24.2064 16.566 24.1362 16.8206 23.9993C17.0728 23.8628 17.2709 23.6708 17.4093 23.4289C17.5481 23.1857 17.6187 22.8995 17.6187 22.5786C17.6187 22.2577 17.5481 21.9715 17.4093 21.7278C17.271 21.4861 17.067 21.2885 16.821 21.1579C16.5655 21.0205 16.2643 20.9508 15.925 20.9508H15.0902V24.2064ZM19.4225 24.8332C19.3944 24.8056 19.3724 24.7726 19.3577 24.7362C19.3429 24.6998 19.3358 24.6607 19.3368 24.6214V20.5748C19.3368 20.4915 19.365 20.4195 19.4225 20.3602C19.4495 20.3313 19.4823 20.3083 19.5188 20.2929C19.5553 20.2775 19.5946 20.27 19.6342 20.2708H22.206C22.285 20.2708 22.3523 20.2986 22.4074 20.3537C22.4625 20.4087 22.4902 20.476 22.4902 20.5551C22.4902 20.6341 22.4625 20.7009 22.4074 20.7537C22.3523 20.8064 22.285 20.8327 22.206 20.8327H19.9382V22.2939H21.9745C22.0545 22.2939 22.1213 22.3221 22.1763 22.3767C22.2314 22.4318 22.2592 22.4991 22.2592 22.5786C22.2592 22.6577 22.2314 22.724 22.1763 22.7767C22.1213 22.8294 22.054 22.8558 21.9745 22.8558H19.9382V24.6214C19.939 24.661 19.9314 24.7003 19.916 24.7368C19.9006 24.7733 19.8777 24.8061 19.8488 24.8332C19.7895 24.8901 19.7175 24.9188 19.6342 24.9188C19.5509 24.9188 19.4799 24.8906 19.4225 24.8332Z" fill="white"/>
<path d="M19.6334 25.037C19.5788 25.0376 19.5246 25.0272 19.4741 25.0064C19.4235 24.9856 19.3777 24.9549 19.3393 24.916C19.3002 24.8777 19.2693 24.8318 19.2486 24.7812C19.2279 24.7305 19.2178 24.6761 19.2188 24.6214V20.5748C19.2188 20.46 19.2588 20.3602 19.3379 20.2784C19.3759 20.2382 19.4218 20.2063 19.4728 20.1848C19.5237 20.1632 19.5786 20.1525 19.6339 20.1532H22.2056C22.2585 20.1523 22.311 20.1623 22.36 20.1823C22.4089 20.2024 22.4533 20.2322 22.4904 20.2699C22.528 20.3072 22.5578 20.3516 22.5779 20.4006C22.598 20.4496 22.6081 20.5021 22.6075 20.5551C22.6074 20.6075 22.5969 20.6594 22.5766 20.7077C22.5562 20.7561 22.5265 20.7999 22.4892 20.8367C22.4518 20.8734 22.4075 20.9024 22.3588 20.9219C22.3101 20.9414 22.2581 20.9511 22.2056 20.9504H20.0555V22.1762H21.9741C22.0271 22.1754 22.0797 22.1854 22.1288 22.2055C22.1778 22.2256 22.2222 22.2556 22.2593 22.2934C22.2972 22.3305 22.3271 22.3749 22.3472 22.424C22.3674 22.473 22.3773 22.5256 22.3765 22.5786C22.3772 22.6315 22.367 22.6839 22.3465 22.7327C22.326 22.7814 22.2957 22.8254 22.2574 22.8619C22.2199 22.8982 22.1755 22.9268 22.1269 22.946C22.0783 22.9651 22.0264 22.9744 21.9741 22.9734H20.0555V24.6214C20.0563 24.6768 20.0455 24.7316 20.0241 24.7827C20.0026 24.8337 19.9709 24.8797 19.9308 24.9179C19.8916 24.9562 19.8451 24.9865 19.7942 25.0068C19.7432 25.0272 19.6888 25.0373 19.6339 25.0365L19.6334 25.037ZM19.6334 20.3885C19.6098 20.3877 19.5863 20.3921 19.5645 20.4013C19.5428 20.4104 19.5232 20.4242 19.5073 20.4417C19.4899 20.4591 19.4762 20.4799 19.467 20.5028C19.4579 20.5257 19.4535 20.5502 19.4541 20.5748V24.6214C19.4541 24.6741 19.4701 24.7151 19.5059 24.7494C19.5765 24.82 19.6922 24.8205 19.7675 24.748C19.7849 24.7318 19.7986 24.7121 19.8077 24.6902C19.8168 24.6683 19.8211 24.6447 19.8202 24.621V22.7386H21.9741C21.9963 22.7394 22.0185 22.7356 22.0392 22.7275C22.0599 22.7194 22.0788 22.7072 22.0946 22.6915C22.11 22.6772 22.1222 22.6596 22.1302 22.6401C22.1382 22.6207 22.142 22.5997 22.1412 22.5786C22.1412 22.5306 22.1261 22.4929 22.0927 22.46C22.0593 22.4271 22.0221 22.4115 21.9741 22.4115H19.8202V20.7151H22.2061C22.2282 20.7158 22.2501 20.7121 22.2707 20.7041C22.2912 20.6961 22.3099 20.684 22.3256 20.6685C22.3411 20.6541 22.3532 20.6366 22.3612 20.6171C22.3693 20.5976 22.373 20.5766 22.3722 20.5555C22.373 20.5334 22.3691 20.5113 22.3607 20.4908C22.3524 20.4703 22.3398 20.4518 22.3238 20.4365C22.3085 20.4208 22.2902 20.4084 22.27 20.4001C22.2497 20.3919 22.228 20.3879 22.2061 20.3885H19.6334Z" fill="white"/>
</svg>
