<svg width="25" height="25" viewBox="0 0 25 25" fill="none" xmlns="http://www.w3.org/2000/svg">
<circle cx="12.5" cy="12.5" r="12.5" fill="#C3DBFF"/>
<path fill-rule="evenodd" clip-rule="evenodd" d="M17.1888 11.9791C17.4764 11.9791 17.7096 12.2123 17.7096 12.5V17.1875C17.7096 17.4751 17.4764 17.7083 17.1888 17.7083H7.8138C7.52615 17.7083 7.29297 17.4751 7.29297 17.1875V12.5021C7.29297 12.2145 7.52615 11.9813 7.8138 11.9813C8.10145 11.9813 8.33464 12.2145 8.33464 12.5021V16.6666H16.668V12.5C16.668 12.2123 16.9012 11.9791 17.1888 11.9791Z" fill="white"/>
<path fill-rule="evenodd" clip-rule="evenodd" d="M9.78927 11.8713C9.99267 11.6679 10.3224 11.6679 10.5258 11.8713L12.5013 13.8468L14.4768 11.8713C14.6802 11.6679 15.0099 11.6679 15.2133 11.8713C15.4167 12.0747 15.4167 12.4045 15.2133 12.6079L12.8696 14.9516C12.6662 15.155 12.3364 15.155 12.133 14.9516L9.78927 12.6079C9.58587 12.4045 9.58587 12.0747 9.78927 11.8713Z" fill="white"/>
<path fill-rule="evenodd" clip-rule="evenodd" d="M12.4974 7.29163C12.785 7.29163 13.0182 7.52481 13.0182 7.81246V14.5833C13.0182 14.8709 12.785 15.1041 12.4974 15.1041C12.2097 15.1041 11.9766 14.8709 11.9766 14.5833V7.81246C11.9766 7.52481 12.2097 7.29163 12.4974 7.29163Z" fill="white"/>
</svg>
