<svg width="20" height="21" viewBox="0 0 20 21" fill="none" xmlns="http://www.w3.org/2000/svg">
<path d="M17.5 15.877V13.377C17.5 13.2112 17.4342 13.0522 17.3169 12.935C17.1997 12.8178 17.0408 12.752 16.875 12.752C16.7092 12.752 16.5503 12.8178 16.4331 12.935C16.3158 13.0522 16.25 13.2112 16.25 13.377V15.877C16.25 16.0427 16.1842 16.2017 16.0669 16.3189C15.9497 16.4361 15.7908 16.502 15.625 16.502H4.375C4.20924 16.502 4.05027 16.4361 3.93306 16.3189C3.81585 16.2017 3.75 16.0427 3.75 15.877V13.377C3.75 13.2112 3.68415 13.0522 3.56694 12.935C3.44973 12.8178 3.29076 12.752 3.125 12.752C2.95924 12.752 2.80027 12.8178 2.68306 12.935C2.56585 13.0522 2.5 13.2112 2.5 13.377V15.877C2.5 16.3742 2.69754 16.8511 3.04917 17.2028C3.40081 17.5544 3.87772 17.752 4.375 17.752H15.625C16.1223 17.752 16.5992 17.5544 16.9508 17.2028C17.3025 16.8511 17.5 16.3742 17.5 15.877ZM13.5125 12.6145L10.3875 15.1145C10.2772 15.2016 10.1406 15.2491 10 15.2491C9.85937 15.2491 9.72284 15.2016 9.6125 15.1145L6.4875 12.6145C6.37364 12.507 6.30426 12.3607 6.2931 12.2045C6.28195 12.0483 6.32982 11.8936 6.42725 11.7711C6.52468 11.6485 6.66457 11.5669 6.81924 11.5426C6.97392 11.5182 7.1321 11.5528 7.2625 11.6395L9.375 13.327V4.62695C9.375 4.46119 9.44085 4.30222 9.55806 4.18501C9.67527 4.0678 9.83424 4.00195 10 4.00195C10.1658 4.00195 10.3247 4.0678 10.4419 4.18501C10.5592 4.30222 10.625 4.46119 10.625 4.62695V13.327L12.7375 11.6395C12.8004 11.58 12.875 11.5344 12.9565 11.5053C13.0381 11.4762 13.1247 11.4644 13.211 11.4705C13.2974 11.4767 13.3815 11.5007 13.458 11.5411C13.5346 11.5815 13.6019 11.6373 13.6558 11.7051C13.7096 11.7728 13.7488 11.851 13.7709 11.9347C13.7929 12.0184 13.7974 12.1057 13.7839 12.1912C13.7704 12.2767 13.7394 12.3585 13.6926 12.4313C13.6459 12.5042 13.5846 12.5665 13.5125 12.6145Z" fill="#C3DBFF"/>
</svg>
